<?xml version="1.0" standalone="no"?>
<!DOCTYPE svg PUBLIC "-//W3C//DTD SVG 1.1//EN" "http://www.w3.org/Graphics/SVG/1.1/DTD/svg11.dtd" >
<svg xmlns="http://www.w3.org/2000/svg" xmlns:xlink="http://www.w3.org/1999/xlink" version="1.1">
<metadata>
Created by FontForge 20200511 at Fri Nov 15 17:08:57 2019
 By convertio

</metadata>
<defs>
<font id="zihun100hao-fangfangxianfengti" horiz-adv-x="1000" vert-adv-y="1000" >
  <font-face 
    font-family="zihun100hao-fangfangxianfengti"
    font-weight="400"
    font-stretch="normal"
    units-per-em="1000"
    panose-1="0 0 5 0 0 0 0 0 0 0"
    ascent="800"
    descent="-200"
    x-height="390"
    cap-height="590"
    bbox="-23 -350 6550 2485"
    underline-thickness="50"
    underline-position="-100"
    unicode-range="U+0020-FFE5"
  />
<missing-glyph horiz-adv-x="600" 
 />
    <glyph glyph-name=".notdef" horiz-adv-x="600" 
 />
    <glyph glyph-name="space" unicode=" " horiz-adv-x="300" 
 />
    <glyph glyph-name="A" unicode="A" horiz-adv-x="697" 
d="M479 -118l-43 138h-213l-39 -138h-164l221 707h183l253 -707h-198zM394 155l-69 220l-63 -220h132z" />
    <glyph glyph-name="B" unicode="B" horiz-adv-x="645" 
d="M529 239l66 -26v-313l-536 -28v725l536 -29v-301zM229 312h209v135l-209 6v-141zM229 26l209 2v139h-209v-141z" />
    <glyph glyph-name="C" unicode="C" horiz-adv-x="655" 
d="M216 436v-390l389 14v-175h-555v705h535v-175z" />
    <glyph glyph-name="D" unicode="D" horiz-adv-x="685" 
d="M635 543v-630l-576 -40v725l575 -27v-28h1zM229 65l249 8v347l-249 6v-361z" />
    <glyph glyph-name="E" unicode="E" horiz-adv-x="601" 
d="M222 450l2 -143h297v-137h-295l2 -148l343 7v-147h-521v708h501v-147z" />
    <glyph glyph-name="F" unicode="F" horiz-adv-x="571" 
d="M222 449l2 -168l287 7v-153l-285 6l4 -258h-180v707h491v-147z" />
    <glyph glyph-name="G" unicode="G" horiz-adv-x="716" 
d="M216 439v-392l282 -4v140h-184v145h352v-145h-1v-298h-615v705h595v-165z" />
    <glyph glyph-name="H" unicode="H" horiz-adv-x="693" 
d="M459 324l4 265h190l-10 -707h-190l4 298h-219l4 -298h-192v707h182l4 -265h223z" />
    <glyph glyph-name="I" unicode="I" horiz-adv-x="330" 
d="M80 -117v707h170v-707h-170z" />
    <glyph glyph-name="J" unicode="J" horiz-adv-x="526" 
d="M55 445v145h451v-155l-125 3v-553h-331v175l164 -10v391z" />
    <glyph glyph-name="K" unicode="K" horiz-adv-x="644" 
d="M50 -118v707h182l3 -221l230 232l125 -129l-210 -170l243 -350l-195 -91l-161 351l-29 -24l4 -305h-192z" />
    <glyph glyph-name="L" unicode="L" horiz-adv-x="498" 
d="M478 25v-143h-428v708h180l-8 -565h256z" />
    <glyph glyph-name="M" unicode="M" horiz-adv-x="874" 
d="M437 193l217 395v2h160v-707h-180l11 384l-113 -244h-2l1 -1h-189l-113 237l11 -377h-180v707h160v-2z" />
    <glyph glyph-name="N" unicode="N" horiz-adv-x="804" 
d="M570 141l-6 448h190v-707h-180l-340 457l6 -457h-190v707h180v-3z" />
    <glyph glyph-name="O" unicode="O" horiz-adv-x="685" 
d="M50 -115v705h585v-705h-585zM216 43l252 4v392l-252 -8v-388z" />
    <glyph glyph-name="P" unicode="P" horiz-adv-x="626" 
d="M220 147v-265h-170v715l526 -29v-421h-356zM220 282h199v165l-199 6v-171z" />
    <glyph glyph-name="Q" unicode="Q" horiz-adv-x="734" 
d="M714 50v-165h-664v705h565v-541zM216 43l232 3v392l-232 4v-399z" />
    <glyph glyph-name="R" unicode="R" horiz-adv-x="618" 
d="M464 147l134 -265h-178l-125 265h-85v-265h-160v715l506 -29v-421h-92zM210 282h199v165l-199 6v-171z" />
    <glyph glyph-name="S" unicode="S" horiz-adv-x="606" 
d="M53 289v301h135v-1l366 1l-6 -169l-350 25l6 -84l352 -147v-332l-506 -1l6 159l353 -17l5 82z" />
    <glyph glyph-name="T" unicode="T" horiz-adv-x="570" 
d="M560 590v-143h-194l8 -565h-190l8 565h-182v143h550z" />
    <glyph glyph-name="U" unicode="U" horiz-adv-x="685" 
d="M466 47l-8 543h177v-705h-585v705h176l-8 -547z" />
    <glyph glyph-name="V" unicode="V" horiz-adv-x="753" 
d="M490 600l208 -39l-227 -679h-193l-222 687l186 36l119 -457z" />
    <glyph glyph-name="W" unicode="W" horiz-adv-x="980" 
d="M298 189l97 399l-1 2h158l-1 -6l116 -421l77 437l215 -36l-215 -680v-2h-154l-109 396l-91 -396h-166l1 6l-199 682l188 30z" />
    <glyph glyph-name="X" unicode="X" horiz-adv-x="679" 
d="M237 250l-184 277l128 80l158 -214l153 215l143 -88l-189 -273l224 -303l-168 -91l-161 242l-167 -241l-155 90z" />
    <glyph glyph-name="Y" unicode="Y" horiz-adv-x="667" 
d="M329 351l147 264l181 -91l-243 -356v-293h-170v295l-234 354l180 91z" />
    <glyph glyph-name="Z" unicode="Z" horiz-adv-x="656" 
d="M58 421l-6 169l506 -1v-135l-283 -431l325 14l6 -159l-556 1v135l332 428z" />
    <glyph glyph-name="a" unicode="a" horiz-adv-x="552" 
d="M350 379v19h148l-8 -411h52v-105h-202l1 39l-291 -37l-10 506zM195 44l149 22l3 178l-157 -1z" />
    <glyph glyph-name="b" unicode="b" horiz-adv-x="600" 
d="M545 370v-495l-339 27v-27h-156l-10 800h176l-4 -298zM388 40v192l-178 -4l-2 -178z" />
    <glyph glyph-name="c" unicode="c" horiz-adv-x="454" 
d="M411 243l-205 18l6 -244l222 12v-137l-384 -10v2l-10 517l384 -11z" />
    <glyph glyph-name="d" unicode="d" horiz-adv-x="600" 
d="M545 675l-10 -790h-156v27l-339 -27v495l333 7l-4 288h176zM197 50l180 10l-2 178l-178 4v-192z" />
    <glyph glyph-name="e" unicode="e" horiz-adv-x="567" 
d="M517 79l-324 4l2 -68l332 14v-137l-477 -10v2l-10 516l477 -15v-306zM373 194l4 81l-188 -1l2 -71z" />
    <glyph glyph-name="f" unicode="f" horiz-adv-x="443" 
d="M127 393l-3 232v4l281 43l12 -140l-118 -9l-2 -127l136 3v-139l-138 3l-5 -381h-156l-5 384l-89 2v123z" />
    <glyph glyph-name="g" unicode="g" horiz-adv-x="600" 
d="M40 -105v495l349 -28v28h146l10 -730l-495 -10v135l331 -7l1 110zM197 33l187 4l3 177l-190 11v-192z" />
    <glyph glyph-name="h" unicode="h" horiz-adv-x="600" 
d="M50 -115l-10 790h186l-4 -304l303 19v-379h55v-129h-222v355l-138 -14l-4 -338h-166z" />
    <glyph glyph-name="i" unicode="i" horiz-adv-x="301" 
d="M64 454v152h170v-152h-170zM69 -118l-9 508h181l-6 -508h-166z" />
    <glyph glyph-name="j" unicode="j" horiz-adv-x="317" 
d="M100 454v152h160v-152h-160zM267 390l-5 -730h-252v129h94l-8 601h171z" />
    <glyph glyph-name="k" unicode="k" horiz-adv-x="551" 
d="M60 -118l-10 813h176l-6 -477l184 185l108 -112l-150 -121l179 -231l-170 -79l-113 226l-40 -32l-2 -172h-156z" />
    <glyph glyph-name="l" unicode="l" horiz-adv-x="335" 
d="M325 11v-129h-265l-10 813h176l-8 -684h107z" />
    <glyph glyph-name="m" unicode="m" horiz-adv-x="849" 
d="M490 390v-18l273 18v-379h56v-129h-233v372l-96 -11v-361h-177l8 373l-95 -11v-362h-176v518h176v-28z" />
    <glyph glyph-name="n" unicode="n" horiz-adv-x="580" 
d="M505 390v-379h55v-129h-222v355l-122 -14v-341h-166v518h166v-29z" />
    <glyph glyph-name="o" unicode="o" horiz-adv-x="565" 
d="M50 -115v505h465v-505h-465zM206 33l152 4v211l-152 -6v-209z" />
    <glyph glyph-name="p" unicode="p" horiz-adv-x="585" 
d="M535 390v-495l-322 -7l3 -235h-176l10 737h156v-20zM388 33v196l-180 -7l3 -185z" />
    <glyph glyph-name="q" unicode="q" horiz-adv-x="600" 
d="M379 363v27h156l10 -737h-176l3 235l-322 7v495zM197 33l177 4l3 178l-180 11v-193z" />
    <glyph glyph-name="r" unicode="r" horiz-adv-x="435" 
d="M413 406l12 -151l-199 -14v-359h-176v528h176v-28z" />
    <glyph glyph-name="s" unicode="s" horiz-adv-x="505" 
d="M52 137v253h137v-1l264 1l-4 -153l-251 23l2 -40l255 -73v-264l-405 -1l5 145l255 -18l2 36z" />
    <glyph glyph-name="t" unicode="t" horiz-adv-x="423" 
d="M96 393l-2 132h171l-1 -129l129 3v-139l-130 3l-2 -252h118v-129h-275l-6 384l-88 2v123z" />
    <glyph glyph-name="u" unicode="u" horiz-adv-x="600" 
d="M30 261v129h222v-355l132 14v341h166v-518h-166v29l-299 -19v379h-55z" />
    <glyph glyph-name="v" unicode="v" horiz-adv-x="560" 
d="M377 398l163 -42l-187 -474h-161l-172 481l153 39l95 -319z" />
    <glyph glyph-name="w" unicode="w" horiz-adv-x="771" 
d="M224 113l85 274v2h129l-2 -7l87 -283l65 296l173 -31l-171 -480v-2h-137l-79 278l-77 -278h-144l2 5l-145 486l153 25z" />
    <glyph glyph-name="x" unicode="x" horiz-adv-x="530" 
d="M171 407l95 -123l88 119l130 -67l-127 -171l153 -199l-139 -96l-114 159l-118 -159l-119 83l148 200l-133 186z" />
    <glyph glyph-name="y" unicode="y" horiz-adv-x="541" 
d="M199 -78v-1l-149 1l1 29v450l166 -1l-13 -343l122 -8l-9 352h174v-730l-431 -1l5 145l267 -18l-3 126z" />
    <glyph glyph-name="z" unicode="z" horiz-adv-x="499" 
d="M56 238l-5 152l353 -1v-127l-175 -256l215 20l5 -144l-399 1v107l206 262z" />
    <glyph glyph-name="uni4E00" unicode="&#x4e00;" 
d="M917 261h-833v140h833v-140z" />
    <glyph glyph-name="uni4E01" unicode="&#x4e01;" 
d="M932 553h-324v-680h-344v140h184v540h-383v140h867v-140z" />
    <glyph glyph-name="uni4E03" unicode="&#x4e03;" 
d="M745 207h149v-330h-551v456l-276 -26l-13 143l289 27v273h163v-257l425 40l13 -144l-439 -41v-330h239z" />
    <glyph glyph-name="uni4E07" unicode="&#x4e07;" 
d="M444 544l-32 -107h444v-568h-409v134h251v300h-327l-138 -458l-154 46l200 653h-206v138h856v-138h-485z" />
    <glyph glyph-name="uni4E08" unicode="&#x4e08;" 
d="M874 -150l-493 266l-143 -271l-146 66l149 280l-137 74l73 140l138 -74l72 136h-324v140h398l79 149l145 -67l-43 -82h296v-140h-371l-112 -212l492 -264z" />
    <glyph glyph-name="uni4E09" unicode="&#x4e09;" 
d="M900 541h-805v138h805v-138zM889 252h-765v138h765v-138zM943 -97h-884v140h884v-140z" />
    <glyph glyph-name="uni4E0A" unicode="&#x4e0a;" 
d="M943 32v-140h-884v140h350v718h160v-241h365v-138h-365v-339h374z" />
    <glyph glyph-name="uni4E0B" unicode="&#x4e0b;" 
d="M566 562v-135l353 -165l-58 -125l-295 138v-424h-160v711h-348v140h884v-140h-376z" />
    <glyph glyph-name="uni4E0C" unicode="&#x4e0c;" 
d="M942 562h-190v-711h-160v711h-169l-191 -709l-154 45l180 664h-200v140h884v-140z" />
    <glyph glyph-name="uni4E0D" unicode="&#x4e0d;" 
d="M171 49l-120 94l323 431l-291 1v135h826v-135l-348 -1l-68 -101l93 -1l-1 -621l-157 1v537zM727 467l225 -320l-121 -83l-227 321z" />
    <glyph glyph-name="uni4E0E" unicode="&#x4e0e;" 
d="M315 528v-106h572v-560h-449v126h289v302h-568v461h156v-95h620v-128h-620zM645 71h-590v130h590v-130z" />
    <glyph glyph-name="uni4E10" unicode="&#x4e10;" 
d="M119 165v350h152v-216h143v283h-348v134h869v-134h-363v-75h320v-128h-320v-80h315v-437h-418v130h260v173h-610z" />
    <glyph glyph-name="uni4E11" unicode="&#x4e11;" 
d="M943 21v-138h-885v138h221l23 210h-187v134h202l22 201h-240v136h751v-681h93zM692 566h-197l-21 -201h218v201zM692 231h-233l-22 -210h255v210z" />
    <glyph glyph-name="uni4E13" unicode="&#x4e13;" 
d="M421 349l-30 -79h452v-128l-165 -151l140 -25l-22 -125l-568 104l21 124l255 -46l132 121h-333l-83 107l36 98h-192v130h241l29 78h-234v128h282l33 90l152 -46l-17 -44h347v-128h-396l-30 -78h466v-130h-516z" />
    <glyph glyph-name="uni4E14" unicode="&#x4e14;" 
d="M814 714v-712h127v-136h-882v136h114v712h641zM329 476h329v102h-329v-102zM329 244h329v102h-329v-102zM329 2h329v114h-329v-114z" />
    <glyph glyph-name="uni4E15" unicode="&#x4e15;" 
d="M71 211l248 368h-248v132h858v-132h-425l-31 -47h114v-505h-156v443l-229 -342zM605 411l118 87l205 -279l-118 -87zM942 9v-132h-882v132h882z" />
    <glyph glyph-name="uni4E16" unicode="&#x4e16;" 
d="M54 393v134h122v178l1 1h153v-179h96l1 220h145v-220h104v220h146v-220h121v-133l-121 -1v-301l-396 2v299h-96v-390h597v-134l-751 1v523h-122zM572 219h104v174h-104v-174z" />
    <glyph glyph-name="uni4E18" unicode="&#x4e18;" 
d="M908 741l15 -135l-606 -34v-153h604v-136h-208v-273h224v-134h-872v134h94v687zM317 10h238v273h-238v-273z" />
    <glyph glyph-name="uni4E19" unicode="&#x4e19;" 
d="M591 577l-8 -102h330v-620h-277v147h121v118l-86 -84l-162 178l101 102l147 -159v176h-223l-180 -295l-108 68v-256h-156v625h320l7 102h-368v142h898v-142h-356zM352 333h-106v-174z" />
    <glyph glyph-name="uni4E1A" unicode="&#x4e1a;" 
d="M942 6v-129h-882v129h245v743h147v-743h94v743h148v-743h248zM128 171l-60 415l141 21l60 -416zM859 168l-140 25l74 413l140 -25z" />
    <glyph glyph-name="uni4E1B" unicode="&#x4e1b;" 
d="M221 50l-151 50l185 655l159 -35l-91 -315l78 45l112 -219l135 524l157 -35l-82 -317l77 42l150 -310l-135 -80l-116 256l-68 -261l-153 45l29 111l-111 -71l-97 186zM68 16h866v-138h-866v138z" />
    <glyph glyph-name="uni4E1C" unicode="&#x4e1c;" 
d="M890 198h-287l-1 -344l-280 1v126h124v217h-287l-39 132l103 187h-144v135h219l62 113l145 -50l-35 -63l453 -1v-133l-528 -1l-104 -185h155l1 138h155v-138h288v-134zM340 74l-169 -206l-109 92l169 206zM934 -46l-118 -84l-151 211l115 85z" />
    <glyph glyph-name="uni4E1D" unicode="&#x4e1d;" 
d="M121 343l-58 112l179 307l147 -65l-147 -235l53 2l75 119l128 -68l-199 -325l173 9l5 -127l-327 -22l-43 115l115 183zM481 458l171 296l145 -65l-146 -228l63 2l96 128l119 -87l-231 -307l232 8l4 -128l-394 -16l-36 121l120 161l-95 -3zM943 4v-129h-885v129h885z" />
    <glyph glyph-name="uni4E1E" unicode="&#x4e1e;" 
d="M598 606h-431v122h624v-122l-194 -149v-52l109 72l49 -68l107 112l86 -83l-123 -128l125 -176l-119 -87l-234 343v-340h-298v120h148v333zM59 112l174 279h-170v123h335v-123l-219 -361zM57 4h884v-128h-884v128z" />
    <glyph glyph-name="uni4E22" unicode="&#x4e22;" 
d="M950 180h-194l169 -262l-140 -81l-40 64l-601 -36l-40 130l144 185h-198v135h371v65h-321v125h322l1 81l-337 -23l-10 134l838 59l10 -135l-341 -24l-1 -92h328v-125h-329v-65h369v-135zM603 127l96 53h-242l-112 -158l312 19z" />
    <glyph glyph-name="uni4E24" unicode="&#x4e24;" 
d="M697 590l-10 -95h208v-638h-298v110h160v103l-54 -30l-54 100l-15 -136l-133 14l12 114l-62 -35l-40 70l-19 -177l-133 14l39 363h-62v-516h-138v644h213l10 95h-251v130h858v-130h-231zM562 590h-105l-11 -95h106zM520 195l18 172h-105l-11 -95l40 22zM673 367l-14 -130
l46 25l52 -94v199h-84z" />
    <glyph glyph-name="uni4E25" unicode="&#x4e25;" 
d="M940 404v-130h-699l-33 -429l-156 17l43 542h69l-20 141l121 14l22 -155h41v187h-253v130h848v-130h-225v-187h42l19 158l121 -14l-16 -144h76zM474 404h78v187h-78v-187z" />
    <glyph glyph-name="uni4E27" unicode="&#x4e27;" 
d="M950 243h-105l80 -97l-107 -84l111 -115l-122 -101l-307 334l79 63h-219v-245l192 47l27 -118l-305 -77l-74 103v290h-150v130h136l-32 114l149 40l46 -154h68l1 175h-336v126h337l1 76h159l-1 -76h341v-126h-341l-2 -175h74l46 153l151 -39l-35 -114h138v-130zM830 243
h-185l80 -83z" />
    <glyph glyph-name="uni4E28" unicode="&#x4e28;" 
d="M577 -149h-160v899h160v-899z" />
    <glyph glyph-name="uni4E2A" unicode="&#x4e2a;" 
d="M965 390l-100 -125l-367 296l-360 -298l-103 122l481 393l128 -97l-28 -23zM423 452h160v-601h-160v601z" />
    <glyph glyph-name="uni4E2B" unicode="&#x4e2b;" 
d="M458 465l-120 -96l-237 280l119 96zM539 465l238 280l119 -96l-237 -280zM575 -147h-160v559h160v-559z" />
    <glyph glyph-name="uni4E2C" unicode="&#x4e2c;" 
d="M599 750v-903h-160v284l-131 -102l-85 113l216 167v104l-113 -47l-85 230l121 46l77 -210v318h160z" />
    <glyph glyph-name="uni4E2D" unicode="&#x4e2d;" 
d="M889 105h-310v-255h-158v255h-309v500h309v145h158v-145h310v-500zM421 239v232h-153v-232h153zM733 471h-154v-232h154v232z" />
    <glyph glyph-name="uni4E30" unicode="&#x4e30;" 
d="M940 51h-365v-200h-160v200h-359v136h359v104h-288v134h288v102h-317v136h317v87h160v-87h323v-136h-323v-102h312v-134h-312v-104h365v-136z" />
    <glyph glyph-name="uni4E32" unicode="&#x4e32;" 
d="M897 -29h-319v-121h-154v121h-319v331h319v51h-293v326h293v71h154v-71h290v-326h-290v-51h319v-331zM424 471v90h-147v-90h147zM578 561v-90h144v90h-144zM424 93v91h-171v-91h171zM749 184h-171v-91h171v91z" />
    <glyph glyph-name="uni4E34" unicode="&#x4e34;" 
d="M952 658v-130h-198l108 -172l-122 -69l-116 185l108 56l-139 -1l-51 -193l-144 41l98 378l147 -33l-16 -62h325zM242 749h148v-901h-148v901zM76 672h130v-672h-130v672zM438 282h494v-413h-494v413zM586 -1h44v156h-44v-156zM740 -1h44v156h-44v-156z" />
    <glyph glyph-name="uni4E36" unicode="&#x4e36;" 
d="M698 167l-128 -92l-260 363l129 92z" />
    <glyph glyph-name="uni4E38" unicode="&#x4e38;" 
d="M940 152v-280h-337v599h-170l-65 -185l211 -106l-58 -125l-200 100l-108 -304l-154 45l118 332l-114 57l58 125l103 -52l40 113h-208v136h257l53 149l153 -44l-38 -106h280v-600h70v146h109z" />
    <glyph glyph-name="uni4E39" unicode="&#x4e39;" 
d="M942 194h-90v-332h-354v128h196v204h-398l-31 -341l-158 15l30 326h-82v136h94l35 381h668v-381h90v-136zM694 330v248h-364l-22 -248h386zM603 392l-118 -49l-68 164l118 50z" />
    <glyph glyph-name="uni4E3A" unicode="&#x4e3a;" 
d="M867 589v-727h-383v128h225v461h-242l-263 -597l-145 63l235 534h-238v138h72l-20 117l138 25l24 -142h85l73 167l149 -54l-50 -113h340zM500 72l-69 219l133 41l69 -218z" />
    <glyph glyph-name="uni4E3B" unicode="&#x4e3b;" 
d="M940 21v-136h-879v136h354v182h-294v134h294v154h-330v136h329l-20 110l154 27l24 -137h343v-136h-340v-154h306v-134h-306v-182h365z" />
    <glyph glyph-name="uni4E3D" unicode="&#x4e3d;" 
d="M940 719v-130h-872v130h872zM93 513h381v-655h-194v122h64v138l-62 -19l-53 178v-426h-136v662zM519 513h382v-655h-194v122h58v138l-55 -17l-61 205v-455h-130v662zM229 385v-68l59 18l56 -184v234h-115zM649 385v-68l67 20l49 -161v209h-116z" />
    <glyph glyph-name="uni4E3E" unicode="&#x4e3e;" 
d="M576 144h348v-130h-348v-163h-156v163h-348v130h348v80h-161v94l-80 -126l-136 79l137 215h-118v132h119l-20 82l145 34l28 -116h78l-24 113l146 30l30 -143h84l48 141l141 -47l-32 -94h135v-132h-125l138 -216l-136 -79l-83 131v-98h-158v-80zM420 346v98h156v-98h143
l-89 140h-265l-89 -140h144z" />
    <glyph glyph-name="uni4E3F" unicode="&#x4e3f;" 
d="M391 -153l-154 45l252 863l153 -45z" />
    <glyph glyph-name="uni4E43" unicode="&#x4e43;" 
d="M907 380v-513h-393v128h235v251h-206l-29 130l137 179h-226l-212 -704l-154 45l200 659h-191v134h771v-134l-133 -175h201z" />
    <glyph glyph-name="uni4E45" unicode="&#x4e45;" 
d="M828 -147l-343 352l-313 -354l-122 101l468 528h-243l-90 -193l-139 64l190 407l141 -60l-38 -82h389v-136l-140 -158l358 -360z" />
    <glyph glyph-name="uni4E47" unicode="&#x4e47;" 
d="M773 152h150v-280h-540v363l-324 -16l-7 136l331 17v180l-276 -21l-11 136l800 59l10 -135l-363 -27v-184l395 20l7 -136l-402 -20v-238h230v146z" />
    <glyph glyph-name="uni4E48" unicode="&#x4e48;" 
d="M179 223l-114 91l309 434l128 -78zM804 -154l-29 74l-607 -47l-40 129l532 732l131 -80l-459 -634l394 26l-81 206l134 48l165 -406z" />
    <glyph glyph-name="uni4E49" unicode="&#x4e49;" 
d="M456 504l-63 204l137 43l63 -203zM833 -150l-333 351l-334 -353l-124 105l314 327l-248 347l136 81l254 -360h4l265 369l134 -84l-255 -352l312 -322z" />
    <glyph glyph-name="uni4E4B" unicode="&#x4e4b;" 
d="M943 2l-45 -144l-658 125l-58 -122l-137 60l102 231l73 -14l422 349h-528v138h303l-22 98l152 35l30 -133h310v-136l-466 -389z" />
    <glyph glyph-name="uni4E4C" unicode="&#x4e4c;" 
d="M901 326v-468h-460v120h300v220h-610v486h233l9 68l158 -20l-6 -48h320v-324h-367v104h211v100l-400 -1v-238zM676 24h-626l-2 124h628v-124z" />
    <glyph glyph-name="uni4E4D" unicode="&#x4e4d;" 
d="M537 523v-98h353v-138h-353v-100h353v-138h-353v-199h-160v673h-82l-111 -247l-147 60l196 440l147 -62l-23 -51h580v-140h-400z" />
    <glyph glyph-name="uni4E4E" unicode="&#x4e4e;" 
d="M939 207h-353v-343h-349v134h189v209h-366v138h128l-28 167l144 26l33 -193h89v239l-324 -17l-8 137l801 42l7 -136l-316 -17v-248h77l40 203l144 -26l-34 -177h126v-138z" />
    <glyph glyph-name="uni4E4F" unicode="&#x4e4f;" 
d="M101 570l-7 132l801 42l6 -131zM944 -7l-35 -139l-671 117l-56 -114l-133 60l96 206l97 -16l385 213h-514v130h314l-21 103l142 29l27 -132h332v-128l-439 -252z" />
    <glyph glyph-name="uni4E50" unicode="&#x4e50;" 
d="M302 351h161v155h156v-155h306v-134h-306l-1 -360l-305 1v126l150 1v232h-312l1 432l701 95l20 -127l-571 -78v-188zM253 193l109 -92l-188 -233l-109 92zM769 186l170 -230l-118 -84l-167 229z" />
    <glyph glyph-name="uni4E52" unicode="&#x4e52;" 
d="M944 125h-553l57 -49l-225 -234l-118 107l173 176h-221v134h105v435l698 59l12 -136l-554 -47v-60h578v-132h-192v-119h240v-134zM549 378h-231v-119h231v119z" />
    <glyph glyph-name="uni4E53" unicode="&#x4e53;" 
d="M944 125h-208l175 -180l-120 -106l-224 232l62 54h-572v134h105v435l698 59l12 -136l-554 -47v-60h578v-132h-192v-119h240v-134zM549 378h-231v-119h231v119z" />
    <glyph glyph-name="uni4E54" unicode="&#x4e54;" 
d="M869 106l-135 115v-370h-158v401h122l-139 119h-112l-110 -93l113 -34l-133 -398l-151 46l112 336l-138 -117l-101 113l183 147h-162v134h343l33 88l-319 -12l-7 135l771 28l6 -134l-284 -11l-33 -94h369v-134h-161l189 -153z" />
    <glyph glyph-name="uni4E56" unicode="&#x4e56;" 
d="M938 407h-360v-556h-156v556h-365v132h365v65l-307 -13l-7 132l772 31l6 -131l-308 -13v-71h360v-132zM226 373h144v-419h-144v61l-155 -22l-18 127l173 25v51h-157v128l157 3v46zM850 158h81v-195h-301v410h144v-64l149 21l17 -127l-166 -24v-92h76v71z" />
    <glyph glyph-name="uni4E58" unicode="&#x4e58;" 
d="M575 287l77 -72v206h137v-32h135v-89h-135v-77h70v52h67v-140h-188l189 -175l-104 -94l-248 233v-248h-152v235l-238 -233l-104 94l178 172h-57v29l-132 -18l-12 91l144 19v51h-139v92h139v38h137v-224l84 81v163h-357v122h357v49l-294 -11l-5 123l744 27l4 -122
l-297 -11v-55h358v-122h-358v-154z" />
    <glyph glyph-name="uni4E59" unicode="&#x4e59;" 
d="M100 683h765v-138l-543 -531h429v153h150v-291h-768l-42 127l548 542h-539v138z" />
    <glyph glyph-name="uni4E5C" unicode="&#x4e5c;" 
d="M931 108v-244h-744v501l-92 -26l-31 138l123 34v237h163v-193l525 144v-559h-375v126h215v247l-365 -102v-411h446v108h135z" />
    <glyph glyph-name="uni4E5D" unicode="&#x4e5d;" 
d="M944 152v-280h-370v575h-149l-202 -596l-154 45l187 551h-200v141h248l59 172l153 -44l-44 -129h262v-579h97v144h113z" />
    <glyph glyph-name="uni4E5E" unicode="&#x4e5e;" 
d="M288 527l-46 -90h561v-136l-397 -290h365v137h150v-275h-765l-28 132l408 296h-303v117l-55 -109l-137 67l198 395l141 -61l-23 -45h577v-138h-646z" />
    <glyph glyph-name="uni4E5F" unicode="&#x4e5f;" 
d="M926 117v-248h-749v475l-104 -18l-21 134l125 22v211h156v-184l132 23v215h154v-188l288 51v-467h-233v122h77v179l-132 -23v-339h-154v312l-132 -23v-368h453v114h140z" />
    <glyph glyph-name="uni4E60" unicode="&#x4e60;" 
d="M877 -138h-393v132h233v589h-651v136h811v-857zM511 434l-69 -127l-255 138l68 127zM692 183l-595 -171l-38 142l595 171z" />
    <glyph glyph-name="uni4E61" unicode="&#x4e61;" 
d="M946 366l-318 -302l-494 -222l-69 145l308 133l-187 -4l-27 129l156 138l-175 -2l-30 133l264 261l131 -84l-187 -178h144l189 167l106 -111l-353 -318h193l232 223z" />
    <glyph glyph-name="uni4E66" unicode="&#x4e66;" 
d="M906 340v-413h-316v133h162v147h-246v-355h-156v355h-289v133h289v160h-242v133h242v116h156v-116h237l-37 41l109 99l139 -153l-110 -99l-47 52v-233h109zM506 340h137v160h-137v-160z" />
    <glyph glyph-name="uni4E69" unicode="&#x4e69;" 
d="M524 629v-150h-172l1 -140h152v-475h-438v475h121v411h165l-1 -121h172zM724 7h81v137h127v-277l-362 -1v1l-1 881h155v-741zM219 4h133v195h-133v-195z" />
    <glyph glyph-name="uni4E70" unicode="&#x4e70;" 
d="M216 581h-118v127l809 1v-257h-160v129h-521l191 -61l-37 -108l-200 69zM929 158h-257l254 -183l-90 -127l-294 218l74 92h-105l-296 -310l-119 103l206 206h-231v128h230l-201 69l39 105l237 -81l-34 -93h81l66 279l150 -37l-58 -241h348v-128z" />
    <glyph glyph-name="uni4E71" unicode="&#x4e71;" 
d="M932 148v-275h-338v877h154v-751h65v149h119zM386 498h154v-128h-154v-85h146v-417h-455v417h153v85h-156v128h156v92l-149 -8l-7 133l450 23l7 -133l-145 -7v-100zM384 161h-159v-167h159v167z" />
    <glyph glyph-name="uni4E73" unicode="&#x4e73;" 
d="M934 127v-269h-337v888h146v-752h75v133h116zM66 592l-10 124l480 25l9 -124zM428 596l122 -31l-47 -175l-123 30zM226 574l115 21l28 -159l-115 -21zM64 544l116 35l45 -155l-116 -35zM559 63l-175 -8l-2 -197h-263v114h119v76l-184 -8l-5 122l226 11l67 76h-260v120
h425v-120l-55 -67l103 5z" />
    <glyph glyph-name="uni4E7E" unicode="&#x4e7e;" 
d="M941 665v-130h-316l-47 -110l-119 50l-1 -332h-119v-56h125l1 -123h-126v-113h-154v113h-133v123h133v56h-114l-1 358l115 1v57h-133v122h133v68l154 1v-69h122v-122h-122v-57h119l113 260l128 -55l-18 -42h260zM328 413h-127v-42h127v42zM803 107h134v-233l-422 1
l-32 126l239 283l-223 1l1 124l393 -1v-126l-233 -279h143v104zM328 282h-127v-42h127v42z" />
    <glyph glyph-name="uni4E86" unicode="&#x4e86;" 
d="M839 715v-136l-249 -212v-500h-304v130h144v426l192 156h-482v136h699z" />
    <glyph glyph-name="uni4E88" unicode="&#x4e88;" 
d="M921 419v-274h-156v140h-180v-423h-302v128h142v295h-368v134h253l-78 43l65 116l193 -108l137 117h-487v132h701v-134l-197 -166h277z" />
    <glyph glyph-name="uni4E89" unicode="&#x4e89;" 
d="M953 218h-137v-165h-286v-197h-313v119h158v79h-247v122h247v49h-325v116h325v49h-257v38l-76 35l212 316l134 -60l-24 -36h395v-121l-48 -50h105v-165h137v-129zM282 563l-35 -51h294l47 51h-306zM530 341h136v48h-136v-48zM666 176v49h-136v-49h136z" />
    <glyph glyph-name="uni4E8B" unicode="&#x4e8b;" 
d="M950 72h-40v-113h-335v-109h-288v84h128v25h-335v108h335v26h-365v90h365v26h-335v106h335v25h-309v239h309v23h-360v108h360v39h160v-39h370v-108h-370v-23h323v-239h-323v-25h335v-111h40v-132zM415 443v33h-154v-33h154zM575 476v-33h168v33h-168zM575 183h180v26
h-180v-26zM755 67v26h-180v-26h180z" />
    <glyph glyph-name="uni4E8C" unicode="&#x4e8c;" 
d="M881 542h-764v140h764v-140zM925 -51h-855v140h855v-140z" />
    <glyph glyph-name="uni4E8D" unicode="&#x4e8d;" 
d="M114 578v134h766v-134h-766zM585 -138h-302v130h142v323h-365v136h879v-136h-354v-453z" />
    <glyph glyph-name="uni4E8E" unicode="&#x4e8e;" 
d="M939 289h-342v-393h-337v132h177v261h-374v134h374v154h-296v134h742v-134h-286v-154h342v-134z" />
    <glyph glyph-name="uni4E8F" unicode="&#x4e8f;" 
d="M880 586h-766v130h766v-130zM359 362l-35 -98h533v-397h-513v126h353v139h-511l-29 128l38 102h-130v132h870v-132h-576z" />
    <glyph glyph-name="uni4E91" unicode="&#x4e91;" 
d="M880 579h-766v132h766v-132zM300 44l367 13l-99 155l127 85l234 -364l-127 -85l-51 80l-598 -22l-50 126l179 272h-218v134h870v-134h-465z" />
    <glyph glyph-name="uni4E92" unicode="&#x4e92;" 
d="M934 40v-130h-868v130h509l19 112h-438l83 424h-146v128h814v-128h-516l-17 -87h431l-78 -449h207zM615 272l17 97h-281l-19 -97h283z" />
    <glyph glyph-name="uni4E93" unicode="&#x4e93;" 
d="M885 576h-765v134h765v-134zM940 304h-171v-456h-157v456h-202l-125 -459l-155 30l117 429h-187v134h880v-134z" />
    <glyph glyph-name="uni4E94" unicode="&#x4e94;" 
d="M938 23v-133h-879v133h175l36 277h-152v132h170l20 151h-228v132h839v-132h-453l-20 -151h374v-409h118zM392 23h270v277h-234z" />
    <glyph glyph-name="uni4E95" unicode="&#x4e95;" 
d="M942 144h-192v-290h-160v290h-266l-55 -291l-154 38l48 253h-106v134h131l35 183h-142v132h167l32 167l155 -28l-26 -139h181v156h160v-156h166v-132h-166v-183h192v-134zM590 278v183h-206l-35 -183h241z" />
    <glyph glyph-name="uni4E98" unicode="&#x4e98;" 
d="M919 598h-839v120h839v-120zM134 59v485h719v-485h-719zM290 424v-65h407v65h-407zM697 179v66h-407v-66h407zM944 0v-126h-886v126h886z" />
    <glyph glyph-name="uni4E9A" unicode="&#x4e9a;" 
d="M94 581v132h809v-132h-203v-567h244v-134h-884v134h226v567h-192zM441 14h105v567h-105v-567zM261 124l-130 -21l-57 371l129 21zM725 123l58 371l129 -21l-57 -371z" />
    <glyph glyph-name="uni4E9B" unicode="&#x4e9b;" 
d="M941 506v-219h-386v464h144v-92l202 21l13 -124l-214 -22v-127h125v99h116zM534 303l-475 -42l-9 128l50 4v321h130v-311l52 5v342h144v-98h97v-125h-97v-108l99 8zM120 95v134h765v-134h-765zM60 16h880v-136h-880v136z" />
    <glyph glyph-name="uni4E9F" unicode="&#x4e9f;" 
d="M344 82h-271v457h287v-424h53v391l138 97h-384v132h635l-1 -104l-130 -96l264 -1v-93l-66 -197l87 -133l-108 -70l-70 113l-64 -113l-123 53l91 151l-67 118l112 60l46 -90l31 90h-166v87l-60 -44v-445h-234v61zM235 190l-1 241h-41v-241h42zM79 3h840v-134h-840v134z
" />
    <glyph glyph-name="uni4EA0" unicode="&#x4ea0;" 
d="M942 631v-140h-884v140h368l-12 101l155 18l14 -119h359z" />
    <glyph glyph-name="uni4EA1" unicode="&#x4ea1;" 
d="M339 508v-477h569v-139h-729v616h-110v140h358l-12 90l151 20l15 -110h354v-140h-596z" />
    <glyph glyph-name="uni4EA2" unicode="&#x4ea2;" 
d="M932 662v-134h-869v134h348l-11 76l152 22l15 -98h365zM829 145h103v-273h-330v425h-250l-103 -455l-156 32l123 557h546v-429h67v143z" />
    <glyph glyph-name="uni4EA4" unicode="&#x4ea4;" 
d="M830 -158l-331 229l-345 -228l-99 128l303 193l-152 144l66 55l-144 -58l-55 130l259 102h-242v137h333l-14 59l155 34l23 -93h318v-137h-231l258 -101l-57 -132l-157 66l76 -69l-152 -130l297 -194zM427 426l-86 -35l159 -144l165 145l-88 37l47 108h-244z" />
    <glyph glyph-name="uni4EA5" unicode="&#x4ea5;" 
d="M937 662v-134h-259l68 -89l-600 -447l-91 119l214 160l-99 -4l-39 117l114 144h-182v134h360l-11 76l152 22l15 -98h358zM615 528h-184l-105 -128l119 1zM749 174l183 -222l-118 -97l-188 228l-322 -236l-94 119l617 453l94 -119z" />
    <glyph glyph-name="uni4EA6" unicode="&#x4ea6;" 
d="M938 655v-136h-215v-656h-286v122h130v534h-106l-123 -665l-154 28l119 637h-237v136h356l-12 83l152 22l16 -105h360zM248 423l-65 -348l-136 26l66 347zM888 432l47 -357l-143 -19l-46 357z" />
    <glyph glyph-name="uni4EA7" unicode="&#x4ea7;" 
d="M905 550h-804v134h320l-12 49l155 34l20 -83h321v-134zM929 285h-666l-54 -446l-158 13l72 567h165l-23 94l155 34l27 -128h128l27 128l155 -34l-20 -94h192v-134z" />
    <glyph glyph-name="uni4EA8" unicode="&#x4ea8;" 
d="M929 704v-114h-857v114h343l-5 50l157 16l8 -66h354zM858 558v-274h-713v274h713zM704 450h-405v-58h405v58zM83 251h809v-132l-304 -124v-136h-343v108h183v110l202 58h-547v116z" />
    <glyph glyph-name="uni4EA9" unicode="&#x4ea9;" 
d="M948 650v-135h-898v135h375l-18 86l153 32l24 -118h364zM123 448h779v-576h-779v576zM281 313v-87h152v87h-152zM744 313h-158v-87h158v87zM281 7h152v87h-152v-87zM744 7v87h-158v-87h158z" />
    <glyph glyph-name="uni4EAB" unicode="&#x4eab;" 
d="M929 592h-857v114h343l-5 48l157 16l8 -64h354v-114zM145 323v239h713v-239h-713zM299 423h405v39h-405v-39zM944 6h-356v-147h-343v106h183v41h-374v120h446l127 51h-544v113l772 2v-116l-107 -50h196v-120z" />
    <glyph glyph-name="uni4EAC" unicode="&#x4eac;" 
d="M929 556h-857v128h343l-5 59l157 16l8 -75h354v-128zM583 164v-304h-278v119h120v185h-277v345h710v-345h-275zM302 288h402v97h-402v-97zM362 58l-212 -208l-100 101l211 206zM943 -48l-99 -100l-209 204l102 99z" />
    <glyph glyph-name="uni4EAD" unicode="&#x4ead;" 
d="M929 606h-857v108h342l-4 40l157 16l7 -56h355v-108zM148 346v232h710v-232h-710zM302 442h402v40h-402v-40zM936 152h-58v-91h-292v-206h-311v115h153v91h-305v91h-60v165h873v-165zM786 176v29h-573v-29h573z" />
    <glyph glyph-name="uni4EAE" unicode="&#x4eae;" 
d="M921 582h-843v122h333l-5 36l165 25l8 -61h342v-122zM149 339v221h694v-221h-694zM299 443h394v23h-394v-23zM212 98h-144v219h861v-206h-144v86h-573v-99zM936 60v-202h-347v197h-218l-76 -209l-156 34l109 295h491v-205h80v90h117z" />
    <glyph glyph-name="uni4EB2" unicode="&#x4eb2;" 
d="M906 550h-811v128h325l-7 60l150 16l9 -76h334v-128zM937 437v-132h-354v-57h314v-130h-314v-258h-278v112l-174 -122l-82 115l218 153h-177v130h335v57h-364v132h166l-12 77l147 24l16 -101h234l16 101l147 -24l-12 -77h174zM425 118h-154l83 -112l-39 -27h110v139z
M703 116l227 -151l-82 -115l-229 152z" />
    <glyph glyph-name="uni4EB3" unicode="&#x4eb3;" 
d="M940 710v-110h-880v110h365l-5 30l155 15l5 -45h360zM852 576v-190h-704v190h704zM697 495h-394v-28h394v28zM65 362h870v-190h-122l2 -47l-255 -6v-31l360 13l5 -95l-365 -12v-31h226v27h120v-135h-506v108l-330 -13l-5 121l335 12v32l-235 -5l-3 62h-97v190zM219 252
v-36l562 13v23h-562z" />
    <glyph glyph-name="uni4EB5" unicode="&#x4eb5;" 
d="M969 -54l-96 -119l-402 282l67 92l-71 16l25 82l-34 8l23 100l42 -9l12 38h-62v108h96l12 40h-525v114h358l-6 43l157 19l9 -62h366v-114h-323l118 -21l-6 -19h182l2 -244h38v-105h-185l-2 241h-66l-21 -71l83 -18l-21 -108l-93 22l-23 -78l-13 3l97 -65l86 70l88 -92
l-64 -51zM540 28l54 -129l-309 -72l-61 68v127l-131 -72l-59 119l242 128h-195v90h89v23l-116 -7l-5 100l121 8v31h-111v94h111v40h158v-40h103v-94h-103v-21l108 7l8 -101l-116 -7v-95l67 35l78 -102l-100 -55v-126z" />
    <glyph glyph-name="uni4EBA" unicode="&#x4eba;" 
d="M812 -148l-322 564l-288 -556l-145 67l430 830l145 -67l-112 -216l89 55l340 -593z" />
    <glyph glyph-name="uni4EBB" unicode="&#x4ebb;" 
d="M286 464h67v-614h-158v468l-27 -43l-140 95l250 390l145 -75z" />
    <glyph glyph-name="uni4EBF" unicode="&#x4ebf;" 
d="M235 755l145 -70l-129 -251h59v-584h-152v444l-123 66zM940 157v-282h-557l-43 120l370 554h-330v136h515v-136l-360 -540h261v148h144z" />
    <glyph glyph-name="uni4EC0" unicode="&#x4ec0;" 
d="M251 434h69v-584h-156v441l-129 69l200 395l145 -70zM950 441v-140h-230v-450h-160v450h-218v140h218v309h160v-309h230z" />
    <glyph glyph-name="uni4EC1" unicode="&#x4ec1;" 
d="M251 434h69v-584h-156v441l-129 69l200 395l145 -70zM905 498h-510v142h510v-142zM935 39v-144h-580v144h580z" />
    <glyph glyph-name="uni4EC2" unicode="&#x4ec2;" 
d="M263 434h62v-584h-157v439l-133 71l240 405l135 -80zM915 603v-738h-274v126h116v482h-103l-114 -628l-156 22l110 606h-107v130h130l27 149l156 -22l-23 -127h238z" />
    <glyph glyph-name="uni4EC3" unicode="&#x4ec3;" 
d="M377 687l-113 -216h54v-621h-158v484l-114 55l192 368zM950 568h-187v-706l-312 1v130h152v575h-207v140h554v-140z" />
    <glyph glyph-name="uni4EC4" unicode="&#x4ec4;" 
d="M826 -150l-237 357l-173 -357l-145 73l312 636h-296l-71 -706l-160 12l84 834h800v-140h-338l134 -49l-134 -276l110 72l243 -361z" />
    <glyph glyph-name="uni4EC5" unicode="&#x4ec5;" 
d="M810 -156l-163 313l-157 -313l-147 61l173 339l-151 264l114 61h-81v98l-127 -212h41v-605h-154v453l-117 65l236 399l121 -75v9h528v-132l-147 -325l173 -330zM506 569l141 -244l115 244h-256z" />
    <glyph glyph-name="uni4EC6" unicode="&#x4ec6;" 
d="M423 685l-137 -221h67v-614h-158v468l-27 -43l-140 95l250 390zM835 160l-141 212l-2 -522h-154l3 900h154l-1 -314l86 64l170 -245z" />
    <glyph glyph-name="uni4EC7" unicode="&#x4ec7;" 
d="M945 130v-265h-276v571h-75l-92 -586l-157 20l90 566h-89v133l-81 -135h45v-584h-152v444l-123 66l240 395l135 -80l-63 -105h109l29 185l157 -15l-27 -171h210v-574h50v135h70z" />
    <glyph glyph-name="uni4EC9" unicode="&#x4ec9;" 
d="M262 471h56v-621h-158v483l-116 56l192 368l139 -70zM940 140v-265h-280v692h-111l-37 -717l-158 10l44 845h421v-698h51v133h70z" />
    <glyph glyph-name="uni4ECA" unicode="&#x4eca;" 
d="M965 421l-84 -128l-405 280l-350 -281l-101 116l481 367l123 -80l-41 -33zM573 310l-136 -23l-31 171l136 24zM156 272h666v-134l-205 -299l-140 71l163 228h-484v134z" />
    <glyph glyph-name="uni4ECB" unicode="&#x4ecb;" 
d="M963 399l-86 -125l-391 290l-349 -295l-101 115l478 389l123 -82l-40 -33zM269 380l156 -27l-85 -500l-156 26zM568 358h158v-508h-158v508z" />
    <glyph glyph-name="uni4ECD" unicode="&#x4ecd;" 
d="M257 471h43v-621h-154v488l-107 51l192 368l139 -70zM922 381v-516h-302v130h148v270h-109l-46 111l122 195h-144l-90 -722l-154 19l92 703h-63v135h528v-135l-117 -190h135z" />
    <glyph glyph-name="uni4ECE" unicode="&#x4ece;" 
d="M806 -148l-113 496l-102 -497l-156 30l33 163l-114 -26l-67 297l-84 -464l-156 26l159 880l157 -26l-55 -301l106 24l71 -327l130 630l156 -30l-58 -281l112 24l136 -588z" />
    <glyph glyph-name="uni4ED1" unicode="&#x4ed1;" 
d="M478 562l-223 -174h84v-141l420 116l39 -141l-459 -126v-97h385v137h141v-269h-684v464l-50 -39l-97 120l480 353l123 -80l-44 -34l373 -234l-84 -125z" />
    <glyph glyph-name="uni4ED3" unicode="&#x4ed3;" 
d="M766 378v-248h116v-270h-689v500l-68 -51l-90 113l472 343l123 -80l-43 -32l379 -230l-84 -125zM255 406h475l-259 161zM741 -8v86h-273v116h146v80h-267v-282h394z" />
    <glyph glyph-name="uni4ED4" unicode="&#x4ed4;" 
d="M258 471h60v-621h-158v496l-114 55l192 368l139 -70zM950 230h-193l-2 -381h-283v134h129v247h-237v140h237v49l124 167h-300v140h476v-140l-143 -199v-17h192v-140z" />
    <glyph glyph-name="uni4ED5" unicode="&#x4ed5;" 
d="M380 700l-131 -256h71v-594h-156v456l-129 69l200 395zM747 305v-287h183v-138h-528v138h185v287h-205v138h205v307h160v-307h204v-138h-204z" />
    <glyph glyph-name="uni4ED6" unicode="&#x4ed6;" 
d="M264 471h44v-621h-148v484l-114 55l192 368l139 -70zM943 85v-221h-566v528l-36 -8l-27 136l63 14v118h150v-86l57 13v158h136v-129l217 47v-527h-182v114h32v243l-67 -15v-435h-136v404l-57 -13v-426h284v85h132z" />
    <glyph glyph-name="uni4ED7" unicode="&#x4ed7;" 
d="M845 -157l-230 228l-110 -227l-148 61l138 284l-131 130l109 115l95 -94l62 127h-263v140h331l77 158l147 -62l-47 -96h63v-140h-131l-119 -246l266 -262zM264 471h54v-621h-158v484l-114 55l192 368l139 -70z" />
    <glyph glyph-name="uni4ED8" unicode="&#x4ed8;" 
d="M259 471h59v-621h-158v494l-114 55l192 368l139 -70zM949 461h-107v-606h-268v126h115v480h-316v140h316v148h153v-148h107v-140zM640 107l-132 -42l-87 277l132 41z" />
    <glyph glyph-name="uni4ED9" unicode="&#x4ed9;" 
d="M263 474h29v-624h-152v449l-100 43l178 418l141 -64zM925 564v-695h-576v695h150v-562h61v750h154v-750h61v562h150z" />
    <glyph glyph-name="uni4EDD" unicode="&#x4edd;" 
d="M112 324l-94 125l507 327l146 -82l-47 -31l365 -216l-93 -125l-402 255zM577 10h369v-134h-890v134h361v213h-248v134h641v-134h-233v-213z" />
    <glyph glyph-name="uni4EDE" unicode="&#x4ede;" 
d="M251 471h50v-621h-156v485l-112 54l192 368l139 -70zM914 719v-857h-263v132h105v589h-87l-121 -737l-154 25l121 712h-136v136h535zM415 208l-98 14l42 249l95 -13z" />
    <glyph glyph-name="uni4EDF" unicode="&#x4edf;" 
d="M266 477h54v-627h-155v479l-119 57l192 375l135 -70zM949 387v-139h-217v-398h-160v398h-212v139h212v178l-163 -12l-11 133l498 37l11 -132l-175 -13v-191h217z" />
    <glyph glyph-name="uni4EE1" unicode="&#x4ee1;" 
d="M251 434h69v-584h-152v439l-133 71l200 395l145 -70zM523 524l-51 -94h398v-130l-283 -300h197v122h146v-252h-517l-43 120l292 310h-282v125l-70 35l155 295l155 -55l-22 -40h337v-136h-412z" />
    <glyph glyph-name="uni4EE3" unicode="&#x4ee3;" 
d="M264 471h54v-621h-158v484l-114 55l192 368l139 -70zM745 -8h178v-133h-322l-60 468l-186 -14l-10 139l179 13l-35 271l161 15l34 -274l239 17l8 -138l-229 -17zM734 547l-41 176l136 26l41 -177z" />
    <glyph glyph-name="uni4EE4" unicode="&#x4ee4;" 
d="M963 424l-84 -125l-406 280l-352 -278l-93 119l476 361l123 -80l-41 -33zM573 335l-133 -24l-34 162l133 24zM144 295h699v-134l-161 -156l104 -22l-31 -134l-558 115l31 134l288 -59l130 124h-502v132z" />
    <glyph glyph-name="uni4EE5" unicode="&#x4ee5;" 
d="M809 -142l-136 371l-89 -374l-152 32l205 863l152 -35l-101 -425l110 40l156 -418zM449 6l-271 -133l-80 118v750h158l1 -673l140 64zM356 281l-55 365l145 24l55 -365z" />
    <glyph glyph-name="uni4EE8" unicode="&#x4ee8;" 
d="M251 434h59v-584h-156v446l-119 64l200 395l145 -70zM910 528h-520v142h520v-142zM410 232v138h475v-138h-475zM935 39v-144h-590v144h590z" />
    <glyph glyph-name="uni4EEA" unicode="&#x4eea;" 
d="M264 471h54v-621h-158v484l-114 55l192 368l139 -70zM581 538l-38 192l145 24l38 -192zM818 -156l-170 259l-173 -260l-140 78l218 327l-205 312l138 79l163 -247l165 246l138 -79l-207 -311l214 -325z" />
    <glyph glyph-name="uni4EEB" unicode="&#x4eeb;" 
d="M449 215l-130 67l220 486l140 -52zM259 471h59v-621h-158v494l-114 55l192 368l139 -70zM818 -156l-12 62l-358 -38l-40 129l335 751l146 -49l-304 -684l195 18l-46 226l140 24l90 -416z" />
    <glyph glyph-name="uni4EEC" unicode="&#x4eec;" 
d="M359 696l-96 -222h29v-624h-152v449l-100 43l178 418zM392 718h156v-156h-156v156zM918 690v-823h-298v126h144v563h-149v134h303zM365 517h152v-664h-152v664z" />
    <glyph glyph-name="uni4EF0" unicode="&#x4ef0;" 
d="M944 702v-742h-180v139h39v464h-65v-714h-151v147l-189 -67l-56 86v655l-100 -191h37v-629h-150v494l-106 51l192 368l139 -70l-2 -4l191 66l44 -109v56h357zM587 3v618l-101 -33v-499l67 22z" />
    <glyph glyph-name="uni4EF2" unicode="&#x4ef2;" 
d="M252 471h63v-621h-155v506l-114 55l192 368l139 -70zM944 121h-219v-271h-143v271h-218v471h218v158h143v-158h219v-471zM582 247v219h-71v-219h71zM797 466h-72v-219h72v219z" />
    <glyph glyph-name="uni4EF3" unicode="&#x4ef3;" 
d="M316 721l-97 -283h53v-587h-146v463l-96 37l143 412zM572 48l33 -122l-184 -74l-77 96l3 803h151v-289h91v-128h-91v-317zM820 127h116v-269h-321v893h154v-290l124 100l77 -97l-201 -164v-314h51v141z" />
    <glyph glyph-name="uni4EF5" unicode="&#x4ef5;" 
d="M275 494h46v-644h-157v516l-97 46l167 368l136 -70zM947 332v-136h-200v-346h-158l-3 346h-244v136h243l1 185h-48l-33 -141l-138 29l82 343l137 -30l-16 -68h360v-133h-185l2 -185h200z" />
    <glyph glyph-name="uni4EF6" unicode="&#x4ef6;" 
d="M264 471h50v-621h-156v485l-112 54l192 368l139 -70zM949 131h-191v-280h-160v280h-239v138h239v172h-81l-23 -135l-150 26l70 399l149 -25l-22 -127h57v174h160v-174h171v-138h-171v-172h191v-138z" />
    <glyph glyph-name="uni4EF7" unicode="&#x4ef7;" 
d="M867 288l-32 33v-471h-156l-1 476h152l-198 204l-160 -187l136 -21l-71 -474l-154 16l67 453l-37 -43l-103 84v-508h-152v445l-116 65l236 399l132 -82l-146 -243h46v-44l327 379l132 -79l-41 -48l248 -248z" />
    <glyph glyph-name="uni4EFB" unicode="&#x4efb;" 
d="M264 471h51v-621h-155v484l-114 55l192 368l139 -70zM733 224v-215h198v-138h-550v138h192v215h-223v136h223v195l-174 -11l-9 137l546 35l9 -137l-212 -14v-205h213v-136h-213z" />
    <glyph glyph-name="uni4EFD" unicode="&#x4efd;" 
d="M263 434h57v-584h-152v439l-133 71l240 405l135 -80zM900 324v-459h-266v118h112v265h-123l-101 -398l-147 35l95 363h-81v81l-64 21l165 395l148 -45l-143 -320h299l-130 320l146 45l165 -390z" />
    <glyph glyph-name="uni4EFF" unicode="&#x4eff;" 
d="M264 471h52v-621h-156v484l-114 55l192 368l139 -70zM615 511l-14 -109h296v-540h-280v124h122l-1 286h-154l-57 -423l-157 16l87 646h-85v132h205l-13 89l153 23l19 -112h212v-132h-333z" />
    <glyph glyph-name="uni4F01" unicode="&#x4f01;" 
d="M131 300l-95 114l478 359l123 -82l-35 -27l361 -235l-86 -125l-392 270zM594 8h348v-134h-885v134h110v297h152v-297h117v472h158v-189h285v-130h-285v-153z" />
    <glyph glyph-name="uni4F09" unicode="&#x4f09;" 
d="M359 522v126l-113 -214h64v-584h-152v441l-124 69l210 395l132 -75l-12 -23h198l-8 85l157 11l8 -96h212v-135h-572zM938 124v-267h-235v471h-136l-44 -484l-156 18l60 601h430v-482h34v143h47z" />
    <glyph glyph-name="uni4F0A" unicode="&#x4f0a;" 
d="M263 474h29v-624h-152v449l-100 43l178 418l144 -55zM947 344h-52v-219h-313l-37 -280l-154 20l34 260h-89v132h107l11 87h-127v134h145l11 85h-123v132h535v-217h52v-134zM629 478h112v85h-101zM741 344h-130l-11 -87h141v87z" />
    <glyph glyph-name="uni4F0D" unicode="&#x4f0d;" 
d="M246 434h68v-584h-156v450l-123 62l200 395l143 -65zM949 8v-134h-588v134h93l31 273h-93v132h107l17 148h-132v132h546v-132h-257l-17 -148h239v-405h54zM611 8h126v273h-95z" />
    <glyph glyph-name="uni4F0E" unicode="&#x4f0e;" 
d="M851 -166l-208 181l-193 -182l-121 104l179 155l-133 152l89 64h-102v134h205v84h-198v83l-105 -175h46v-584h-152v445l-116 65l236 399l132 -82l-9 -15h166v87h156v-87h223v-136h-223v-84h208v-139l-148 -201l183 -157zM519 308l125 -140l122 140h-247z" />
    <glyph glyph-name="uni4F0F" unicode="&#x4f0f;" 
d="M251 434h67v-584h-154v441l-129 69l200 395l145 -70zM940 515v-136h-307l-113 -539l-160 25l107 514h-120v136h148l50 240l160 -30l-44 -210h102l-33 150l120 25l38 -175h52zM815 350l110 -470l-155 -35l-110 475z" />
    <glyph glyph-name="uni4F10" unicode="&#x4f10;" 
d="M244 434h46v-584h-152v445l-116 65l236 399l132 -82zM780 -8h143v-133h-282l-29 167l-239 -126l-62 135l275 143l-33 190l-198 -15l-10 139l184 13l-40 231l160 15l40 -234l234 17l8 -138l-218 -16l21 -124l150 78l64 -130l-187 -99zM724 547l-31 176l136 26l31 -177z
" />
    <glyph glyph-name="uni4F11" unicode="&#x4f11;" 
d="M264 471h50v-621h-156v485l-112 54l192 368l139 -70zM816 -132l-95 559v-576h-158v581l-94 -564l-147 32l105 545h-80v138h216v168h158v-168h216v-138h-81l105 -545z" />
    <glyph glyph-name="uni4F17" unicode="&#x4f17;" 
d="M802 240l157 -310l-139 -75l-127 271l-77 -288l-154 45l38 140l-107 -63l-97 174l-95 -289l-151 50l162 493l-100 -68l-80 130l491 330l125 -95l-29 -20l343 -210l-85 -135l-113 73l-53 -198zM712 426l-228 147l-196 -133l102 -22l-69 -210l75 42l111 -200l106 395z" />
    <glyph glyph-name="uni4F18" unicode="&#x4f18;" 
d="M244 434h46v-584h-156v448l-112 62l236 399l132 -82zM781 378v-389h54v155h104v-285h-316v519h-33l-74 -538l-159 21l73 517h-87v139h106l33 233l158 -14l-30 -219h126l-35 189l140 25l39 -214h65v-139h-164z" />
    <glyph glyph-name="uni4F19" unicode="&#x4f19;" 
d="M265 479h49v-629h-156v491l-112 54l192 368l139 -70zM752 350l190 -432l-144 -66l-156 360l-146 -363l-149 53l181 460l59 388l157 -22l-58 -364l51 21l10 -22l62 242l137 -34l-64 -254zM385 336l-46 248l139 26l47 -248z" />
    <glyph glyph-name="uni4F1A" unicode="&#x4f1a;" 
d="M140 298l-93 112l485 409l104 -115l-18 -15l352 -273l-88 -116l-127 95v-66h-506v58zM496 589l-178 -145h372zM83 256h843v-124h-452l-135 -142l322 12l-38 53l118 77l148 -209l-116 -78l-35 48l-540 -20l-51 123l133 136h-197v124z" />
    <glyph glyph-name="uni4F1B" unicode="&#x4f1b;" 
d="M970 -4v-133h-595v813l-134 -232h69v-594h-158v469l-123 77l211 369l135 -77v39h568v-133h-412v-598h439zM663 8l-132 54l109 237l-94 226l132 55l60 -156l55 153l136 -54l-90 -216l107 -243l-130 -56l-78 178z" />
    <glyph glyph-name="uni4F1E" unicode="&#x4f1e;" 
d="M124 331l-80 130l481 320l125 -100l-25 -17l329 -198l-80 -130l-382 240zM577 171h337v-136h-337v-184h-158v184h-335v136h335v281h158v-281zM638 210l54 186l134 -38l-52 -179zM171 350l134 38l54 -176l-136 -31z" />
    <glyph glyph-name="uni4F1F" unicode="&#x4f1f;" 
d="M691 530v-54h212v-130h-212v-58h235v-353h-218v122h70v99h-87v-306h-160v306h-196v132h196v58h-164v130h164v54h-180v113l-86 -164h49v-629h-156v491l-112 54l192 368l139 -70l-16 -31h170v89h160v-89h235v-132h-235z" />
    <glyph glyph-name="uni4F20" unicode="&#x4f20;" 
d="M613 328l-16 -59h301v-129l-130 -160l107 -34l-51 -127l-411 130l46 128l161 -51l85 108h-205l-70 129l17 65h-102v132h136l18 72h-141v125l-93 -178h49v-629h-156v491l-112 54l192 368l139 -70l-16 -31h172l26 101l163 -33l-18 -68h218v-130h-254l-19 -72h289v-132h-325
z" />
    <glyph glyph-name="uni4F22" unicode="&#x4f22;" 
d="M235 755l145 -70l-129 -251h69v-584h-156v441l-129 69zM950 265h-70v-410h-281v123h129v287h-35l-183 -415l-140 60l167 355h-137l-40 122l45 183l138 -30l-35 -143h220v187h-348v136h565v-136h-65v-187h70v-132z" />
    <glyph glyph-name="uni4F24" unicode="&#x4f24;" 
d="M243 471h53v-621h-156v479l-104 50l160 372l142 -54zM942 529h-322l119 -32l-48 -135h236v-490h-294v124h136v232h-125l-136 -385l-145 47l121 338h-110v134h158l59 167h-75l-46 -139l-141 39l110 321l137 -38l-16 -49h383z" />
    <glyph glyph-name="uni4F25" unicode="&#x4f25;" 
d="M251 434h67v-584h-154v441l-129 69l200 395l145 -70zM735 10l20 -120l-250 -40l-50 90v325h-107v135h107v350h158v-350h327v-135h-327v-275zM700 425l-80 110l245 185l85 -105zM960 -60l-120 -80l-205 315l120 75z" />
    <glyph glyph-name="uni4F26" unicode="&#x4f26;" 
d="M785 123h135v-248h-490v479l-40 -39l-70 74v-539h-152v439l-133 71l240 395l135 -80l-145 -241h39l331 336l120 -95l-24 -23l259 -207l-90 -115l-264 228l-140 -138h88v-122l261 77l35 -135l-296 -88v-141h201v112z" />
    <glyph glyph-name="uni4F27" unicode="&#x4f27;" 
d="M799 66h130v-209h-497v513l-19 -16l-95 112l350 303l115 -99l-16 -14l220 -169l-82 -119l-21 16v-299h-263v110h111v109h-146v-329h213v91zM286 434h30v-584h-158v446l-116 64l249 393l144 -88zM497 426h332l-174 134z" />
    <glyph glyph-name="uni4F2A" unicode="&#x4f2a;" 
d="M916 538v-672h-272v130h122v406h-146l-129 -553l-149 32l123 521h-146v136h50l-23 130l-83 -194h29v-624h-152v449l-100 43l178 418l144 -55l-15 -36l101 18l25 -149h24l50 213l148 -27l-43 -186h264zM738 108l-105 -18l-33 188l106 18z" />
    <glyph glyph-name="uni4F2B" unicode="&#x4f2b;" 
d="M264 471h39v-622h-156v492l-97 48l192 368l135 -70zM565 586l-18 140l146 19l21 -159h224v-246h-150v113h-275v-113h-150v246h202zM949 15v-138l-599 2v138z" />
    <glyph glyph-name="uni4F2F" unicode="&#x4f2f;" horiz-adv-x="999" 
d="M251 434h51v-584h-152v448l-115 62l200 395l145 -70zM940 640v-770h-571v770h161l28 110l162 -20l-19 -90h239zM786 506h-266v-168h266v168zM786 213h-266v-208h266v208z" />
    <glyph glyph-name="uni4F30" unicode="&#x4f30;" 
d="M274 474h38v-624h-156v447l-105 45l178 418l144 -55zM732 476v-147h191v-462h-538v462h191v147h-212v136h212v138h156v-138h212v-136h-212zM767 195h-226v-192h226v192z" />
    <glyph glyph-name="uni4F32" unicode="&#x4f32;" 
d="M268 501h50v-651h-158v466l-14 -24l-130 81l222 389l139 -75zM556 358l-35 -508l-160 8l65 882h504v-382h-374zM573 604l-8 -110h227v110h-219zM840 110h102v-245h-377v458h145v-87l202 94l48 -120l-250 -116v-90h130v106z" />
    <glyph glyph-name="uni4F34" unicode="&#x4f34;" 
d="M244 471h54v-621h-158v484l-114 55l192 368l139 -70zM938 80h-220v-230h-158v230h-230v137h230v95h-200v137h200v298h158v-298h196v-137h-196v-95h220v-137zM415 471l-57 193l115 33l57 -193zM857 471l-115 33l57 193l115 -33z" />
    <glyph glyph-name="uni4F36" unicode="&#x4f36;" 
d="M626 565l-226 -210l-100 105l335 320l120 -95l-22 -21l247 -169l-85 -130zM265 434h55v-584h-152v439l-133 71l240 395l135 -80zM717 355h193v-134l-169 -207l104 -49l-65 -125l-370 170l65 130l140 -66l125 149h-375v132h217l-27 125l135 25z" />
    <glyph glyph-name="uni4F38" unicode="&#x4f38;" 
d="M254 471h52v-621h-156v484l-114 55l192 368l139 -70zM938 651v-634h-212v-167h-158v167h-212v634h212v101h158v-101h212zM576 521h-76v-122h76v122zM794 521h-76v-122h76v122zM576 273h-76v-126h76v126zM794 273h-76v-126h76v126z" />
    <glyph glyph-name="uni4F3A" unicode="&#x4f3a;" 
d="M374 685l-125 -251h71v-584h-156v441l-129 69l194 395zM923 713v-855h-318v127h163v602h-389v126h544zM742 417h-357v120h357v-120zM725 32h-326v340h326v-340zM590 260h-56v-120h56v120z" />
    <glyph glyph-name="uni4F3C" unicode="&#x4f3c;" 
d="M339 719l-119 -285h74v-584h-148v459l-114 51l164 400zM835 -150l-61 228l-76 -233l-137 45l47 146l-178 -161l-75 65v804h150v-644l70 55l49 -68l80 248l16 415l155 -10l-24 -425l119 -415zM570 285l-60 285l120 30l60 -285z" />
    <glyph glyph-name="uni4F3D" unicode="&#x4f3d;" 
d="M472 678h146v-804h-173v116h37v560h-19l-49 -698l-144 10l53 688h-34v103l-73 -215h31v-587h-145v472l-72 28l145 410l137 -40l-15 -43h35l6 72l139 -8zM938 681v-811h-286v811h286zM815 563h-40v-575h40v575z" />
    <glyph glyph-name="uni4F43" unicode="&#x4f43;" 
d="M926 681v-805h-599v797l-91 -200h29v-621h-148v493l-93 44l170 379l146 -67l-9 -20h595zM472 543v-194h83v194h-83zM780 543h-82v-194h82v194zM472 14h83v199h-83v-199zM780 14v199h-82v-199h82z" />
    <glyph glyph-name="uni4F46" unicode="&#x4f46;" 
d="M274 474h32v-624h-156v450l-99 42l178 418l144 -55zM910 67h-521v630h521v-630zM756 569h-213v-124h213v124zM756 321h-213v-126h213v126zM951 12v-134h-601v134h601z" />
    <glyph glyph-name="uni4F4D" unicode="&#x4f4d;" 
d="M930 463h-600v132h229l-16 145l150 20l18 -165h219v-132zM244 471h50v-621h-154v484l-114 55l192 368l139 -70zM940 -1v-134h-595v134h302l69 427l151 -31l-64 -396h137zM395 406l152 20l44 -365l-152 -24z" />
    <glyph glyph-name="uni4F4E" unicode="&#x4f4e;" 
d="M362 705l-99 -231h44v-624h-154v444l-113 48l178 418zM950 274h-109l35 -287h74v-120h-210l-46 407h-173v-258l60 27l-11 91l97 12l37 -288l-100 -8l-8 67l-145 -73l-82 101v750l561 59l13 -132l-143 -16l24 -200h126v-132zM679 406l-21 185l-137 -15v-170h158z" />
    <glyph glyph-name="uni4F4F" unicode="&#x4f4f;" 
d="M259 471h44v-621h-156v462l-114 55l195 390l139 -70zM948 11v-134l-604 -2v134l219 1v188l-184 -1v130l184 1v176l-200 -1v134l194 1l-15 86l154 27l19 -113l217 1v-134l-209 -1v-176l195 1v-130l-195 -1v-188z" />
    <glyph glyph-name="uni4F50" unicode="&#x4f50;" 
d="M621 495l-57 -121h324v-135h-155v-231h185v-135h-553v135h208v231h-72l-89 -190l-98 50v-249h-156v485l-112 54l192 368l139 -70l-113 -216h50v-259l130 283h-92v141h192l34 114l157 -39l-22 -75h235v-141h-327z" />
    <glyph glyph-name="uni4F51" unicode="&#x4f51;" 
d="M613 490l-73 -143h379v-472h-484v270l-39 -76l-82 41v-260h-156v485l-112 54l192 368l139 -70l-113 -216h50v-226l127 245h-91v135h160l70 135l144 -56l-41 -79h266v-135h-336zM589 5h176v212h-176v-212z" />
    <glyph glyph-name="uni4F53" unicode="&#x4f53;" 
d="M713 460v-317h59v-128h-59v-164h-154v164h-62v128h62v299l-114 -535l-145 32v-89h-152v490l-102 49l192 368l139 -70l-113 -216h36v-524l124 513h-77v138h210v153h158v-153h222v-138h-80l112 -521l-145 -32l-105 553h-6z" />
    <glyph glyph-name="uni4F55" unicode="&#x4f55;" 
d="M347 687l-113 -216h54v-621h-158v484l-114 55l192 368zM945 581h-48v-720h-335v126h177v594h-381v134h587v-134zM695 81h-338v399h338v-399zM571 358h-90v-155h90v155z" />
    <glyph glyph-name="uni4F57" unicode="&#x4f57;" 
d="M256 434h65v-584h-153v439l-128 71l219 399l132 -82zM938 375h-57l42 -121l-340 -117v-140h197v130h141v-258h-490v506h-44v281h198l-10 82l149 18l12 -100h202v-281zM855 375h-63v151h-259v-105h50v-140z" />
    <glyph glyph-name="uni4F58" unicode="&#x4f58;" 
d="M106 330l-86 118l503 323l146 -82l-48 -31l375 -216l-93 -125l-176 109v-77h-486v67zM488 574l-161 -103h328zM583 159v-299h-278v119h120v180h-345v133h830v-133h-327zM359 58l-212 -208l-100 101l211 204zM739 153l206 -201l-99 -100l-209 204z" />
    <glyph glyph-name="uni4F59" unicode="&#x4f59;" 
d="M749 148l196 -196l-99 -100l-201 201l100 95h-162v-288h-278v119h120v169h-175l98 -94l-201 -205l-100 101l197 198h-164v133h345v68h-184v67l-135 -86l-86 118l503 323l146 -82l-48 -31l375 -216l-93 -125l-176 109v-77h-144v-68h327v-133h-161zM327 471h328l-167 103z
" />
    <glyph glyph-name="uni4F5A" unicode="&#x4f5a;" 
d="M264 471h50v-621h-156v485l-112 54l192 368l139 -70zM684 187l-155 -347l-147 66l127 281h-157v135h230l11 133h-87l-17 -96l-143 35l55 307l144 -31l-14 -80h74l14 164l159 -17l-12 -147h154v-135h-166l-11 -133h207l-1 -135h-265zM965 -76l-142 -74l-144 235l143 74z
" />
    <glyph glyph-name="uni4F5B" unicode="&#x4f5b;" 
d="M940 269v-322h-171v110h27v78h-41v-284h-147v284h-43l-89 -287l-146 37l79 250h-105v325h163v59h-157v107l-58 -151h23v-625h-152v460l-84 32l160 425l146 -49l-25 -65h120v99h150v-99h57v98h150v-98h135v-327h-154v-57h162zM590 460h57v59h-57v-59zM804 519h-39v-59h39
v59zM436 269h44v57h-44v-57zM647 326h-48v-57h48v57z" />
    <glyph glyph-name="uni4F5C" unicode="&#x4f5c;" 
d="M242 471h56v-621h-158v479l-104 50l162 388l139 -70zM664 523v-118h261v-128h-261v-109h266v-128h-266v-188l-158 -2v651l-52 -177l-130 41l130 400l171 -44l-23 -66h348v-132h-286z" />
    <glyph glyph-name="uni4F5D" unicode="&#x4f5d;" 
d="M252 471h60v-620h-152v505l-114 55l192 368l139 -70zM937 653v-793h-345v136h200v522h-269l-24 -59l240 1v-422l-320 -1v343l-95 39l143 348l143 -40l-31 -74h358zM545 149l68 1v198l-68 -2v-197z" />
    <glyph glyph-name="uni4F5E" unicode="&#x4f5e;" 
d="M244 471h54v-621h-158v484l-114 55l192 368l139 -70zM883 590h-480v120h480v-120zM943 421h-358l80 -43l-18 -28h284v-121h-95l51 -38l-117 -122l158 -93l-71 -121l-214 123l-206 -130l-74 119l136 84l-127 83l58 95h-69v121h143l44 71h-205v120h600v-120zM571 229
l-41 -64l112 -57l121 121h-192z" />
    <glyph glyph-name="uni4F5F" unicode="&#x4f5f;" 
d="M498 385l-66 63l-14 -27l-111 63l138 292l149 -47l-15 -33h321v-147l-149 -164l198 -136l-91 -114l-21 17l-18 -112l-367 48l15 97l-75 -60l-93 107zM246 481h48v-631h-151v464l-18 -29l-117 99l237 380l128 -78zM435 455l87 82l114 -87l102 99h-256zM795 188l-159 132
l-116 -93zM410 53l462 -65l-24 -142l-461 61z" />
    <glyph glyph-name="uni4F60" unicode="&#x4f60;" 
d="M265 471h45v-621h-154v480l-110 53l192 380l139 -70zM339 410l133 353l141 -44l-25 -66h341v-258h-146v122h-247l-57 -151zM563 445h154v-587h-230v120h76v467zM552 322l-91 -353l-137 34l91 354zM944 0l-138 -31l-80 357l137 30z" />
    <glyph glyph-name="uni4F63" unicode="&#x4f63;" 
d="M234 471h54v-621h-158v484l-114 55l192 368l139 -70zM944 709v-851h-199v113h45v107h-79v-217h-143v217h-84l-8 -229h-154l31 860h591zM568 582h-65l-5 -136h70v136zM790 582h-79v-136h79v136zM568 330h-74l-5 -136h79v136zM790 330h-79v-136h79v136z" />
    <glyph glyph-name="uni4F64" unicode="&#x4f64;" 
d="M352 713l-89 -239h44v-624h-154v446l-105 40l158 425zM939 124v-258h-246v479h-149l-28 -344l129 36l32 -115l-238 -74l-75 114l49 614h-54v132h576v-132h-372l-9 -105h287v-487h29v140h69zM551 284l81 19l41 -185l-82 -18z" />
    <glyph glyph-name="uni4F65" unicode="&#x4f65;" 
d="M108 323l-88 124l502 323l146 -81l-40 -26l364 -220l-88 -124l-121 76v-97h-575v90zM496 577l-227 -149h462zM383 244l145 37l55 -216l-144 -37zM782 6h151v-134h-866v135h118l-56 184l144 45l68 -229l269 -1l135 263l136 -71z" />
    <glyph glyph-name="uni4F67" unicode="&#x4f67;" 
d="M264 471h50v-621h-156v485l-112 54l192 368l139 -70zM855 -65l-174 216v-301h-158v437h-163v138h158v325h158v-105h234v-134h-234v-86h274v-138h-269v-113l104 86l180 -225z" />
    <glyph glyph-name="uni4F69" unicode="&#x4f69;" 
d="M218 438h37v-587h-148v473l-77 27l145 410l141 -45zM952 -33v-113h-173v733h-321l-37 -738l-141 6l48 861l589 -1v-748h35zM461 542h302v-100h-92v-68h87v-378h-83v92h14v188h-31v-342h-100l2 342h-31v-265h-67v363h86v68h-87v100z" />
    <glyph glyph-name="uni4F6C" unicode="&#x4f6c;" 
d="M886 444h64v-131h-379l-46 -53h63v-75l273 98l40 -116l-313 -110v-77h185v94h132v-214h-453v318l-57 -65l-77 64v-327h-158v494l-114 55l192 368l139 -70l-118 -226h59v-264l91 106h-64v131h200v87h-145v131h145v91h149v-91h143v-87l41 47l95 -78zM694 444h29l76 87h-105
v-87z" />
    <glyph glyph-name="uni4F6F" unicode="&#x4f6f;" 
d="M264 471h52v-621h-158v485l-112 54l192 368l139 -70zM929 189v-130h-222v-209h-158v209h-216v130h216v60h-172v128h172v59h-197v130h110l-50 129l131 50l56 -146l-88 -33h146l82 180l131 -48l-59 -132h98v-130h-202v-59h178v-128h-178v-60h222z" />
    <glyph glyph-name="uni4F70" unicode="&#x4f70;" 
d="M723 594l-18 -91h212v-642h-575v642h181l20 91h-224v59l-85 -162h36v-641h-152v510l-102 49l192 368l111 -56v9h621v-136h-217zM758 373h-257v-124h257v124zM758 122h-257v-124h257v124z" />
    <glyph glyph-name="uni4F73" unicode="&#x4f73;" 
d="M265 479h49v-629h-156v491l-112 54l192 368l139 -70zM376 648h194v103h160v-103h189v-124h-189v-91h214v-124h-593v124h219v91h-194v124zM949 -11v-125h-602v125h223v106h-191v124h191v74h160v-74h182v-124h-182v-106h219z" />
    <glyph glyph-name="uni4F74" unicode="&#x4f74;" 
d="M877 2v-151h-152v142l-384 -21l-9 138l62 4v482h-50v82l-99 -207h48v-621h-156v462l-114 55l185 387l136 -68v48h602v-138h-69v-455l68 4l8 -139zM547 529h177v67h-177v-67zM547 341h177v68h-177v-68zM724 132v87h-177v-97z" />
    <glyph glyph-name="uni4F76" unicode="&#x4f76;" 
d="M264 471h54v-621h-158v484l-114 55l192 368l139 -70zM726 521v-97h201v-124h-550v124h191v97h-212v124h212v102h158v-102h220v-124h-220zM389 238h526v-381h-526v381zM545 -17h212v130h-212v-130z" />
    <glyph glyph-name="uni4F7B" unicode="&#x4f7b;" 
d="M243 484h51v-634h-150v471l-119 69l194 375l134 -70l-10 -19l89 6l19 -261l-97 -6l-17 249zM455 750h148v-465l-94 -435l-152 20l98 438v442zM950 91v-231h-307v890h148v-770h82v111h77zM894 414l-99 4l14 274l101 -4zM391 94l-95 19l54 268l95 -8zM899 376l29 -251
l-101 -6l-29 250z" />
    <glyph glyph-name="uni4F7C" unicode="&#x4f7c;" 
d="M251 434h69v-584h-156v441l-129 69l198 395l145 -70zM398 355l-68 113l160 90h-107v122h197l-5 59l157 12l6 -71h209v-122h-128l161 -91l-68 -113l-216 129l48 75h-180l46 -77zM776 162l180 -219l-122 -99l-168 221l-170 -223l-122 92l181 231l-132 170l122 83l121 -163
l103 161l124 -81z" />
    <glyph glyph-name="uni4F7E" unicode="&#x4f7e;" 
d="M257 434h46v-584h-152v448l-116 62l220 405l145 -70zM895 398v-539h-265v108h113v89h-218v-206h-152v549l-78 51l192 300l130 -70l-119 -195h272l-123 195l130 70l198 -300zM525 360v-54h218v54h-218zM743 154v54h-218v-54h218z" />
    <glyph glyph-name="uni4F7F" unicode="&#x4f7f;" 
d="M909 -151l-348 96l-66 -117l-139 71l51 88l-90 25l38 130l124 -32l21 36h-135v383h209l1 39h-226v115l-106 -212h47v-621h-150v486l-111 53l190 383l142 -65l-7 -15h224l1 57l155 -1l-1 -56h210v-124h-214l-1 -39h198v-383h-251l-43 -76l322 -83zM509 271h58l3 134h-61
v-134zM725 405l-3 -134h60v134h-57z" />
    <glyph glyph-name="uni4F83" unicode="&#x4f83;" 
d="M246 481h48v-631h-151v464l-18 -29l-117 99l237 380l128 -78zM895 303h-521v408h521v-408zM747 587h-225v-160h225v160zM383 282l143 -20l-59 -410l-144 20zM943 95v-235h-221v405h144v-278h28v108h49zM553 258h128v-408h-127z" />
    <glyph glyph-name="uni4F84" unicode="&#x4f84;" 
d="M264 474h38v-624h-156v447l-105 45l178 418l144 -55zM453 582h-84v133h573v-134l-316 1l-92 -150l222 14l-19 53l133 46l82 -234l-133 -46l-20 57l-385 -23l-62 113zM731 2h218v-134l-609 1v133h233v81h-203l1 132h202v82h158v-82h198v-132h-198v-81z" />
    <glyph glyph-name="uni4F88" unicode="&#x4f88;" 
d="M303 353l196 74l-36 56l113 47l25 -38l61 62h-149l-133 -100l-82 83l298 235l100 -80l-31 -23h223v-124l-240 -196l-272 -118zM243 430h44v-581h-154v444l-102 44l186 420l145 -63zM952 269v-123l-252 -231l-324 -87l-53 126l241 68l-38 52l103 51l33 -45l80 76h-161
l-190 -104l-66 105l509 278l75 -100l-121 -66h164z" />
    <glyph glyph-name="uni4F89" unicode="&#x4f89;" 
d="M448 330l-127 77l128 175h-55v122h162l26 56l157 -33l-10 -23h202v-122h-98l121 -149l-110 -98l-65 85v-50h-268v48zM264 471h50v-621h-156v486l-112 54l192 368l139 -71zM628 582l-69 -97h170l-30 39l73 58h-144zM327 328h601v-126h-352l-8 -59h324v-285h-485v106h333
v69h-346l22 169h-89v126z" />
    <glyph glyph-name="uni4F8B" unicode="&#x4f8b;" 
d="M307 706h332v-128h-149l-34 -123h181v-129l-170 -475l-143 51l76 197l-101 36l26 71l-73 19v-374h-145v470l-77 30l145 410l137 -40zM925 739v-884h-258v126h115v758h143zM298 578l6 118l-88 -258h36v-206l97 346h-51zM755 61h-98v567h98v-567zM420 327l-29 -102l51 -16
l46 118h-68z" />
    <glyph glyph-name="uni4F8D" unicode="&#x4f8d;" 
d="M259 471h59v-621h-158v494l-114 55l192 368l139 -70zM950 488v-128h-587v128h217v62h-180v126h180v74h154v-74h193v-126h-193v-62h216zM830 279h112v-128h-112v-303h-316v123h160v180h-140l63 -123l-108 -52l-67 128l99 47h-144v128h297v54h156v-54z" />
    <glyph glyph-name="uni4F8F" unicode="&#x4f8f;" 
d="M235 471h23v-621h-158v496l-67 21l139 391l148 -51zM726 213h-18l-1 -363h-160l1 363h-14l-98 -365l-148 40l88 325h-81v136h254v147h-95l-41 -121l-150 45l115 334l151 -40l-29 -84h50v120h160v-120h210v-134h-211v-147h240v-136h-64l87 -321l-148 -40z" />
    <glyph glyph-name="uni4F91" unicode="&#x4f91;" 
d="M593 525l-41 -63h365v-604h-251v107h102v47h-214l5 -154h-154v378l-28 -43l-103 61v-404h-156v455l-112 54l192 398l139 -70l-15 -30h170l48 93l166 -21l-35 -72h276v-132h-354zM428 525h-112v119l-83 -173h41v-174zM554 295h214v50h-214v-50zM554 129h214v50h-214v-50z
" />
    <glyph glyph-name="uni4F94" unicode="&#x4f94;" 
d="M357 549l170 208l120 -81l-100 -116l205 10l-53 81l108 73l169 -253l-107 -77l-36 54l-439 -19zM258 484h52v-634h-156v472l-123 81l208 351l134 -79zM750 134h198v-128h-198v-157h-160v157h-253v128h253v83h-103l-20 -70l-131 31l66 242l133 -29l-13 -46h68v79h160v-79
h177v-128h-177v-83z" />
    <glyph glyph-name="uni4F97" unicode="&#x4f97;" 
d="M340 685l-108 -231h53v-604h-156v461l-104 49l177 384zM929 720v-863h-241v112h95v619h-291v-738h-146v870h583zM766 427h-257v108h257v-108zM763 36l-251 -1v338l251 1v-338zM661 276h-47v-142h47v142z" />
    <glyph glyph-name="uni4F9B" unicode="&#x4f9b;" 
d="M234 471h51v-621h-155v484l-114 55l192 368l139 -70zM949 -90l-140 -65l-116 233l136 68h-518v140h112v174h-92v140h92v150h158v-150h95v150h158v-150h92v-140h-92v-174h112v-140h-115zM581 286h95v174h-95v-174zM430 145l139 -65l-121 -237l-138 65z" />
    <glyph glyph-name="uni4F9D" unicode="&#x4f9d;" 
d="M819 209l126 -270l-132 -61l-235 500l-51 -86h51v-293l105 42l47 -110l-218 -86l-82 101v184l-54 -90l-76 49v-239h-152v484l-105 45l177 375l138 -63l-26 -55h223l-14 99l152 20l16 -119h228v-134h-284l-56 -94l106 50l57 -122l121 94l81 -109zM482 502h-156v121
l-72 -152h46v-273z" />
    <glyph glyph-name="uni4FA0" unicode="&#x4fa0;" 
d="M269 471h47v-621h-158v486l-112 53l192 368l144 -71zM671 183l-149 -338l-145 63l122 275h-146v127h89l-78 134l119 68l80 -135l-114 -67h121l8 217h-207v117h212l4 106l158 -9l-4 -97h183v-117h-187l-9 -217h208v-127h-265zM822 511l119 -70l-82 -130l-119 71zM954 -61
l-131 -88l-171 240l132 88z" />
    <glyph glyph-name="uni4FA3" unicode="&#x4fa3;" 
d="M254 471h54v-621h-158v484l-114 55l192 368l139 -70zM916 350h-538v367h538v-367zM772 591h-250v-122h250v122zM937 300v-435h-588v435h588zM784 173h-282v-179h282v179z" />
    <glyph glyph-name="uni4FA5" unicode="&#x4fa5;" 
d="M247 481h47v-631h-151v442l-5 -9l-122 93l218 391l131 -72l-21 -39l122 20l-14 42l143 47l21 -66l250 39l26 -143l-231 -36l10 -32l191 42l40 -134l-188 -43l3 -10h152v-116h-265l-26 76l-226 -61l-37 140l218 57l-20 58l-178 -27l-18 99zM765 109v-109h57v74h87v-206
h-291v241h-36l-113 -269l-152 55l97 214h-103v135h610v-135h-156z" />
    <glyph glyph-name="uni4FA6" unicode="&#x4fa6;" 
d="M252 471h79v-621h-158v485l-22 -38l-119 86l206 374l139 -70zM821 -166l-182 270l-130 -265l-140 60l77 156h-88v466h190v227h155v-61h187v-115h-187v-51h231v-466h-85l98 -144zM609 385h-106v-214zM743 211l46 -68v242h-156l119 -53l-86 -174z" />
    <glyph glyph-name="uni4FA7" unicode="&#x4fa7;" 
d="M166 471h60v-621h-138v490l-85 25l119 409l120 -40zM943 -139h-256l2 128h115v749h138zM601 124l85 -219l-135 -54l-82 213l-91 -213l-139 45l108 247h-91v594h398l1 -589h-124v456h-151v-434l16 8l10 391l107 -3l-13 -431l-27 -63zM780 34h-101v671h101v-671z" />
    <glyph glyph-name="uni4FA8" unicode="&#x4fa8;" 
d="M892 141l-33 36v-327h-146v393h86l-138 150h-26l-122 -137l104 -19l-68 -387l-144 26l57 323l-57 -64l-105 105l156 153h-96v138h202l21 56l-213 -17l-14 122l-100 -191h36v-651h-144v517l-102 52l192 368l131 -70l-9 -17l570 45l15 -130l-206 -16l-23 -68h234v-138h-109
l142 -144z" />
    <glyph glyph-name="uni4FA9" unicode="&#x4fa9;" 
d="M373 361l-85 98l362 322l94 -99l-17 -15l258 -218l-82 -99l-85 69v-108h-379v107zM241 471h37v-621h-148v488l-113 63l215 355l134 -79zM624 578l-170 -147h350zM800 115l150 -197l-106 -74l-29 39l-425 -29l-50 116l112 167h-117v120h591v-120h-312l-105 -160l224 18
l-42 57z" />
    <glyph glyph-name="uni4FAA" unicode="&#x4faa;" 
d="M910 155l-45 22v-327h-152v360h85l-158 78l-134 -69l94 -9l-75 -360l-152 20l67 315l-60 -30l-60 125l192 94l-118 168h-39v112l-107 -220h72v-584h-156v441l-129 69l200 405l145 -60l-16 -33h210l-9 63l145 15l10 -78h220v-130h-54l-117 -166l206 -96zM557 542l83 -124
l83 124h-166z" />
    <glyph glyph-name="uni4FAC" unicode="&#x4fac;" 
d="M600 361l-77 -114l94 -1v-264l91 34l35 -110l-187 -68l-91 85v240l-80 -118l-89 63v-258h-155v466l-108 46l184 395l143 -62l-124 -261h60v-270l187 274h-125v229h212l2 67h166l-2 -67h200v-229h-144v111h-64l-128 -188l128 69l69 -122l83 62l67 -93l-93 -70l123 -218
l-128 -76zM502 466l56 83h-56v-83z" />
    <glyph glyph-name="uni4FAE" unicode="&#x4fae;" 
d="M898 212v-97h37v-108h-37v-149h-288v114h138v35h-382v205h-61v128h61v106l-67 26l126 299l130 -48l-9 -21h402v-124h-453l-17 -42h420v-196h52v-128h-52zM252 475h23v-625h-152v460l-84 32l160 425l146 -49zM516 428v-95h65l-9 54l97 17l12 -71h67v95h-232zM748 115v102
h-232v-102h78l-12 76l97 17l15 -93h54z" />
    <glyph glyph-name="uni4FAF" unicode="&#x4faf;" 
d="M254 471h46v-621h-152v484l-105 45l177 375l138 -63zM948 -46l-96 -104l-195 163l59 63h-74l-180 -231l-119 82l121 149h-142v124h237l11 56h-99l-14 -50l-126 31l53 189h-46v124h380v54h-333v114h483v-168h76v-124h-440l13 -3l-13 -47h396v-120h-180l-11 -56h235v-124
h-151z" />
    <glyph glyph-name="uni4FB5" unicode="&#x4fb5;" 
d="M242 471h38v-621h-150v487l-98 42l175 375l138 -63zM887 397h-525v95h375v27h-327v81h327v27h-365v95h515v-325zM865 -155l-238 99l-234 -105l-76 121l143 60l-75 49l48 54h-63v77h-54v169h624v-169h-32v-70l-123 -101l162 -59zM463 258v-29h329v29h-329zM531 123l94 -58
l82 58h-176z" />
    <glyph glyph-name="uni4FBF" unicode="&#x4fbf;" 
d="M916 -151l-342 94l-83 -110l-134 69l62 84l-114 31l35 108l153 -39l38 51h-193v430h209v45h-202v80l-87 -183v-659h-158v504l-76 28l187 391l134 -54v11h594v-118h-217v-45h213v-430h-216l-68 -91l301 -77zM504 399h62v53h-62v-53zM770 452h-64v-53h64v53zM504 252h62v58
h-62v-58zM770 310h-64v-58h64v58z" />
    <glyph glyph-name="uni4FC3" unicode="&#x4fc3;" 
d="M264 471h36v-621h-152v490l-102 49l192 368l139 -70zM934 -153l-421 66l-8 -60l-131 15l58 456l132 -17l-36 -274l79 -12v328h-184v390h494v-390h-160v-97h172v-111h-172v-143l197 -30zM573 469h194v150h-194v-150z" />
    <glyph glyph-name="uni4FC4" unicode="&#x4fc4;" 
d="M843 -24h97v-117h-239l-8 97l-68 -63l-89 103l-1 -137h-233v114h84v139l-98 -22l-29 138l127 28v104h-98v134h98v95l-70 -9l-7 38l-51 -107v-661h-158v504l-76 28l195 411l145 -58l-10 -21l237 29l18 -127l-67 -8l-1 -114h107l-20 243l150 7l21 -250h148v-134h-136l7 -87
l71 66l90 -118l-145 -135zM841 531l-20 183l99 7l21 -183zM677 142l-18 218h-120v-70l81 18l33 -136l-115 -26l-2 -135z" />
    <glyph glyph-name="uni4FC5" unicode="&#x4fc5;" 
d="M257 434h64v-584h-157v441l-129 69l214 395l145 -70zM823 222l137 -166l-112 -99l-132 169v-274h-264v136h107v97l-151 -101l-81 120l232 157v214h-203v136h203v139h157v-139h56l-8 118l117 8l10 -126h53v-136h-228v-123l15 -18l138 115l93 -109zM550 299l-102 -76
l-117 144l107 75z" />
    <glyph glyph-name="uni4FCA" unicode="&#x4fca;" 
d="M775 54l178 -78l-71 -130l-241 120l-251 -122l-72 128l191 85l-33 32l96 92l75 -67l69 80h-193l-66 -114l-119 68l93 157l-54 -34l-74 108l189 114l-97 -6l-45 111l146 176l129 -66l-89 -95l193 10l-37 55l112 73l140 -207l-111 -74l-28 41l-41 -2l207 -117l-62 -105
l-10 5v-92zM254 434h42v-584h-154v450l-99 42l194 421l140 -67zM866 310l-190 102l60 95l-189 -11l57 -83l-59 -37l65 -30l-21 -36h277z" />
    <glyph glyph-name="uni4FCE" unicode="&#x4fce;" 
d="M950 3v-133h-538v61l-73 -45l-88 136l-68 -172l-142 53l165 406l137 -56l-30 -76l119 -174h22v368l-107 -66l-95 155l-69 -168l-140 53l167 404l137 -56l-32 -79l139 -211v324h451v-724h45zM753 597h-148v-118h148v118zM753 358h-148v-118h148v118zM753 129h-148v-127
h148v127z" />
    <glyph glyph-name="uni4FCF" unicode="&#x4fcf;" 
d="M264 471h39v-621h-158v492l-99 47l192 368l139 -70zM922 527v-667h-255v120h100v69h-243v-199h-152v677h196v224h155v-224h131l-108 45l63 148l111 -46l-64 -147h66zM375 678l111 46l58 -150l-110 -46zM767 401h-243v-56h243v56zM767 225h-243v-56h243v56z" />
    <glyph glyph-name="uni4FD0" unicode="&#x4fd0;" 
d="M645 41v101l-73 -18l-30 142v-416h-144v443l-25 -237l-97 11l46 328h-16v120h86v90l-66 -4l-4 50l-90 -172h44v-629h-147v490l-106 55l192 368l103 -56l-1 14l293 19l9 -123l-71 -4v-98h77v-120h-83v-45l59 15l44 -195v465h115v-594h-115zM925 748v-891h-270v114h125v777
h145z" />
    <glyph glyph-name="uni4FD1" unicode="&#x4fd1;" 
d="M252 434h44v-584h-152v449l-101 43l184 415l143 -62zM929 494v-639h-193v99h44v89h-70v-173h-165v173h-68v-193h-149v644h184l-69 41l40 65h-105l1 124h530v-129l-86 -101h106zM517 600l142 -84l75 84h-217zM477 308h68v66h-68v-66zM780 374h-70v-66h70v66zM545 143v65
h-68v-65h68zM780 208h-70v-65h70v65z" />
    <glyph glyph-name="uni4FD7" unicode="&#x4fd7;" 
d="M318 578l188 182l96 -93l-188 -183zM842 481l-200 186l96 93l200 -185zM886 187l-23 22v-343l-473 1v342l-19 -19l-83 91v-431h-152v481l-93 35l158 384l130 -57l-86 -222h43v-163l339 330l99 -92l-14 -14l269 -245zM802 267l-181 174l-172 -173zM719 137l-185 1v-139
l185 -1v139z" />
    <glyph glyph-name="uni4FD8" unicode="&#x4fd8;" 
d="M259 471h59v-621h-158v494l-114 55l191 368l137 -68l-1 11l543 36l7 -121l-543 -36l-6 102zM750 439l34 165l128 -29l-35 -165zM563 569l128 29l32 -150l-127 -25zM386 545l131 29l31 -143l-130 -25zM946 75h-199l-1 -218h-264v126h128v92h-263v130h281l81 74h-333v119
h519l-1 -125l-79 -68h131v-130z" />
    <glyph glyph-name="uni4FDA" unicode="&#x4fda;" 
d="M258 591v-741h-158v491l-87 22l144 409l150 -41zM949 -10v-128h-644v128h244v75h-212v125h212v56h-227v489h613v-489h-228v-56h215v-125h-215v-75h242zM560 617h-81v-66h81v66zM697 551h81v66h-81v-66zM560 433h-81v-69h81v69zM697 364h81v69h-81v-69z" />
    <glyph glyph-name="uni4FDC" unicode="&#x4fdc;" 
d="M248 434h57v-584h-152v447l-118 63l200 405l145 -60l-7 -15h190v60h156v-60h207v-367h-570v333zM496 547h80v42h-80v-42zM786 589h-80v-42h80v42zM496 424h80v44h-80v-44zM786 468h-80v-44h80v44zM561 171l-21 -40h375v-271h-386v95h228v70h-352l-35 86l28 60h-68v118
h620v-118h-389z" />
    <glyph glyph-name="uni4FDD" unicode="&#x4fdd;" 
d="M251 471h48v-621h-154v480l-106 46l174 388l142 -63zM810 -140l-80 316h-13v-325h-160v325h-11l-92 -316l-131 32l86 284h-77v132h225v55h-187v358h530v-358h-183v-55h219v-132h-71l76 -284zM516 493h238v98h-238v-98z" />
    <glyph glyph-name="uni4FDE" unicode="&#x4fde;" 
d="M912 355l-33 21v-509l-243 1v82h98v428h142l-154 99v-62h-428v70l-155 -103h405v-515l-222 1v89h77v57h-135v-149h-145v504l-25 -17l-68 110l475 319l128 -72l-18 -12l364 -222zM652 522l-154 99l-149 -99h303zM701 3h-115v352h115v-352zM264 232h135v52h-135v-52z
M264 97h135v52h-135v-52z" />
    <glyph glyph-name="uni4FDF" unicode="&#x4fdf;" 
d="M821 79l130 -131l-104 -107l-160 175l66 63h-68l-208 -239l-107 94l125 145h-143v126h209l17 78h-94l-20 -55l-140 52l65 178l-41 92l182 215l121 -78l-106 -115l204 11l-36 68l118 61l128 -234l-122 -59l-25 47l-333 -18l58 -22l-12 -33h391v-110h-177l-17 -78h216v-126
h-117zM265 479h49v-629h-156v491l-112 54l192 368l139 -70z" />
    <glyph glyph-name="uni4FE1" unicode="&#x4fe1;" 
d="M308 733l-82 -262h52v-621h-158v495l-88 23l126 408zM946 700v-125h-632v124h235l-5 45l155 10l5 -54h242zM334 525h592v-116h-592v116zM334 359h592v-116h-592v116zM329 193h597v-333h-597v333zM489 -15h277v84h-277v-84z" />
    <glyph glyph-name="uni4FE3" unicode="&#x4fe3;" 
d="M244 434h54v-584h-154v452l-109 58l180 395l145 -70zM360 407v313h550v-313h-550zM510 522h250v83h-250v-83zM955 -60l-120 -95l-170 185l67 43h-103l-189 -223l-125 90l119 133h-109v124h216l12 52h-208v122h580v-122h-205l-12 -52h237v-124h-119z" />
    <glyph glyph-name="uni4FE6" unicode="&#x4fe6;" 
d="M252 444h54v-594h-158v456l-119 66l233 401l136 -82zM613 248h123v45h146v-45h68v-120h-68v-268h-254v100h108v168h-152l-67 -278l-145 34l103 431h-110v108h136l7 30h-118v108h144l7 30h-131v108h156l15 61l150 -25l-9 -36h220v-108h-246l-7 -30h240v-108h-266l-7 -30
h294v-108h-321zM645 -21l-59 98l76 46l59 -99z" />
    <glyph glyph-name="uni4FE8" unicode="&#x4fe8;" 
d="M250 471h47v-621h-154v481l-104 45l174 388l142 -63zM941 401v-128h-433l-34 -424l-154 10l46 542h117v182h-101v126h553v-126h-112v-182h118zM627 401h52v182h-52v-182zM841 434l23 137l68 -12l-23 -137zM462 430l-68 -12l-23 137l68 12z" />
    <glyph glyph-name="uni4FE9" unicode="&#x4fe9;" 
d="M825 583v-91h106v-634h-270v110h122v78l-34 -6l-23 142l-21 -196l-93 6l9 95l-14 -2l-14 132l-28 -221l-87 9v-155h-147v642h115v91h-121v94l-80 -206h43v-621h-150v480l-95 36l158 384l124 -54v21h619v-134h-119zM676 583h-81v-91h81v91zM478 29l41 331h-41v-331z
M633 209l15 151h-38l-11 -90l27 3zM783 125v235h-38l-12 -109l28 5z" />
    <glyph glyph-name="uni4FEA" unicode="&#x4fea;" 
d="M307 594v78l-78 -201h39v-621h-146v480l-95 36l158 384l122 -53v21h631v-124h-631zM312 534h299l-7 -673h-146v113h35l1 131l-25 -6l-27 139v-387h-130v683zM940 534v-673h-158v113h29v145l-35 -9l-23 116v-375h-122l6 683h303zM442 422v-119l39 11l13 -67l1 175h-53z
M811 196v226h-58v-106l33 9z" />
    <glyph glyph-name="uni4FED" unicode="&#x4fed;" 
d="M445 319l-105 100l311 355l124 -94l-15 -17l227 -219l-100 -120l-41 42v-57h-364v50zM265 434h55v-584h-152v439l-133 71l240 395l135 -80zM662 556l-110 -120h226zM591 260l119 15l25 -210l-114 -15zM867 4h78v-134h-585v134h381l54 261l123 -25zM423 230l118 25
l40 -210l-118 -15z" />
    <glyph glyph-name="uni4FEE" unicode="&#x4fee;" 
d="M430 393v-474h-141v765h141v-130l151 235l125 -65l-9 -14h235v-128l-96 -107l150 -57l-53 -118l-36 14l16 -85l-442 -61l-12 118l374 54l-127 50l-237 -89zM225 471h33v-621h-158v493l-68 17l113 400l150 -40zM612 582l-3 -5l92 -65l56 70h-145zM430 509v-94l124 49
l-42 31l-21 -27zM910 192l20 -118l-463 -64l-12 118zM935 44l19 -122l-490 -71l-15 120z" />
    <glyph glyph-name="uni4FEF" unicode="&#x4fef;" 
d="M234 438h29v-587h-146v469l-75 35l155 406l138 -50zM605 328h22v-477h-138v302l-39 13l-19 -318l-149 11l54 805h239l-8 73l149 17l10 -90h219v-128h-472l-13 -218l71 212l127 -44zM950 406v-124h-48v-420h-247v112h107v308h-117v124h117v105h140v-105h48zM686 61
l-41 173l63 15l41 -173z" />
    <glyph glyph-name="uni4FF1" unicode="&#x4ff1;" 
d="M252 471h31v-621h-156v433l-106 52l187 419l140 -65zM950 -61l-89 -99l-182 158l58 63h-209l62 -67l-182 -158l-89 99l146 126h-156v122h71v553h492v-553h74v-122h-138zM732 624h-212v-33h212v33zM732 488h-212v-33h212v33zM732 352h-212v-33h212v33zM732 216h-212v-33
h212v33z" />
    <glyph glyph-name="uni4FF3" unicode="&#x4ff3;" 
d="M434 749h158v-896h-158v173h-126v133h126v106h-98v133h98v124h-111v84l-82 -135h37v-621h-148v488l-113 63l215 355l134 -79l-13 -22h81v94zM934 159v-133h-137v-172h-158v896h158v-95h120v-133h-120v-118h113v-133h-113v-112h137z" />
    <glyph glyph-name="uni4FF8" unicode="&#x4ff8;" 
d="M293 471v-621h-154v482l-100 44l174 388l142 -63l-105 -230h43zM721 84h213v-115h-213v-119h-158v119h-230v115h230v39h-103v61l-43 -80l-124 69l92 138h-47v113h201l5 38h-153v98h166l5 36h-194v114h209l6 43l151 -16l-4 -27h193v-114h-207l-5 -36h191v-98h-204l-5 -38
h252v-113h-43l77 -148l-114 -59l-42 80v-61h-102v-39zM563 235v58h158v-58h75l-40 76h-228l-41 -76h76z" />
    <glyph glyph-name="uni4FFA" unicode="&#x4ffa;" 
d="M803 13h136v-150h-404v170h-207v358l-62 60l102 108h-42v93l-68 -143v-659h-158v504l-76 28l187 391l145 -58l-12 -25h183l24 83l151 -24l-16 -59h240v-131h-55l99 -108l-76 -69v-349h-213v-51h122v31zM557 559l-98 -110h76v77h146v-77h92l-94 110h-122zM748 335h-67v-50
h67v50zM473 285h62v49h-62v-49zM535 147v50h-61v-50h61zM748 197h-67v-50h67v50z" />
    <glyph glyph-name="uni4FFE" unicode="&#x4ffe;" 
d="M951 117v-132h-164v-135h-160v135l-293 -1v132h84l-59 54l79 85h-67v452h132l10 64l156 -18l-7 -45h272v-452l-308 -1l-130 -138h130v118h160v-118h165zM251 471h53v-621h-158v478l-107 48l170 381l143 -56zM784 594h-59v-60h59v60zM521 533h60v60h-60v-60zM784 432h-59
v-60h59v60zM521 371h60v60h-60v-60z" />
    <glyph glyph-name="uni500C" unicode="&#x500c;" 
d="M519 156h404v-296h-562v605h-34v146l-73 -140h64v-621h-158v442l-2 -4l-140 67l223 427l139 -70l-12 -22h179l-7 52l159 16l9 -68h237l1 -225h-40v-258h-387v-51zM471 560v-56h331v56h-331zM748 389h-229v-67h229v67zM519 41v-64h246v64h-246z" />
    <glyph glyph-name="uni500D" unicode="&#x500d;" 
d="M929 566h-563v126h185l-10 41l155 34l18 -75h215v-126zM264 474h38v-624h-156v447l-105 45l178 418l144 -55zM947 426v-128h-611v128h96l-23 91l143 34l31 -125h106l31 128l143 -34l-22 -94h106zM366 249h537v-387h-537v387zM522 -12h225v137h-225v-137z" />
    <glyph glyph-name="uni500F" unicode="&#x500f;" 
d="M521 448l-103 74l179 266l112 -67l-14 -21h237v-128l-103 -114l153 -56l-51 -116l-223 93l-220 -102l-61 116l137 55l-29 20zM225 471h26v-621h-151v493l-68 17l113 400l150 -40zM286 644h128v-685h-128v685zM615 584l-13 -18l100 -72l55 90h-142zM808 89l144 -161
l-100 -86l-155 175l82 72h-106l-110 -239l-130 54l86 185h-92v124h150l59 127l130 -49l-36 -78h66l-7 71l94 9l8 -80h57v-124h-140z" />
    <glyph glyph-name="uni5012" unicode="&#x5012;" 
d="M274 730h388v-140h-178l-58 -128l86 17l-19 67l98 32l70 -248l-96 -33l-18 64l-219 -35l-70 113l74 152h-59v136l-76 -289h45v-587h-145v471l-75 29l115 420l137 -40v-1zM941 -139h-271l1 128h131v760h138zM672 95l-1 536h106v-536h-105zM649 20l8 -131l-382 -29l-8 130
l122 10v96h-110l1 139h109v80h147v-80h102v-139h-102v-85z" />
    <glyph glyph-name="uni5014" unicode="&#x5014;" 
d="M249 474h36v-624h-152v446l-107 46l178 418l141 -64zM940 731v-322h-459l-43 -560l-143 8l70 874h575zM802 617l-305 -2l-7 -91h312v93zM814 105h115v-243h-466v243h115v-127h51v166h-150v219h101v-105h49v135h136v-135h48v105h101v-219h-149v-166h49v127z" />
    <glyph glyph-name="uni5018" unicode="&#x5018;" 
d="M216 474h36v-624h-156v474l-86 32l158 425l146 -48zM944 504v-645h-197v110h52v404h-350v-514h-145v645l246 -1v248h145v-248zM852 520l-112 59l82 160l114 -55zM306 680l114 55l82 -160l-112 -59zM770 -14h-292v342h292v-342zM654 213h-60v-113h60v113z" />
    <glyph glyph-name="uni5019" unicode="&#x5019;" 
d="M223 438h47v-587h-146v468l-86 36l155 406l135 -50zM963 -51l-86 -107l-183 158l66 76h-65l-182 -231l-116 82l121 149h-95v124h195l11 56h-78l-14 -49l-117 30l55 195h-50v124h313v54h-280v114h423v-168h67v-124h-386l35 -8l-13 -48h336v-120h-146l-11 -56h188v-124
h-139zM406 40h-109v546h109v-546z" />
    <glyph glyph-name="uni501A" unicode="&#x501a;" 
d="M256 501h36v-651h-144v517l-102 52l192 368l131 -70zM951 293h-37v-443h-227v92h-321v317h360v-307h53v341h-456v138h81l-38 36l103 78h-118v135h213v66h156v-66h219v-135h-127l108 -87l-28 -27h59v-138zM525 431h228l-82 69l55 45h-50zM594 148h-97v-95h97v95z" />
    <glyph glyph-name="uni501C" unicode="&#x501c;" 
d="M928 716v-857h-254v99h-174v297h259v-287h23v624h-297l-22 -741l-145 4l25 824l-106 -241h50v-588h-152v459l-100 47l173 400l136 -56v16h584zM565 385v47h-60v95h60v48h134v-48h57v-95h-57v-47h65v-96h-271v96h72zM655 160h-51v-107h51v107z" />
    <glyph glyph-name="uni501F" unicode="&#x501f;" 
d="M950 474v-122h-620v122h115v90h-95v110l-112 -203h52v-621h-156v483l-118 56l202 368l139 -70l-2 -3h90v66h148v-66h92v66h148v-66h97v-120h-97v-90h117zM593 474h92v90h-92v-90zM382 309h526v-444h-526v444zM540 195v-58h210v58h-210zM750 -19v58h-210v-58h210z" />
    <glyph glyph-name="uni5021" unicode="&#x5021;" 
d="M244 434h54v-584h-148v448l-115 62l180 395l145 -70zM910 344h-547v386h547v-386zM505 624v-47h263v47h-263zM768 450v47h-263v-47h263zM930 310v-440h-587v440h587zM491 198v-60h291v60h-291zM782 -18v61h-291v-61h291z" />
    <glyph glyph-name="uni5025" unicode="&#x5025;" 
d="M226 434h60v-584h-155v466l-108 46l184 395l143 -62zM726 -6h224v-124h-605v124h222v169h-187v122h13l-59 96l110 64h-104v225h217l-9 65l157 20l10 -85h225v-225h-88l103 -64l-59 -96h14v-122h-184v-169zM414 285h462l-184 119l65 100l35 -22v64h-304v-76l53 31l65 -100
z" />
    <glyph glyph-name="uni5026" unicode="&#x5026;" 
d="M254 434h42v-584h-154v450l-99 42l194 421l140 -67zM862 78h77v-219h-541v299l-94 60l111 144h-68v113h184l9 42h-169v111h39l-22 65l118 35l32 -100h27l30 131l152 -21l-24 -110h43l31 96l119 -38l-20 -58h35v-111h-232l-9 -42h262v-113h-69l101 -124l-107 -89l-15 21
v-92zM582 362l-47 -67h240l-47 67h-146zM829 -27v55h-230v96h117v62h-163v-213h276z" />
    <glyph glyph-name="uni5028" unicode="&#x5028;" 
d="M274 474h38v-624h-156v447l-105 45l178 418l144 -55zM793 246v-62h139v-321h-412v321h135v62h-147l-30 -395l-150 12l69 871h534v-312h-138v-56h145v-120h-145zM536 614l-5 -72h252v72h-247zM656 366v56h-135l-4 -56h139zM792 80h-132v-113h132v113z" />
    <glyph glyph-name="uni5029" unicode="&#x5029;" 
d="M950 435v-112l-660 1v111h255v33h-215v107h215v29h-237v99l-94 -224h55v-629h-150v499l-96 46l159 381l135 -51l-4 -10h232v35h159v-35h241v-111l-241 1v-31h214v-106h-215v-33h247zM335 300h583v-447h-226v85h68v35h-267v-122h-158v449zM493 199v-32h267v32h-267z
M760 57v26h-267v-26h267z" />
    <glyph glyph-name="uni502A" unicode="&#x502a;" 
d="M934 95v-227h-284v333h-51l-96 -354l-149 47l89 307h-93v474l-86 -201h38v-624h-156v447l-105 45l178 418l144 -55l-7 -15l252 63l30 -130l-138 -37v-74h110v-119h-110v-65h276v63h-113v119h113v60h-119v138h269v-507h-122v-205h48v99h82z" />
    <glyph glyph-name="uni502C" unicode="&#x502c;" 
d="M244 434h54v-584h-154v452l-109 58l180 395l145 -70zM950 -10h-259l-1 -140h-160l1 140h-211v124h212v55h-187v395h172v186h162v-42h261v-104h-261v-40h236v-395h-223v-55h258v-124zM503 450v-42h254v42h-254zM503 283h254v43h-254v-43z" />
    <glyph glyph-name="uni502D" unicode="&#x502d;" 
d="M234 471h54v-621h-158v484l-114 55l192 368l139 -70zM373 606l-3 123l529 20l4 -126l-194 -6v-46h227v-131h-51l56 -80l-100 -60l-95 140h-37v-90h-140v90h-36l-95 -140l-100 60l56 80h-58v131h233v41zM894 -150l-253 108l-271 -111l-50 111l152 59l-94 48l46 86h-94
l-2 131h167l43 81l118 -50l-17 -31h301v-131h-92l-83 -112l192 -78zM566 151l-22 -40l98 -41l61 81h-137z" />
    <glyph glyph-name="uni502E" unicode="&#x502e;" 
d="M853 -140l-127 247v-257h-159v256l-150 -242l-110 72l140 225h-102v120h222v41h-200v355l-122 -243h60v-584h-152v453l-113 56l192 394l135 -59v38h559v-410h-200v-41h218v-120h-98l124 -245zM511 571h72v61h-72v-61zM710 571h72v61h-72v-61zM511 420h72v55h-72v-55z
M710 420h72v55h-72v-55zM567 110v51h-76zM726 112l97 49h-97v-49z" />
    <glyph glyph-name="uni503A" unicode="&#x503a;" 
d="M949 452v-108h-663v108h250v25h-205v95h205v22h-234v95l-88 -210h45v-629h-140v499l-96 46l159 381l135 -51l-10 -23h229v44h161v-44h239v-108h-239v-22h213v-95h-213v-25h252zM811 31l138 -79l-85 -122l-275 181l-184 -175l-102 97l109 98h-103v291h616v-291h-114z
M464 78l155 139h-155v-139zM736 151l-50 -48l82 -47v161h-115z" />
    <glyph glyph-name="uni503C" unicode="&#x503c;" 
d="M948 -15v-122h-623v122h51v568h192v41h-214v66l-98 -216h42v-594h-154v449l-101 43l184 415l127 -55v9h214v39h156v-39h207v-117h-207v-41h173v-568h51zM745 433h-217v-40h217v40zM745 299h-217v-40h217v40zM745 165h-217v-40h217v40zM745 31h-217v-46h217v46z" />
    <glyph glyph-name="uni503E" unicode="&#x503e;" 
d="M511 -13l-151 -98l-84 106v649l-70 -206h36v-587h-145v470l-77 30l145 410l111 -32v21h148v-236h60v-137h-60v-309l40 24zM963 -46l-76 -108l-152 132l76 94l-3 351h-179l3 -333l23 21v265h130v-318l-221 -222l-93 107l136 124h-103l-3 482h132l9 56h-147v126h455v-126
h-179l-12 -56h177l3 -481h-115z" />
    <glyph glyph-name="uni5043" unicode="&#x5043;" 
d="M949 -18v-118h-619v826l-85 -219h39v-621h-146v480l-95 36l158 384l129 -57v28h610v-114h-463v-625h63l-41 82l101 34l-78 36l30 53h-60v86h109l15 26h-99v281h405v-281h-175l-15 -26h209v-86h-34l-60 -72l100 -40l-48 -93h50zM651 470h137v31h-137v-31zM651 379h137v31
h-137v-31zM682 187l-16 -28l55 -21l42 49h-81zM591 -18h291l-142 60z" />
    <glyph glyph-name="uni5047" unicode="&#x5047;" 
d="M615 -9h-164v-140h-144v800l-79 -213h29v-587h-146v469l-75 35l155 406l116 -42v11h317v-350h-173v-66h164v-128h-164v-67h164v-128zM934 380h-288v128h146v94h-146v128h288v-350zM451 505h51v100h-51v-100zM869 -152l-104 108l-79 -117l-116 72l102 149l-67 74l90 74
h-58v125h304v-120l-78 -163l104 -109zM707 208l53 -61l29 61h-82z" />
    <glyph glyph-name="uni5048" unicode="&#x5048;" 
d="M935 358v-505h-218v91h-333v173l-5 -7l-86 60v-320h-156v462l-114 55l185 387l139 -70l-102 -213h48v-261l123 185h-38v354h519v-351l-324 -2l-26 -38h388zM524 614h227v33h-227v-33zM752 532h-227v-33h227v33zM508 217v-167h62l-62 52l120 143h-157l-20 -28h57zM799 245
h-109l36 -30l-22 -26l88 -77l-58 -63h29v-85h36v281zM589 50l127 -1l-73 66z" />
    <glyph glyph-name="uni504C" unicode="&#x504c;" 
d="M596 301l-47 -54h368v-379h-491v237l-56 -65l-80 56v-246h-156v483l-118 76l202 348l139 -70h66v62h146v-62h136v62h146v-62h90v-135h-90v-62h-145l23 -10l-27 -44h248v-135h-354zM409 301h-85v135h200l36 54h-137v62h-87v99l-105 -180h59v-305zM569 552v-48l24 36
l112 -49v61h-136zM578 -4h187v123h-187v-123z" />
    <glyph glyph-name="uni504E" unicode="&#x504e;" 
d="M234 444h64v-594h-154v488l-111 54l194 375l140 -69zM935 326h-564v404h564v-404zM597 618h-82v-47h82v47zM791 618h-82v-47h82v47zM597 485h-82v-47h82v47zM791 485h-82v-47h82v47zM882 29l68 -91l-122 -86l-225 321h-53v-178l113 27l25 -110l-250 -62l-40 90v233h-65
v123h617v-123h-177l42 -56l67 48l69 -90z" />
    <glyph glyph-name="uni504F" unicode="&#x504f;" 
d="M479 394l-31 -544l-131 7l43 815l-108 -238h29v-584h-137v449l-101 43l184 415l134 -58l1 18h192l-4 32l167 18l9 -50h205v-323h-452zM490 594l-5 -85h292v85h-287zM943 362v-513h-126v112h15v75h-28v-154h-77v154h-28v-154h-80v154h-24v-186h-114v512h462zM619 261h-24
v-125h24v125zM727 261h-30v-125h30v125zM832 261h-28v-125h28v125z" />
    <glyph glyph-name="uni5055" unicode="&#x5055;" 
d="M355 701l-105 -230h47v-621h-154v481l-104 45l174 388zM448 299l-80 77v374h142v-93h109v-122h-109v-99l80 26l32 -105zM860 495h83v-181h-297v436h142v-93l142 19l18 -120l-160 -21v-115h72v75zM692 263h228v-404l-533 1v403h172l6 49l132 -14zM770 157h-233v-48h233v48
zM770 13h-233v-48h233v48z" />
    <glyph glyph-name="uni505A" unicode="&#x505a;" 
d="M216 438h33v-587h-140v469l-79 31l145 410l137 -40zM918 507l-43 -271l60 -369l-133 -19l-34 284l-33 -283l-131 12l57 366l-37 145l48 9l-89 21l14 60h-105v-138h94v-450h-301v450h91v138h-105v124h105v153h116v-153h105v-124l67 290l124 -27l-24 -101h187v-117h-33z
M795 507h-60l-29 -119l36 7l20 -100zM472 220h-74v-224h74v224z" />
    <glyph glyph-name="uni505C" unicode="&#x505c;" 
d="M250 464h50v-614h-152v479l-113 61l180 365l145 -70zM955 593h-593v108h213l-4 34l142 20l6 -54h236v-108zM396 343v219h521v-219h-521zM531 435h243v36h-243v-36zM964 135h-54v-80h-172v-198h-258v103h103v95h-173v80h-61v177h615v-177zM489 206v-42h335v42h-335z" />
    <glyph glyph-name="uni5065" unicode="&#x5065;" 
d="M781 320v-29h139v-101h-139v-29h150v-101h-150v-63l166 -20l-20 -125l-444 63l-11 -65l-142 30l23 119l-61 81v-230h-144v481l-112 58l192 368l108 -59v5h198v-135l-78 -176h91v-116l-43 -246l143 -17v47h-107v101h107v29h-90v101h90v29h-85v100h85v44h-106v90h106v47
h-87v100h87v50h134v-50h139v-137h30v-110h-30v-134h-139zM387 171l20 102h-58l-34 116l83 189h-62v69l-92 -176h48v-339l81 60zM772 554h41v47h-41v-47zM813 420v44h-41v-44h41z" />
    <glyph glyph-name="uni506C" unicode="&#x506c;" 
d="M217 434h73v-584h-142v444l-120 58l195 417l130 -57zM864 -73l-27 161v-227h-400v365h136l-61 28l71 147l-44 16l-82 -165l-113 53l78 155l-59 22l12 33l-66 26l109 228l119 -32l-15 -27h409v-494h-207v112h70v263h-107l104 -46l-56 -117l47 -17l-27 -73l-54 20l-75 -153
l70 8l26 -191l-100 -12l-26 191l25 3l-42 19v-252h155v153h97l-9 54l90 16l43 -252zM457 530l30 61h-45l-22 -47zM616 472l58 119h-138l72 -35l-34 -69zM352 208l83 -13l-47 -276l-82 13z" />
    <glyph glyph-name="uni5076" unicode="&#x5076;" 
d="M250 471h47v-621h-154v481l-104 45l174 388l142 -63zM936 270v-412h-223v94h76v201h-91v-61l17 1l-4 30l54 7l21 -157l-53 -8l-5 34l-239 -10l-4 94l77 3v67h-84v-300h-146v417h230v39h-203v413h551v-413h-202v-39h228zM503 565h69v45h-69v-45zM696 565h70v45h-70v-45z
M572 421v46h-69v-46h69zM766 421v46h-70v-46h70z" />
    <glyph glyph-name="uni5077" unicode="&#x5077;" 
d="M923 447h16v-588h-222v102h92v486h76l-76 47v-37h-356v23l-71 -53h283v-568h-165v100h35v71h-58v-177h-130v574h15l-66 105l-44 -68h42v-614h-148v480l-108 72l226 351l126 -75l-86 -133l326 239l119 -85l-16 -12l241 -138zM714 552l-89 55l-75 -55h164zM789 6h-104v401
h104v-401zM477 324v-57h58v57h-58zM535 120v57h-58v-57h58z" />
    <glyph glyph-name="uni507B" unicode="&#x507b;" 
d="M244 471h54v-621h-158v484l-114 55l192 368l139 -70zM857 124l-84 -104l153 -59l-62 -115l-215 86l-267 -88l-57 115l134 42l-98 45l49 78h-84v124h163l52 83l14 -6v147h-18l-66 -173l-120 44l53 129h-61v124h73l-29 122l112 22l32 -144h24v157h148v-157h25l38 143
l110 -27l-31 -116h72v-124h-61l53 -131l-120 -44l-65 175h-21v-173h-91l54 -24l-17 -27h280v-124h-72zM691 124h-120l-28 -45l86 -27z" />
    <glyph glyph-name="uni507E" unicode="&#x507e;" 
d="M260 469h54v-619h-154v491l-112 54l192 368l137 -70zM579 587h-199v123h199v40h152v-40h199v-123h-199v-55h-152v55zM753 344v53h-196v-53h-142v53h-50v115h50v53h142v-53h196v53h142v-53h55v-115h-55v-53h-142zM870 -155l-220 133l-195 -133l-95 120l123 74h-108v286
h560v-286h-106l126 -64zM595 195l150 -35l-23 -66l75 -38v149h-288v-151l51 31z" />
    <glyph glyph-name="uni507F" unicode="&#x507f;" 
d="M218 434h44v-584h-152v449l-101 43l184 415l143 -62zM413 581l-46 108l116 52l57 -140l-44 -20h67v163h134v-163h87l-56 27l65 138l107 -61l-48 -104h97v-199h-89v-98h-458v98h-91v199h102zM830 453h-400v-54h400v54zM503 -11l236 13l-20 33l117 64l113 -192l-117 -63
l-27 45l-403 -19l-71 101l109 136h-129v124h644v-124h-353z" />
    <glyph glyph-name="uni5080" unicode="&#x5080;" 
d="M355 701l-105 -230h47v-621h-154v481l-104 45l174 388zM856 -15h80v-129h-305l-1 266l-117 -275l-146 50l139 327h-139v471h156l14 69l179 -22l-11 -47h222v-471h-253l-8 -17h107v-283h83v61zM517 583v-78h64v78h-64zM777 583h-64v-78h64v78zM517 338h64v78h-64v-78z
M777 338v78h-64v-78h64zM848 49l31 6l-12 76l58 11l22 -142l-57 -12l-3 19l-92 -19l-20 48l37 177l66 -11z" />
    <glyph glyph-name="uni5085" unicode="&#x5085;" 
d="M710 581v-26h225v-368h-105v-26h120v-120h-120v-182h-230v100h82v82h-171l69 -65l-80 -90l-100 100l55 55h-142v120h369v28h123v50h-114v-34h-115v34h-106v-52h-130v368h215v26h-228v118l-104 -261h53v-587h-143v407l-123 57l184 446l138 -50l-5 -12h228v50h155v-50h94
l-9 40l102 17l13 -57h40v-118h-240zM470 463v-32h106v32h-106zM805 463h-114v-32h114v32zM576 319v32h-106v-32h106zM805 319v32h-114v-32h114z" />
    <glyph glyph-name="uni5088" unicode="&#x5088;" 
d="M892 -130l-192 146v-165h-144v155l-174 -139l-81 106l164 131h-127v126h218v36h-216v289h139v46h-135v37l-92 -204h44v-584h-152v449l-101 43l184 415l117 -51v19h584v-124h-143v-46h147v-289h-222v-36h233v-126h-139l169 -126zM609 555h46v46h-46v-46zM510 453h-52v-85
h52v85zM609 368h51v85h-51v-85zM756 368h52v85h-52v-85zM556 52v52h-40zM700 33l53 71h-53v-71z" />
    <glyph glyph-name="uni508D" unicode="&#x508d;" 
d="M952 500v-176h-138v52h-352v-52h-136v176h124l-9 46l131 24l13 -70h112l17 70h-370v56l-90 -192h42v-584h-152v449l-101 43l194 421l140 -67v-1h183l-6 49l143 15l7 -64h247v-125h-215l109 -26l-11 -44h118zM710 288h236v-125h-330l-18 -35h320v-272h-266v108h119v38
h-236l-82 -163l-137 63l131 261h-121v125h239l-7 61l143 15z" />
    <glyph glyph-name="uni50A3" unicode="&#x50a3;" 
d="M793 100l181 -108l-67 -106l-179 108v-137l-235 1v99l-121 -68l-59 111l186 101l-49 46l-40 -57l-114 73v-313h-152v449l-101 43l184 415l130 -56v9h216l10 41l149 -21l-5 -20h204v-114h-229l-8 -36h223v-98h-245l-9 -37h287v-113h-63l93 -155l-118 -70l-29 50zM296 434
v-269l108 147h-68v113h170l9 37h-148v98h171l8 36h-189v70l-105 -232h44zM511 234l69 -67v125h149v-111l51 47l-49 84h-166zM728 65l33 52l-32 34zM580 149l-36 -33l35 -71zM579 -38v43l-77 -43h77z" />
    <glyph glyph-name="uni50A5" unicode="&#x50a5;" 
d="M903 118h-85l2 -133h58v68h56v-191h-262l-3 256h-66l-130 -275l-131 68l105 207h-73v267h-50l-1 215l-56 -104h27v-646h-155v460l-107 62l200 376l128 -79l-36 -67h69l-27 92l129 38l39 -130h29v147h156v-148h29l42 131l129 -38l-29 -94h56v-215h-43v-267zM460 476v-67
l336 -1v67zM755 298h-233v-70h233v70z" />
    <glyph glyph-name="uni50A7" unicode="&#x50a7;" 
d="M953 -88l-131 -83l-116 187l88 47h-286l89 -50l-125 -184l-130 81l104 153h-140v113h47v320l448 28v53h-343v-67h-140v118l-71 -132h27v-646h-155v460l-107 62l200 376l106 -65v12h208l-5 37l185 26l10 -62h225v-186h-39l7 -95l-406 -26v-36h422v-110h-126v-67h146v-113
h-84zM643 243h-140v-67h140v67z" />
    <glyph glyph-name="uni50A8" unicode="&#x50a8;" 
d="M228 438h39v-587h-146v465l-85 39l155 406l138 -50zM924 468h23v-122h-240l-21 -50h249v-432h-389v72l-149 -78l-82 95v400h-30v120h170v-448l58 27l33 -71v105l-85 33l95 227h-76v122h153v83h-127v113h127v85h140v-85h82v-45l18 71l101 -24zM475 553h-145v145h145v-145z
M773 468h44l21 83h-65v-83zM801 183h-121v-60h121v60zM801 37h-121v-60h121v60z" />
    <glyph glyph-name="uni50A9" unicode="&#x50a9;" 
d="M872 528v-92h55v-124h-55v-92h55v-124h-55v-96h68v-130h-268v-19h-130v427l-63 17l103 449l123 -31l-13 -57h44l-9 82l132 17l12 -99h69v-128h-68zM454 267l88 -292l-120 -39l-57 184l-55 -237l-92 25v-57h-131v447l-61 18l121 434l134 -30l-7 -27h244v-121zM269 572v103
l-51 -190v-13l105 35l39 -128l40 193h-133zM738 528h-66v-92h66v92zM218 48l53 225l-53 195v-420zM738 312h-66v-92h66v92zM738 96h-66v-96h66v96z" />
    <glyph glyph-name="uni50AC" unicode="&#x50ac;" 
d="M945 -124h-434v-19h-147v283l-97 42v-331h-146v467l-85 37l155 406l148 -50l-101 -273h29v-230l144 323h-63v197h153v-86h64v108h154v-108h64v87h153v-198h-167l16 -82h149v-111h-148v-53h128v-95h-128v-53h128v-95h-128v-55h159v-111zM432 531l107 -41l-18 -41h107
l-8 64l134 18h-322zM635 338h-124v-53h124v53zM635 190h-124v-53h124v53zM635 42h-124v-55h124v55z" />
    <glyph glyph-name="uni50B2" unicode="&#x50b2;" 
d="M484 225h133v-375h-180v110h47v153h-40l-47 -268l-134 16l69 397h-60v113h114v34h-92v112h92v34h-103v85l-67 -198h36v-587h-145v470l-77 30l145 410l137 -40l-20 -58h94v86h136v-86h115v-112h-115v-34h90v-112h-90v-34h114v-113h-147zM934 507l-42 -272l52 -368
l-128 -19l-28 272l-27 -274l-127 12l52 369h-1l-35 145l53 11l-86 19l81 350l130 -27l-24 -101h147v-117h-17zM815 507h-40l-28 -115l17 3l19 -98z" />
    <glyph glyph-name="uni50BA" unicode="&#x50ba;" 
d="M218 438h34v-587h-145v470l-77 30l145 410l141 -50zM919 112h-211v-254l-214 1v118h63v136h-205v120l-36 -25l-59 86l107 79l-24 22l65 69l35 -34l22 16l6 12l-55 36l47 71l44 -31l18 39h-80l-105 -161l-93 73l175 273l101 -66l-16 -24h103l-14 33l102 41l28 -70h229v-95
l-92 -171l146 -120l-62 -90l-25 20v-104zM631 612v-39l-77 -183l172 -1zM761 578l41 -102l54 101zM896 235l-92 75v-42h-335v46l-114 -79h541zM494 27l-94 -182l-102 61l93 178zM859 84l94 -178l-103 -61l-95 182z" />
    <glyph glyph-name="uni50BB" unicode="&#x50bb;" 
d="M813 18l155 -66l-78 -115l-234 105l-267 -107l-58 113l170 68l-32 19l48 66h-29l-44 -88l-108 44l58 110l-25 -9l-39 89l128 38h-87v402l-116 -253h43v-584h-152v449l-101 43l190 411l136 -55v11h129l12 55l143 -20l-8 -35h285v-424h-86l128 -44l-34 -80l-30 11v-82z
M654 560l65 51h-206v-61l69 60zM728 611l62 -57l-60 -47l60 -41v145h-62zM513 545v-94l62 48zM513 385h277v74l-63 -70l-77 56l-73 -57l-64 61v-64zM542 210h263l-93 34l21 41h-148l19 -40l-55 -20zM565 101l89 -50l83 50h-172z" />
    <glyph glyph-name="uni50CF" unicode="&#x50cf;" 
d="M254 434h38v-584h-142v444l-121 68l243 411l135 -84zM855 74l99 -113l-76 -76l-104 121v-151h-223v91h83v41l-263 -117l-43 106l306 135v15l-254 -114l-36 82l267 113l-5 12l-226 -93l-35 74l152 60h-132v222l-41 28l185 263l130 -51l-19 -27h250v-101l-39 -57h81v-277
h-22l75 -73zM543 587l-36 -50h182l33 50h-179zM505 368h71v61h-71v-61zM698 429v-61h74v61h-74zM888 260h-153l39 -89v-3l9 -11z" />
    <glyph glyph-name="uni50D6" unicode="&#x50d6;" 
d="M229 479h40v-629h-140v489l-109 56l192 368l110 -60v6h223v42h150v-42h241v-99h-241v-26h225v-95h-593v95h218v26h-223v47zM949 217v-101h-652v101h106l-11 29l79 20h-138v204h579v-204h-129l79 -20l-11 -29h98zM493 349h259v36h-259v-36zM702 217l20 49h-190l19 -49h151
zM337 92h567v-230h-567v230zM493 -43h256v45h-256v-45z" />
    <glyph glyph-name="uni50DA" unicode="&#x50da;" 
d="M272 438v-587h-146v463l-96 37l143 412l143 -42l-97 -283h53zM712 116v-260h-213v106h62v154h-186v184l-103 76l82 88l-47 52l72 55l37 -41l58 61h-141v121h220l8 50l160 -17l-6 -33h224v-121h-183l70 -65l53 50l67 -61l-54 -49l93 -86l-90 -92l-4 4v-176h-179zM672 591
l-145 -150h206l-85 80l83 70h-59zM746 351h-225v-32h225v32zM521 205l225 1v33h-225v-34zM869 114l105 -215l-122 -53l-105 215zM513 59l-100 -213l-123 53l101 213z" />
    <glyph glyph-name="uni50E6" unicode="&#x50e6;" 
d="M891 -74h22v116h34v-184h-183v364l-51 -373l-126 17l15 115l-35 -13l-44 129v-240h-192v106h52v160l-60 -181l-71 26v-117h-145v470l-77 30l145 410l137 -40l-10 -28h99l-5 39l126 16l6 -55h100v-126h-345v69l-67 -198h36v-433l57 169l74 -24v62h-86v319h318v-319h-92
v-56l58 21l34 -96l45 343h-23v128h39l26 196l132 -15l-5 -36l73 30l45 -116l-77 -31l-42 110l-19 -138h141v-128h-59v-498zM417 316h78v111h-78v-111z" />
    <glyph glyph-name="uni50E7" unicode="&#x50e7;" 
d="M932 676v-387h-617v359l-84 -194h31v-604h-142v456l-105 41l187 440l145 -65l-20 -46h81l-9 62l152 23l13 -85h132l17 82l146 -23l-12 -59h85zM575 557h-122v-158h122v158zM794 557h-116v-158h116v158zM754 412l-63 19l34 111l65 -20zM494 412l-31 112l65 17l30 -111z
M337 262h570v-403h-570v403zM487 102h272v49h-272v-49zM759 20h-270v-49h270v49z" />
    <glyph glyph-name="uni50EC" unicode="&#x50ec;" 
d="M292 430v-580h-152v447l-113 57l225 421l138 -78l-98 -181v-38l171 282l112 -69l-9 -14h46l-9 66l169 20l16 -86h153v-114h-166v-53h146v-97h-146v-53h146v-97h-146v-55h167v-114h-413v-23h-152v299l-2 -3zM624 563h-95v-53h95v53zM624 413h-95v-53h95v53zM624 263h-95
v-55h95v55zM984 -105l-107 -36l-74 184l106 35zM385 62l119 -30l-58 -188l-118 31zM773 49l54 -161l-107 -35l-55 161zM628 46l38 -166l-111 -24l-39 166z" />
    <glyph glyph-name="uni50ED" unicode="&#x50ed;" 
d="M475 412l-48 -153l-102 32l44 137h-49v152h98v-46h26l6 76h-130v60l-86 -232h54v-587h-141v455l-105 49l155 406l138 -50l-3 -9h268v-92h-47l-6 -76h56v-106h-32v-73l38 4l10 -73l-114 -21l-30 60v87zM787 269v130l-42 -140l-104 28l44 141h-39v164h97v-58h20l6 76h-124
v92h282v-92h-56l-5 -76h60v-106h-43v-86h26v40h36v-113h-158zM929 259v-400h-574v400h574zM497 111h290v45h-290v-45zM497 -37h290v45h-290v-45z" />
    <glyph glyph-name="uni50EE" unicode="&#x50ee;" 
d="M489 603h-162v107h211l-6 32l148 29l11 -62h225v-106h-165l98 -27l-9 -28h93v-108h-630v109h92l-8 30zM210 437h40v-587h-144v469l-85 39l167 410l135 -47zM708 603h-179l15 -54l147 -1zM936 -29v-112h-650v112h252v31h-212v91h212v38h-226v284h607v-284h-226v-38h210
v-91h-210v-31h243zM440 305h98v36h-98v-36zM693 305h92v36h-92v-36zM440 205h98v33h-98v-33zM693 205h92v33h-92v-33z" />
    <glyph glyph-name="uni50F3" unicode="&#x50f3;" 
d="M251 434h45v-584h-152v450l-102 47l182 410l120 -52v20h584v-121h-143v-49h147v-289h-592v289h139v49h-135v39zM609 555h46v49h-46v-49zM513 453h-52v-85h52v85zM662 453h-51v-85h51v85zM759 368h52v85h-52v-85zM847 -175l-137 189v-163h-148v164l-137 -191l-115 69
l103 139h-92v124h84l-18 79l116 27l25 -106h34v99h148v-99h30l27 107l112 -27l-19 -80h89v-124h-91l100 -135z" />
    <glyph glyph-name="uni50F5" unicode="&#x50f5;" 
d="M318 717l-88 -243h42v-624h-152v453l-100 39l158 434zM950 737v-96h-629v96h629zM930 621v-251h-589v251h589zM591 552h-128v-25h128v25zM808 552h-128v-25h128v25zM591 463h-128v-24h128v24zM808 463h-128v-24h128v24zM320 350h630v-84h-630v84zM930 244v-264h-589v264
h589zM591 176h-128v-38h128v38zM808 176h-128v-38h128v38zM591 86h-128v-38h128v38zM808 86h-128v-38h128v38zM319 -42h631v-98h-631v98z" />
    <glyph glyph-name="uni50FB" unicode="&#x50fb;" 
d="M847 285v-102h79v-137h-79v-196h-130v196h-82v137h82v102h-98v-425h-252v340l-20 -342l-114 8l56 814l-90 -242h21v-587h-129v469l-75 35l155 406l120 -43l1 12h301v-379h-196l-3 -49h218v119h52l-19 109l111 24l19 -133h22l18 131l103 -22l-17 -109h47v-136h-101z
M945 564h-336v136h110l-6 50l107 10l5 -60h120v-136zM416 612l-10 -143h66v143h-56zM513 194h-40v-226h40v226z" />
    <glyph glyph-name="uni5106" unicode="&#x5106;" 
d="M385 479h244v-615h-233v100h113v410h-156l-12 -38h148v-339h-226v285l-44 14v-446h-130v503l-79 32l120 379l123 -40l-12 -38h54v63h116v-63h58v63h116v-63h63v-120h-63v-65h-116v65h-58v-65h-56l34 -9zM833 -156l-38 266l-40 -266l-117 24l60 342l-55 190l86 26l-97 13
l50 316l109 -12l-14 -90h172v-120h-19l-40 -305l62 -364zM219 499v-171l60 193l16 -4v49h-67v78l-46 -145h37zM761 435l29 -120l21 218h-53l-16 -104zM361 96h30v141h-30v-141z" />
    <glyph glyph-name="uni5107" unicode="&#x5107;" 
d="M851 9l90 -70l-77 -92l-192 161l31 -94l-224 -79l-61 69v62l-125 -69l-43 85v-132h-144v469l-85 39l168 401l130 -45v7h595v-235h-595v214l-107 -263h38v-429l206 122h-126v206h564v-191l27 16l47 -88zM436 576h63v56h-63v-56zM585 576h63v56h-63v-56zM734 576h63v56h-63
v-56zM287 458h661v-94h-661v94zM750 213v41h-276v-41h276zM775 79l88 51h-159zM666 13l-69 58l-53 -36v-68z" />
    <glyph glyph-name="uni510B" unicode="&#x510b;" 
d="M949 373v-94h-516l-33 -434l-137 12l48 602l-76 70l199 233l140 -41l-16 -18h246v-92l-24 -39h167v-109h-91l82 -40l-32 -50h43zM196 437h39v-587h-144v469l-86 39l168 401l135 -47zM474 611l-35 -39h188l24 39h-177zM440 373h37l-29 50l82 40h-83zM763 463h-143l21 -37
l-107 -53h98l-6 40l121 19l-2 1zM753 429l8 -56h105zM455 264h462v-78h-462v78zM457 168h462v-84h-462v84zM440 68h499v-208h-499v208zM582 -50h215v28h-215v-28z" />
    <glyph glyph-name="uni5112" unicode="&#x5112;" 
d="M274 474h38v-624h-156v447l-105 45l178 418l144 -55zM581 644h-206v93h544v-93h-220v-25h235v-302h-134v206h-101v-214h-117v214h-94v-206h-133v302h226v25zM567 418h-62v89h62v-89zM783 418h-67v89h67v-89zM505 399h62v-89h-62v89zM716 399h67v-89h-67v89zM718 202
l-10 -30h221v-316h-147v103h27v116h-44v-210h-104v210h-44v-210h-104v210h-34v-224h-120v321h186l10 30h-204v88h587v-88h-220z" />
    <glyph glyph-name="uni5121" unicode="&#x5121;" 
d="M213 438h13v-587h-142v479l-59 21l127 401l145 -40zM319 324l-1 398h556v-398h-555zM459 622v-54h79v54h-79zM734 622h-75v-54h75v54zM459 424h79v56h-79v-56zM734 424v56h-75v-56h75zM247 292h338v-421h-338v421zM947 291v-421h-338v421h338zM349 197v-67h39v67h-39z
M488 197h-39v-67h39v67zM706 196v-67h39v67h-39zM845 196h-39v-67h39v67zM349 -33h39v73h-39v-73zM488 -33v73h-39v-73h39zM706 -34h39v73h-39v-73zM845 -34v73h-39v-73h39z" />
    <glyph glyph-name="uni513F" unicode="&#x513f;" 
d="M719 750v-757h85v186h135v-322l-380 -1v895zM283 -162l-158 26l142 881l158 -25z" />
    <glyph glyph-name="uni5140" unicode="&#x5140;" 
d="M939 173v-316l-380 -1v718h-145l-192 -730l-154 43l181 687h-200v140h878v-140h-208v-583h80v182h140z" />
    <glyph glyph-name="uni5141" unicode="&#x5141;" 
d="M910 127v-264l-398 1v414h-91l-124 -435l-156 31l127 404h-137l-30 131l332 363l122 -102l-237 -259h339l-74 122l127 73l194 -318l-133 -78l-42 68h-60v-286h110v135h131z" />
    <glyph glyph-name="uni5143" unicode="&#x5143;" 
d="M945 438v-140h-889l-2 140h891zM888 593h-775v140h775v-140zM706 384v-387h85v186h137v-326l-382 -1v529zM73 -77l223 461l150 -57l-232 -481z" />
    <glyph glyph-name="uni5144" unicode="&#x5144;" 
d="M933 177v-315l-382 -1v385h-117l-233 -399l-139 80l186 319h-103v502h724v-502h-159v-244h89v175h134zM303 386h408v222h-408v-222z" />
    <glyph glyph-name="uni5145" unicode="&#x5145;" horiz-adv-x="1001" 
d="M951 670v-140h-199l173 -256l-130 -83l-40 62l-360 -15l57 -36l-276 -363l-123 102l221 292l-146 -6l-30 131l148 172h-195l1 140h361l-11 68l178 27l15 -95h356zM727 530h-265l-142 -164l354 14l-54 84zM800 108h137v-256h-382v363l160 -1v-222h85v116z" />
    <glyph glyph-name="uni5146" unicode="&#x5146;" 
d="M332 760l161 -25l-145 -887l-161 26l48 294l-98 -88l-103 127l187 152l38 -46l30 184l-84 -85l-155 156l111 111l136 -134zM719 204v-207h75v83h145v-219l-380 -1v888l160 -1v-201l123 121l111 -111l-155 -156l-79 80v-158l39 48l186 -151l-102 -126z" />
    <glyph glyph-name="uni5148" unicode="&#x5148;" 
d="M928 133v-266l-382 -1v356h-118l-249 -366l-133 89l188 277h-172v140h371v128l-177 -1l-57 -125l-144 67l146 318l144 -67l-23 -51h111v119h160v-119h279v-140l-279 -1v-128h334v-140h-221v-215h85v126h137z" />
    <glyph glyph-name="uni5149" unicode="&#x5149;" 
d="M928 133v-266l-382 -1v389h-110l-255 -405l-132 90l198 315h-192v136h361v359h160v-359h344v-136h-214v-256h85v134h137zM769 417l-140 75l131 240l139 -74zM223 416l-130 241l139 74l131 -240z" />
    <glyph glyph-name="uni514B" unicode="&#x514b;" 
d="M581 553v-57h271v-386h-137v-127h85v92h137v-224h-382v259h-126l-263 -276l-119 107l171 169h-69v386h272v57h-361v140h361v57h160v-57h356v-140h-356zM692 356h-383v-106h383v106z" />
    <glyph glyph-name="uni514D" unicode="&#x514d;" 
d="M917 84v-224h-436v245l-294 -257l-109 111l223 194l-158 2v202l-103 69l255 340l134 -70l-24 -31h379v-112l-64 -66h143v-333h-325l-27 -24h130l1 -147h133v102zM521 487l63 66h-266l-51 -66h254zM430 367h-135v-93h135v93zM711 367h-135v-93h135v93z" />
    <glyph glyph-name="uni5151" unicode="&#x5151;" 
d="M921 92v-243h-389v329h-66l-288 -340l-123 102l204 238h-141v456h137l-33 93l141 45l48 -138h138l63 133l136 -56l-36 -77h139v-456h-159v-197h92v111h137zM691 496h-413v-180h413v180z" />
    <glyph glyph-name="uni5154" unicode="&#x5154;" 
d="M937 63v-203h-456v251l-320 -263l-103 111l241 196h-156v200l-108 79l264 344l136 -72l-18 -23h367v-112l-61 -63h140v-354h-329l-30 -24h130l1 -147h166v81zM327 571l-51 -63h258l60 63h-267zM295 274h135v114h-135v-114zM711 388h-135v-114h135v114zM671 122l85 10
l14 -121l-85 -10z" />
    <glyph glyph-name="uni5155" unicode="&#x5155;" 
d="M935 139v-276h-402v364l-203 1l88 -26l-141 -347l-146 57l132 316h-166v486h364l1 -124h74v124h366v-487h-209v-229h108v141h134zM251 361h497v219h-74v-116l-351 1v115h-72v-219z" />
    <glyph glyph-name="uni5156" unicode="&#x5156;" 
d="M22 361l137 207h-94l1 120h354l-8 52l151 17l11 -69h363v-120h-112l139 -206l-124 -80l-171 253l57 33h-469l58 -33l-169 -254zM369 188l73 -48l-226 -318l-134 89l203 274l-52 -2l-36 112l154 233l136 -59l-101 -155l220 4l-55 93l119 69l160 -260l-121 -74l-31 53z
M850 98h87v-238h-414v310l156 -1v-187h171v116z" />
    <glyph glyph-name="uni515A" unicode="&#x515a;" 
d="M930 74v-211h-375v247h-121l-145 -267l-141 68l119 199h-95v285h-82l-1 203h122l-36 106l129 38l50 -144h68v151h156v-151h65l50 144l129 -38l-36 -107h119v-201l-79 -1v-285h-115v-124h91v88h128zM749 418v56h-503v-56h503zM670 300h-342v-72h342v72z" />
    <glyph glyph-name="uni515C" unicode="&#x515c;" 
d="M381 202l89 -66l-244 -292l-112 89l225 269h-16v452h60l37 105l129 -38l-23 -67h133v-452h-278zM155 193l-55 86v355l174 72l48 -110l-83 -36v-251l56 7l10 -104zM893 202h-207v114h68v241h-68v114h207v-469zM537 544h-94v-65h94v65zM537 379h-94v-67h94v67zM925 89v-226
h-392v323h146v-199h124v102h122z" />
    <glyph glyph-name="uni5162" unicode="&#x5162;" 
d="M780 542v-50h139v-301h-68v-217h32v90h62v-205h-221v332h-22l-77 -341l-134 26l34 138l-173 -111l-63 85v203h-25l-64 -340l-132 20l62 320h-56v303h120v48h-139v122h139v85h144v-85h146v-122h-146v-48h134v-303h-55v-120l64 41l48 -81l39 160h-49v301h117v50h-132v122
h132v85h144v-85h166v-122h-166zM324 376h-100v-65h100v65zM769 373h-102v-62h102v62z" />
    <glyph glyph-name="uni5165" unicode="&#x5165;" 
d="M796 -146l-289 532l-320 -530l-137 86l329 543l114 -72l-141 260l139 82l449 -820z" />
    <glyph glyph-name="uni5168" unicode="&#x5168;" 
d="M576 1l342 -1v-132h-835v133h335v78h-273v128h273v76h-243v78l-67 -44l-94 129l487 325l172 -87l-47 -31l371 -213l-93 -125l-109 67v-99h-219v-76l248 -1v-127h-248v-78zM748 411l-254 157l-240 -156z" />
    <glyph glyph-name="uni516B" unicode="&#x516b;" 
d="M784 -131l-265 820l151 42l271 -818zM220 -135l-158 43l231 821l154 -36z" />
    <glyph glyph-name="uni516C" unicode="&#x516c;" 
d="M20 343l294 390l128 -93v-1l-293 -389q0 -2 -129 93zM844 239l-288 405l128 95l288 -404zM724 248l194 -326l-137 -83l-41 68l-592 -39l-31 134l312 410l128 -97l-225 -295l328 23l-74 124z" />
    <glyph glyph-name="uni516D" unicode="&#x516d;" 
d="M951 589v-140h-900l1 140h363l-27 132l157 31l31 -163h375zM711 405l228 -476l-146 -67l-227 475zM290 404l145 -68l-227 -475l-146 67z" />
    <glyph glyph-name="uni516E" unicode="&#x516e;" 
d="M420 345l-45 -102h435v-383h-416v123h252v136h-396l-45 106l51 120h-56l-55 -68l-120 100l310 378l125 -90l-154 -190h388l-154 190l125 90l310 -378l-120 -100l-100 123v-55h-335z" />
    <glyph glyph-name="uni5170" unicode="&#x5170;" 
d="M924 467h-852v138h181l-36 104l140 47l52 -151h176l52 151l140 -47l-36 -104h183v-138zM145 180v136h716v-136h-716zM947 23v-140h-889v140h889z" />
    <glyph glyph-name="uni5171" unicode="&#x5171;" 
d="M949 144h-257l256 -178l-86 -112l-276 193l73 97h-314l73 -98l-266 -190l-82 113l244 175h-263l1 140h189v172h-159v140h160v155l159 -1v-154h196l1 155h159v-155h162v-140h-162v-172h192v-140zM597 456h-196v-172h196v172z" />
    <glyph glyph-name="uni5173" unicode="&#x5173;" 
d="M941 345v-140h-403l-357 -353l-111 115l240 238h-254v140h360l26 142h-338v140h141l-28 82l140 47l45 -129h190l45 129l140 -47l-28 -82h151v-140h-297l-26 -142h364zM625 180l313 -215l-89 -124l-311 216z" />
    <glyph glyph-name="uni5174" unicode="&#x5174;" 
d="M439 458l-63 260l145 37l62 -260zM788 401l-136 71l136 257l136 -71zM169 404l-73 240l144 45l71 -241zM949 245h-238l226 -319l-128 -90l-236 333l106 76h-345l101 -83l-269 -326l-119 100l252 309h-247v140h897v-140z" />
    <glyph glyph-name="uni5175" unicode="&#x5175;" 
d="M944 125h-208l175 -180l-120 -106l-224 232l62 54h-238l57 -49l-225 -234l-118 107l173 176h-221v134h105v435l698 59l12 -136l-554 -47v-60h578v-132h-192v-119h240v-134zM549 378h-231v-119h231v119z" />
    <glyph glyph-name="uni5176" unicode="&#x5176;" 
d="M944 74h-223l215 -100l-60 -127l-273 128l47 99h-294l46 -98l-275 -128l-59 127l212 99h-227v120h126v367h-105v120h105v70h158v-70h304v70h158v-70h124v-120h-124v-367h145v-120zM337 561v-46h304v46h-304zM641 395h-304v-40h304v40zM641 194v41h-304v-41h304z" />
    <glyph glyph-name="uni5177" unicode="&#x5177;" 
d="M942 55h-216l212 -84l-61 -130l-297 122l46 92h-254l45 -89l-287 -125l-62 123l207 91h-229v130h112l1 556h671v-556h112v-130zM316 611v-30h356v30h-356zM672 483h-356v-34h356v34zM316 351v-34h356v34h-356zM316 185h356v34h-356v-34z" />
    <glyph glyph-name="uni5178" unicode="&#x5178;" 
d="M949 64h-275l265 -105l-61 -130l-297 122l57 113h-276l56 -110l-287 -125l-62 123l254 112h-273v130h65l1 476h211v80h143v-80h55v80h143v-80h210v-476h71v-130zM271 427h56v123h-56v-123zM470 550v-123h55v123h-55zM668 550v-123h55v123h-55zM276 194h51v113h-51v-113z
M470 307v-113h55v113h-55zM728 307h-60v-113h60v113z" />
    <glyph glyph-name="uni5179" unicode="&#x5179;" 
d="M888 141l52 -281l-118 -23l-10 56l-278 -39l-50 115l19 -104l-118 -23l-10 56l-278 -39l-51 117l165 221l-116 -11l-45 123l170 222h-169v140h205l-18 54l147 49l34 -103h160l48 106l142 -63l-20 -43h199v-140h-98l-160 -202l63 4l79 105l127 -78l-177 -240zM648 192
l-116 -11l-45 123l173 227h-251l-156 -197l63 4l79 105l127 -78l-177 -240l106 21l32 -175zM353 21l-17 92l-78 -106zM790 16l-17 92l-78 -106z" />
    <glyph glyph-name="uni517B" unicode="&#x517b;" 
d="M869 -9l-160 132v-274h-153v307h113l-70 58h-189l-51 -41l84 -19l-75 -312l-151 28l64 240l-153 -123l-90 106l160 121h-125v130h326l7 34h-274v123h296l6 36h-324v129h140l-14 63l155 32l19 -95h178l20 95l155 -30l-14 -65h142v-129h-299l-7 -36h284v-123h-306l-6 -34
h372v-130h-123l156 -117z" />
    <glyph glyph-name="uni517C" unicode="&#x517c;" 
d="M869 -151l-176 148v-146h-154v258h-96v-258h-154v130l-165 -132l-88 114l186 146h-92v115h173v34h-236v114h236v36h-173v114h159v39h-234v120h195l-14 44l147 49l31 -93h172l43 96l142 -63l-15 -33h189v-120h-244v-1l-3 1h-5v-39h184v-123h66v-152h-66v-138h-96l179 -150
zM539 522v39h-96v-39h96zM539 408h-96v-36h96v36zM679 408v-36h76v36h-76zM539 258h-96v-34h96v34zM755 258h-76v-34h76v34zM289 53v56h-48zM693 45l58 64h-58v-64z" />
    <glyph glyph-name="uni517D" unicode="&#x517d;" 
d="M912 285h-824v406h148l-9 39l162 25l13 -64h196l13 64l162 -25l-9 -39h148v-406zM232 577v-37h202v37h-202zM768 577h-202v-37h202v37zM232 399h202v37h-202v-37zM768 399v37h-202v-37h202zM937 265v-104h-875v104h875zM125 139h750v-279h-750v279zM283 -24h434v50h-434
v-50z" />
    <glyph glyph-name="uni5180" unicode="&#x5180;" 
d="M297 603v16h-211v92h211v39h158v-266h-158v34l-225 -13l-4 87zM933 484l-394 1v265h158v-52l193 29l22 -89l-215 -34v-41h158v44h78v-123zM950 -7h-228l225 -40l-27 -108l-319 68l21 80h-236l21 -72l-303 -78l-32 107l185 43h-206v85h201v23h-177v81h177v23h-158v268h810
v-268h-157v-23h175v-81h-175v-23h203v-85zM252 375h172v20h-172v-20zM574 375h172v20h-172v-20zM252 285h172v18h-172v-18zM574 285h172v18h-172v-18zM589 182v23h-179v-23h179zM589 101h-179v-23h179v23z" />
    <glyph glyph-name="uni5181" unicode="&#x5181;" 
d="M410 16h-104v-166h-128v166h-127v107h127v77h-121v427h60l-33 94l101 35l44 -118l-35 -11h63l41 127l106 -32l-32 -95h50v-427h-116v-77h104v-107zM902 18l57 -117l-116 -50l-129 294h-19v-165l54 27l38 -89l-151 -74l-57 86v215h-25l-12 -299l-134 7l48 866h475v-253
h-42v-59h52v-96h-52v-69h62v-97h-110l21 -44l75 35l33 -87zM573 563h233v59h-232zM196 539h-39v-85h39v85zM322 539h-40v-85h40v85zM613 407v59h-46l-2 -59h48zM781 407v59h-59v-59h59zM196 373h-39v-85h39v85zM322 288v85h-40v-85h40zM613 311h-52l-3 -69h55v69zM781 311
h-59v-69h59v69z" />
    <glyph glyph-name="uni5182" unicode="&#x5182;" 
d="M895 696v-836h-289v128h129v568h-467v-706h-160v846h787z" />
    <glyph glyph-name="uni5185" unicode="&#x5185;" 
d="M911 633v-777h-293v130h137v507h-188l-68 -184l139 48l100 -273l-147 -53l-98 261l-101 -272l-145 60l149 413h-151v-637h-156v777h332l10 124l159 -7l-7 -117h328z" />
    <glyph glyph-name="uni5188" unicode="&#x5188;" 
d="M933 738v-879h-288v130h132v609h-533v-749h-156v889h845zM508 167l-136 -150l-121 105l145 161l-130 134l115 111l122 -126l118 130l119 -107l-125 -139l150 -155l-113 -113z" />
    <glyph glyph-name="uni5189" unicode="&#x5189;" 
d="M111 210v483h309v58h162v-58l306 -1v-482h65v-137l-65 -1v-224l-277 1v130h122v94h-457v-224h-165v224h-64v137h64zM271 451l146 1v104h-146v-105zM577 452h151v104h-151v-104zM271 210h146v105l-146 -1v-104zM577 210h151v105h-151v-105z" />
    <glyph glyph-name="uni518C" unicode="&#x518c;" 
d="M950 268h-45v-408h-216v128h62l-1 280h-86l-12 -415l-152 5l13 410h-37v-408h-215v128h64v280h-86l-28 -420l-156 12l28 408h-30v138h40l22 325h362v-325h41l10 325h378v-325h44v-138zM325 406v191h-64l-13 -191h77zM750 406l-1 191h-75l-6 -191h82z" />
    <glyph glyph-name="uni518D" unicode="&#x518d;" 
d="M953 154v-122l-66 -1v-174l-276 1v109h118v65h-458v-183h-158v183h-66v122h66v383h308v53h-369v120h894v-120h-369v-53h310v-383h66zM421 418h-150v-74h150v74zM729 418h-152v-74h152v74zM421 230l-150 -1v-75h150v76zM729 230h-152v-76h152v76z" />
    <glyph glyph-name="uni5192" unicode="&#x5192;" 
d="M758 375v233h-516v-233h-155v363h826v-363h-155zM289 496v78h424v-78h-424zM289 388v78h424v-78h-424zM149 -149v508h710v-508h-710zM309 221h390v30h-390v-30zM309 90h390v30h-390v-30zM309 -41h390v30h-390v-30z" />
    <glyph glyph-name="uni5195" unicode="&#x5195;" 
d="M937 29v-169h-446v144l-352 -178l-62 123l176 91h-156v180l-45 42l173 168h-138v294h826v-294h-155v189h-516v-173l34 33l13 -13v40h424v-63h-400l29 -29h502v-101l-25 -30h86v-243h-267l1 -80h179v70zM289 528v63h424v-63h-424zM664 313h-363l-33 -30h371zM253 133h169
v58h-169v-58zM749 191h-171v-58h171v58z" />
    <glyph glyph-name="uni5196" unicode="&#x5196;" 
d="M932 412h-160l-1 126h-544v-126h-160v259h863z" />
    <glyph glyph-name="uni5197" unicode="&#x5197;" 
d="M768 463v118h-539v-108h-156v248h851v-258h-156zM768 439v-448h60v150h110v-280h-330v438h-247l-141 -446l-153 40l164 546h537z" />
    <glyph glyph-name="uni5199" unicode="&#x5199;" 
d="M327 399l-3 -54h573v-489l-426 1v128h266v228l-582 1l19 287h-111v226h871v-226h-72l-1 -102h-534zM216 595v-25h119l-2 -44l464 -1v70h-581zM696 34h-632v128h632v-128z" />
    <glyph glyph-name="uni519B" unicode="&#x519b;" 
d="M924 501v-128h-849v128h849zM948 -34h-339v-117h-159v117h-401v134h401v72h-287l-26 119l216 309h-111v-79h-153v208h829v-208h-137v79h-400l125 -46l-178 -255h122v56h159v-56h265l-1 -128h-264v-71h339v-134z" />
    <glyph glyph-name="uni519C" unicode="&#x519c;" 
d="M651 98l19 -146l-269 -99l-81 85v275l-146 -238l-138 81l303 493h-103v-113h-153v251h341l50 82l162 -42l-25 -40h303v-229h-137v91h-250l-147 -239l96 -1v-282zM969 -24l-121 -97l-365 495l127 86l113 -152l114 85l85 -116l-114 -85z" />
    <glyph glyph-name="uni51A0" unicode="&#x51a0;" 
d="M104 502h-41v223h875v-223h-87v-24h84v-122h-84v-353h-266v118h119v235h-178v122h178v72h83v53h-574v-77h264v-126h-373v102zM940 78v-219h-620v363h-55l-53 -376l-148 16l48 360h-42v128h443v-128h-43v-240h414v96h56zM590 152l-55 153l95 29l51 -152z" />
    <glyph glyph-name="uni51A2" unicode="&#x51a2;" 
d="M816 -135l-216 290l-3 -296h-263v93l-168 -95l-65 102l339 194v41l-68 -40l10 -16l-79 -47l-10 18l-145 -84l-66 103l151 87l-12 21l77 44l12 -20l119 69l-9 39l-261 -151l-65 102l159 91h-114v66h-56v251h831v-251h-60v-66h-279l19 -104l183 96l64 -112l-126 -66
l208 -282zM241 589v-48h515v48h-515zM440 -30v41l-73 -41h73z" />
    <glyph glyph-name="uni51A4" unicode="&#x51a4;" 
d="M814 455l-63 -57h112v-287h-326l-27 -20h131l1 -127h133v88l142 -1v-193h-436v212l-307 -225l-94 103l232 163h-169v184l-82 59l134 156h-132v220h871v-220h-120v-55zM216 535l64 75h-64v-75zM797 610h-431l63 -43l-14 -16h382v59zM551 398l63 57h-286l-51 -57h274z
M430 215v80h-135v-80h135zM711 295h-135v-80h135v80zM661 82l85 10l13 -110l-85 -10z" />
    <glyph glyph-name="uni51A5" unicode="&#x51a5;" 
d="M948 34h-198l196 -67l-53 -122l-319 116l36 73h-225l37 -72l-323 -119l-50 118l203 73h-200v122h367l-5 22l113 20h-376v312h-88v220h871v-220h-92v-312h-280l10 -42h376v-122zM216 610v-38h581v38h-581zM692 462h-391v-33h391v33zM301 308h391v33h-391v-33z" />
    <glyph glyph-name="uni51AB" unicode="&#x51ab;" 
d="M321 455l-154 -27l-41 253l154 27zM239 -126l-152 49l123 414l154 -41z" />
    <glyph glyph-name="uni51AC" unicode="&#x51ac;" 
d="M970 274l-75 -136l-370 162l-179 -76l405 -49l-15 -130l-470 58l12 92l-156 -66l-61 134l273 116l-98 55l-69 -93l-129 94l260 354l150 -66l-31 -42h476v-136l-201 -152zM671 547h-347l195 -109zM119 83l763 -92l-20 -137l-762 92z" />
    <glyph glyph-name="uni51AF" unicode="&#x51af;" 
d="M935 370v-510h-375v120h221v270h-421v275h144v-155h212v222h-406v128h560v-350h65zM116 445l-40 203l157 32l40 -203zM160 333l145 -40l-109 -399l-149 43zM748 52h-433v128h433v-128z" />
    <glyph glyph-name="uni51B0" unicode="&#x51b0;" 
d="M854 341l107 -427l-135 -38l-138 556v-574l-225 -1v129h67v761h158v-190l105 29l23 -91l63 73l95 -91zM116 435l-40 203l137 27l40 -203zM507 397l-152 -520l-131 51l144 490h-87v136h226v-157zM294 293l-114 -399l-133 43l113 396z" />
    <glyph glyph-name="uni51B1" unicode="&#x51b1;" 
d="M950 21v-132h-659v132h393l11 97h-344l62 465h-93v132h614v-132h-364l-12 -91h335l-53 -471h110zM139 419l-50 256l145 29l50 -256zM709 242l14 126h-182l-17 -126h185zM322 299l-121 -408l-147 46l120 405z" />
    <glyph glyph-name="uni51B2" unicode="&#x51b2;" 
d="M944 121h-228v-271h-149v271h-227v487h227v142h149v-142h228v-487zM116 435l-51 254l154 27l51 -254zM567 251v227h-74v-227h74zM791 478h-75v-227h75v227zM160 333l149 -44l-114 -399l-148 47z" />
    <glyph glyph-name="uni51B3" unicode="&#x51b3;" 
d="M942 343v-140h-350l-169 -363l-154 69l152 294h-117v140h156l9 140h-138v140h147l9 130l159 -8l-9 -122h229v-280h76zM144 407l-67 219l140 48l67 -223zM710 483h-82l-10 -140h92v140zM296 293l-116 -399l-143 43l115 396zM730 192l147 -273l-130 -70l-149 274z" />
    <glyph glyph-name="uni51B5" unicode="&#x51b5;" 
d="M939 90v-222h-314v395h-34l-186 -402l-143 56l162 346h-80v450h538v-450h-106v-271h63v98h100zM116 435l-40 203l154 27l40 -203zM500 403h226v170h-226v-170zM309 289l-114 -399l-148 47l113 396z" />
    <glyph glyph-name="uni51B6" unicode="&#x51b6;" 
d="M823 355l-461 -20l-34 120l150 308l145 -65l-111 -218l273 10l-43 150l131 36l94 -329l-131 -37zM149 435l-53 258l147 28l53 -258zM180 353l150 -44l-134 -449l-149 47zM366 297h557v-437h-557v437zM522 -6h246v171h-246v-171z" />
    <glyph glyph-name="uni51B7" unicode="&#x51b7;" 
d="M677 355h213v-134l-167 -204l102 -47l-65 -130l-400 180l75 130l161 -74l124 147h-395v127l-95 100l26 24l-140 -29l-40 203l157 32l38 -193l324 293l120 -95l-22 -19l277 -171l-85 -130l-302 203l-242 -213h201l-27 125l135 25zM160 333l145 -40l-109 -399l-149 43z" />
    <glyph glyph-name="uni51BB" unicode="&#x51bb;" 
d="M930 225h-196v-375h-249v126h89v249h-209l-45 126l69 189h-74v134h123l34 94l154 -41l-20 -53h334v-134h-383l-66 -179h93v144h150v-144h196v-136zM146 455l-43 233l137 27l43 -233zM301 330l-104 -429l-143 36l103 426zM500 165l-95 -301l-135 43l95 300zM981 -93
l-135 -43l-92 301l135 42z" />
    <glyph glyph-name="uni51BC" unicode="&#x51bc;" 
d="M765 238v-245h97v110h77v-236l-333 -1v372h-29l-146 -384l-146 48l125 336h-104v134h238v135l-85 -1l-23 -113l-149 23l66 313l148 -20l-14 -69h57v110h159v-110h224v-132l-224 -1v-135h239v-134h-177zM114 435l-40 203l147 32l40 -203zM301 280l-114 -399l-143 46
l113 396z" />
    <glyph glyph-name="uni51BD" unicode="&#x51bd;" 
d="M925 739v-884h-258v126h115v758h143zM96 475l-40 223l137 27l40 -223zM304 706h335v-128h-149l-34 -123h181v-129l-170 -475l-143 51l76 197l-101 36l26 71l-75 19l99 353h-51zM755 61h-98v567h98v-567zM106 349l138 -19l-50 -448l-138 14zM420 327l-29 -102l51 -16
l46 118h-68z" />
    <glyph glyph-name="uni51C0" unicode="&#x51c0;" 
d="M950 355v-129h-49v-169h-232v-197h-261v106h105v91h-175v124h175v51h-199v117h199v50h-155v112l-25 8l89 247l148 -44l-7 -20h275v-128l-23 -51h86v-168h49zM129 421l-57 264l154 27l57 -264zM655 523l20 52h-158l-18 -52h156zM756 399h-87v-50h87v50zM160 333l149 -44
l-114 -399l-148 47zM756 232h-87v-51h87v51z" />
    <glyph glyph-name="uni51C4" unicode="&#x51c4;" 
d="M893 249h-284l29 -12l-17 -24h329v-110h-90l-86 -87l170 -55l-64 -115l-244 85l-293 -88l-56 112l160 43l-104 48l40 57h-96v110h172l25 36h-148v88h177v31h-226v86h226v31h-177v88h177v30h-217v107h217v39h164v-39h259v-107h-259v-30h216v-99h57v-126h-57v-99zM116 425
l-40 203l157 32l40 -203zM745 485h-79v-31h79v31zM745 368h-79v-31h79v31zM305 293l-109 -399l-149 43l113 396zM544 103l-19 -27l95 -39l67 66h-143z" />
    <glyph glyph-name="uni51C6" unicode="&#x51c6;" 
d="M788 528v-92h127v-124h-127v-92h127v-124h-127v-96h145v-130h-426v-19h-160v502l-114 68l18 32l-135 -28l-44 234l157 32l39 -208l167 291l140 -71l-26 -47h82l-15 82l167 17l18 -99h132v-128h-145zM628 528h-121v-92h121v92zM160 333l145 -40l-109 -399l-149 43z
M628 312h-121v-92h121v92zM628 96h-121v-96h121v96z" />
    <glyph glyph-name="uni51C7" unicode="&#x51c7;" 
d="M500 125l-22 147v-423h-148v602h-7l-27 -371l-65 10l32 361h-18v128h83v171h150v-171h46v-118l75 284l126 -35l-93 -385l-132 45l21 81h-43v-123l52 17l35 -210zM838 325l-93 385l126 35l99 -375zM96 455l-40 213l137 32l40 -213zM850 -150l-25 80l-235 -60l-60 120
l135 435l135 -35l-116 -363l105 17l-39 126l125 35l100 -305zM245 340l-69 -416l-149 33l83 406z" />
    <glyph glyph-name="uni51C9" unicode="&#x51c9;" 
d="M944 565h-606v130h217l-4 55l160 7l4 -62h229v-130zM150 440l-48 247l145 28l48 -247zM722 175v-320h-279v113h121v207h-206v350h561v-350h-197zM512 299h252v102h-252v-102zM316 327l-104 -429l-151 39l103 426zM523 84l-143 -205l-113 80l146 204zM981 -30l-108 -80
l-137 184l108 76z" />
    <glyph glyph-name="uni51CB" unicode="&#x51cb;" 
d="M940 719v-860h-259v93h-186v303h270v-286h20v627h-304l-22 -745l-156 4l26 864h611zM119 421l-51 264l154 27l51 -264zM568 387v36h-72v100h72v53h123v-53h71v-100h-71v-36h79v-100h-281v100h79zM309 289l-114 -399l-148 47l113 396zM655 161h-55v-115h55v115z" />
    <glyph glyph-name="uni51CC" unicode="&#x51cc;" 
d="M950 433h-188l182 -70l-40 -79h10v-108l-122 -140l153 -68l-81 -125l-222 117l-243 -116l-84 122l158 61l-38 28l74 96l121 -77l96 98h-240l-68 -116l-118 70l99 161l-54 -22l-45 103l178 65h-158v120h228v43h-192v118h192v37h158v-37h210v-118h-210v-43h244v-120z
M146 455l-43 233l137 27l43 -233zM663 358l39 75h-156l35 -73l-73 -30l57 -25l-12 -21h287zM301 323l-104 -429l-143 36l103 426z" />
    <glyph glyph-name="uni51CF" unicode="&#x51cf;" 
d="M900 -20h51v-120h-166l-14 104l-73 -118l-111 62l44 67h-176v335h243v-233l49 75l-50 379h-249l-41 -674l-146 8l26 393l-99 -364l-141 43l113 396l130 -38l24 360h319l-15 80l137 19l18 -99h53l-8 84l77 9l9 -93h46v-124h-119l22 -178l51 128l68 -137l-91 -216zM141 428
l-44 233l132 29l44 -233zM700 363h-250v102h250v-102zM600 214h-37v-143h37v143z" />
    <glyph glyph-name="uni51D1" unicode="&#x51d1;" 
d="M870 113h60v-102h-98l84 -113l-122 -57l-128 170h-79l-119 -170l-122 52l80 118h-115v102h84l-112 49l82 149h-55v113h191l10 38h-148v98h173l9 36h-205v114h234l12 48l141 -25l-5 -23h178v-114h-205l-9 -36h193v-98h-216l-9 -38h268v-113h-50l83 -154zM116 415l-60 263
l144 27l60 -263zM299 279l-114 -389l-138 47l113 386zM521 311l-24 -45h253l-24 45h-205zM494 113l38 55h-61v49l-56 -104h79zM659 113h174l-49 90v-35h-87z" />
    <glyph glyph-name="uni51DB" unicode="&#x51db;" 
d="M942 592h-657v108h250l-5 36l155 20l8 -56h249v-108zM116 455l-40 203l157 32l40 -203zM915 259h-595v312h595v-312zM772 492l-309 -2v-150h309v152zM732 363h-229v105h229v-105zM659 429h-83v-27h83v27zM305 340l-109 -416l-149 43l113 396zM320 237h595v-90h-595v90z
M952 -56l-64 -89l-167 120l41 52h-65v-167h-251v78h95v89h-92l41 -52l-177 -121l-73 91l129 82h-84v100h665v-100h-117z" />
    <glyph glyph-name="uni51DD" unicode="&#x51dd;" 
d="M953 627l-121 -126l33 -22l-29 -45h112v-153h-97v37h-20v-104h97v-116h-97v-102l117 -25l-24 -129l-210 42l-44 30l-7 -66l-111 12l3 30l-83 -35l-71 146l-79 -158l-129 62l85 168h-45v107h104l9 65h-22l-15 -46l-89 25l58 181h-33v345h148v-55l146 18l11 -97l-157 -21
v-72h63v42h104v-160h-279l86 -25l-8 -24h175v-111h-48l-9 -65h75v-107h-115l-25 -52l74 38l71 -148l31 340l98 -9l-16 -184l29 -20v280h-120v116h143l-103 67l64 95l40 -25l39 42h-170v116h361v-102zM98 431l-44 236l125 27l44 -236zM219 311l-65 -421l-129 18l65 416z" />
    <glyph glyph-name="uni51E0" unicode="&#x51e0;" 
d="M720 711v-720h74v188h145v-322l-379 -1v715h-221l-124 -728l-160 26l143 842h522z" />
    <glyph glyph-name="uni51E1" unicode="&#x51e1;" 
d="M754 711v-710h74v178h111v-322l-349 -1v715h-251l-124 -728l-160 26l143 842h556zM564 231l-132 -62l-99 210l132 64z" />
    <glyph glyph-name="uni51E4" unicode="&#x51e4;" 
d="M946 -4v-129h-261v708h-422l-62 -726l-158 11l74 851h726v-715h103zM558 153l122 -142l-113 -96l-106 124l-95 -129l-128 78l123 168l-84 98l112 96l61 -71l35 81l-198 1v134h360l-1 -135z" />
    <glyph glyph-name="uni51EB" unicode="&#x51eb;" 
d="M774 253h-652v443h198l8 56l158 -14l-6 -42h381v-292h-263v86h105v82h-423v-193h649v-291h-218v96h63v69zM346 467l26 88l203 -60l-27 -88zM939 59v-197l-417 -1v236h-220l-82 -270l-147 46l105 342h502v-231h134v75h125z" />
    <glyph glyph-name="uni51ED" unicode="&#x51ed;" 
d="M379 715l530 28l3 -125l-526 -28q-7 126 -7 125zM131 388l-98 115l193 259l125 -65l-101 -142h51v-306h-148v170zM938 547v-125h-214v-47h184v-123l-522 1v122h182v48h-215v124h215v98h156v-98h214zM834 114h94v-251h-332l-1 225h-259l-151 -251l-137 82l184 295h519
v-230h83v130z" />
    <glyph glyph-name="uni51EF" unicode="&#x51ef;" 
d="M222 572v178h116v-178h45v128h117v-266h-440v266h117v-128h45zM864 713v-710h31v175h47v-307h-223v704h-43l-44 -725l-144 10l51 853h325zM349 264h-294v137h429v-321h-268v-79l253 30l12 -136l-366 -46l-49 99v269h283v47z" />
    <glyph glyph-name="uni51F0" unicode="&#x51f0;" 
d="M949 -3v-136h-232v722h-465l-37 -739l-160 15l50 864h770v-726h74zM510 567l-4 -27h187v-321h-429v321h115l6 39zM560 446h-163v-28h163v28zM560 341h-163v-28h163v28zM545 -41h162v-100h-461v100h169v23h-142v96h142v23h-155v98h435v-98h-150v-23h135v-96h-135v-23z" />
    <glyph glyph-name="uni51F3" unicode="&#x51f3;" 
d="M789 203h151v-103h-880v103h137l-7 28l128 19h-158v135l-71 -28l-49 104l97 42l-39 41l82 76l63 -69l57 83h-235v96h385v-96l-38 -62h148l-80 123l120 65l59 -88l81 88l100 -90l-105 -114l5 -7l46 -20l84 91l90 -90l-49 -58l16 -7l-58 -103l-49 19v-131h-495l13 -47h309
l14 47l135 -20zM355 480l-12 -19h289l-12 19h-265zM305 336h370v40l-370 2v-42zM834 22h94v-150h-332l-1 112h-252l-103 -145l-134 69l126 176h519v-121h83v59z" />
    <glyph glyph-name="uni51F5" unicode="&#x51f5;" 
d="M72 -128v875h146v-736h554v736h146v-875h-846z" />
    <glyph glyph-name="uni51F6" unicode="&#x51f6;" 
d="M258 153l159 264l-145 238l134 79l101 -168l108 180l133 -78l-151 -252l159 -263l-131 -80l-117 193l-116 -193zM933 626v-753h-865v753h158v-611h549v611h158z" />
    <glyph glyph-name="uni51F8" unicode="&#x51f8;" 
d="M713 716v-310h195v-524h-814v524h189v310h430zM563 582h-132v-312h-185v-252h510v252h-193v312z" />
    <glyph glyph-name="uni51F9" unicode="&#x51f9;" 
d="M461 699l1 -327h74v327h366v-812l-805 1v811h364zM674 239l-351 1v323h-72v-538h497v538h-74v-324z" />
    <glyph glyph-name="uni51FA" unicode="&#x51fa;" 
d="M236 219v-207h183v292l-316 1v363h156v-224h160v304h160v-304h160v224h155v-364h-315v-292h183l1 207h155v-347h-837l-1 347h156z" />
    <glyph glyph-name="uni51FB" unicode="&#x51fb;" 
d="M576 264v-261h158l1 206h156l-1 -346h-787l-1 346h156v-206h158v261l-366 1v139h366v115h-318v136h318v94h160v-94h327v-136h-327v-115h371v-140h-371z" />
    <glyph glyph-name="uni51FC" unicode="&#x51fc;" 
d="M933 626v-749h-865v749h138v-459l77 311h-51v134h174v-140l-101 -414l-99 34v-87h579v93l-116 -36l-96 466v-506h-224v118h77v609h147v-136l100 20l10 -46l54 33l48 -90v96h148zM785 127v389l-76 -45z" />
    <glyph glyph-name="uni51FD" unicode="&#x51fd;" 
d="M919 513v-644h-840v644h150v-43l115 53l68 -167l-97 -39l99 -78l-119 -146l-66 56v-146h540v148l-95 -58l-95 166l115 63l-115 59l72 139l-76 -54v-435h-234v114h89v361l128 97h-394v132h645l-1 -104l-132 -93l93 -54v29h150zM769 197v258l-66 -135zM229 455v-231l67 85
l-9 -4z" />
    <glyph glyph-name="uni51FF" unicode="&#x51ff;" 
d="M933 551v-124h-866v124h87l-37 116l122 37l46 -153h30v200h142v-200h85v200h142v-200h36l45 150l122 -37l-36 -113h82zM430 175v50h-125v96h54l-25 70l101 35l39 -105h50l39 105l101 -35l-25 -70h49v-96h-124v-50h135v-96h-135v-62h-134v62h-137v96h137zM734 379h152
v-507h-772v508h150v-384h470v383z" />
    <glyph glyph-name="uni5200" unicode="&#x5200;" 
d="M900 711v-853h-420v140h260v573h-197l-336 -720l-151 52l310 668h-291v140h825z" />
    <glyph glyph-name="uni5201" unicode="&#x5201;" 
d="M79 570v140h819v-854h-420v134h260v580h-659zM164 69l-79 137l516 292l77 -137z" />
    <glyph glyph-name="uni5202" unicode="&#x5202;" 
d="M746 748h158l1 -887h-331l1 128h171v759zM697 95h-135l-1 536h136v-536z" />
    <glyph glyph-name="uni5203" unicode="&#x5203;" 
d="M890 712v-851h-420v134h260v577h-140l-273 -721l-151 52l254 669h-321v140h791zM196 176l-147 59l114 284l146 -60z" />
    <glyph glyph-name="uni5206" unicode="&#x5206;" 
d="M866 289l-52 64v-491h-341l1 138h180v242h-151l-262 -389l-129 90l201 299h-128v123l-60 -72l-116 107l324 386l116 -106l-249 -298h591l-243 301l123 98l317 -393z" />
    <glyph glyph-name="uni5207" unicode="&#x5207;" 
d="M915 709v-844h-264v133h106v575h-91l-92 -723l-155 18l17 136l-193 -142l-91 95v386l-95 -8l-12 139l107 9v265h156v-252l121 10l11 -139l-132 -11v-289l64 47l65 -101l72 560h-110v136h516z" />
    <glyph glyph-name="uni5208" unicode="&#x5208;" 
d="M444 329l105 -451l-160 -29l-84 399l-102 -399l-165 29l125 452l-104 392l171 31l76 -339l74 339l164 -31zM915 749v-889h-279v128h123v761h156zM712 83h-146v584h146v-584z" />
    <glyph glyph-name="uni520A" unicode="&#x520a;" 
d="M915 749v-894h-266v130h108v764h158zM378 381h164v-135h-164l-2 -396h-160l2 396h-169v135h169l1 195h-156v131h455v-131h-139zM703 60h-123v594h123v-594z" />
    <glyph glyph-name="uni520D" unicode="&#x520d;" 
d="M900 443v-570h-793v134h633v87h-605v130h605v85h-575v73l-27 -35l-118 79l254 345l134 -70l-17 -22h393v-126l-108 -110h224zM211 443h266l107 110h-289z" />
    <glyph glyph-name="uni520E" unicode="&#x520e;" 
d="M265 684h339v-820h-242v124h95v371l-144 -476l-126 41l191 611l79 -29v42h-239l-68 -195l-104 35l123 379l115 -28zM919 749v-889h-243v128h93v761h150zM739 103h-105v544h105v-544zM334 494l-172 -533l-114 44l169 522z" />
    <glyph glyph-name="uni5211" unicode="&#x5211;" 
d="M919 749v-892h-283v138h133v754h150zM517 376h81v-140h-81v-380h-152v380h-96l-31 -381l-154 11l31 370h-59v140h71l17 204h-68v140h501v-140h-60v-204zM739 104h-115v544h115v-544zM365 376v204h-68l-17 -204h85z" />
    <glyph glyph-name="uni5212" unicode="&#x5212;" 
d="M327 374l14 -111l124 99l90 -113l-193 -156l13 -101h168v-133h-312l-15 116l-108 -88l-88 119l174 140l-27 213l-102 -9l-10 139l94 9l-30 238l161 15l30 -239l243 22l8 -138zM354 547l-31 176l136 26l31 -177zM919 749v-892h-293v138h143v754h150zM729 104h-122v544h122
v-544z" />
    <glyph glyph-name="uni5216" unicode="&#x5216;" 
d="M920 745v-885h-294v130h140v755h154zM90 725h455v-865h-265v128h115v134h-179l-13 -272l-153 10zM713 95h-118v545h118v-545zM238 589l-5 -111h162v111h-157zM395 244v112h-168l-5 -112h173z" />
    <glyph glyph-name="uni5217" unicode="&#x5217;" 
d="M919 749v-889h-283v128h133v761h150zM88 706h485v-140h-196l-46 -91h226l1 -149l-247 -494l-128 57l105 209l-93 53l62 124l94 -50l55 110h-145l-98 -197l-126 60l182 368h-131v140zM726 103h-125v544h125v-544z" />
    <glyph glyph-name="uni5218" unicode="&#x5218;" 
d="M392 665h184v-141h-40l-124 -309l139 -296l-138 -69l-99 208l-97 -211l-149 67l132 275l-116 217l139 69l70 -128l71 177h-310l-1 141h184l-16 62l143 35zM929 -139h-325l1 128h171v749h152zM735 95h-135l-1 536h136v-536z" />
    <glyph glyph-name="uni5219" unicode="&#x5219;" 
d="M929 -139h-331l1 128h171v759h158zM349 135l-167 -292l-125 71l136 229h-126v584h481l2 -579h-145v446h-193v-421l3 5l37 341l143 -16zM729 95h-135l-1 539h136v-539zM444 135l115 -224l-128 -65l-114 224z" />
    <glyph glyph-name="uni521A" unicode="&#x521a;" 
d="M919 749v-889h-243v126h97v763h146zM78 717h534v-858h-263v124h132v65l-101 -25l-35 154l-43 -155l-88 28v-201h-136v868zM745 103h-105v544h105v-544zM214 587v-62l91 36l41 -159l47 160l88 -31v56h-267zM274 302l-60 168v-336zM481 102v364l-61 -172z" />
    <glyph glyph-name="uni521B" unicode="&#x521b;" 
d="M465 63h128v-193h-477v520l-16 -14l-79 132l315 266l124 -94l-8 -7l135 -98v76h152v-576h-151l-1 350l-18 -30l-21 16v-310h-228v100h75v123h-124v-320h194v59zM934 -139h-306l1 128h150v757h154zM195 456h294l-155 118z" />
    <glyph glyph-name="uni521D" unicode="&#x521d;" 
d="M383 135l-58 87v-371h-155v310l-45 -70l-112 100l204 317h-164v134h110l-15 84l141 20l16 -104h89v-134l-69 -107v-35l21 -32l66 68l58 -54l-78 -80l60 -87zM911 671v-806h-264v133h106v535h-70l-112 -683l-155 18l110 665h-93v138h478z" />
    <glyph glyph-name="uni5220" unicode="&#x5220;" 
d="M932 749v-889h-238v128h103v761h135zM646 400h20v-130h-20v-410h-157v127h32v283h-43l-10 -420l-109 4l10 416l-23 1v-401h-135v124h30v277h-42l-16 -421l-134 8l17 413h-20v130h25l13 329h262v-329l27 -1l8 330h265v-330zM769 95h-92v544h92v-544zM241 401v194h-30
l-7 -194h37zM521 400v195h-35l-5 -195h40z" />
    <glyph glyph-name="uni5224" unicode="&#x5224;" 
d="M347 247h201v-137h-215l-27 -254l-161 20l25 234h-120v137h135l11 95h-116v137h130l30 272l158 -14l-27 -258h153v-137h-167zM917 -139h-331l1 128h171v759h158zM95 491l-53 176l115 33l53 -176zM444 698l115 -33l-52 -174l-115 33zM586 95l-1 539h136v-539h-135z" />
    <glyph glyph-name="uni5228" unicode="&#x5228;" 
d="M463 66h135v-206h-503v501l-63 17l121 375l147 -43l-13 -39h305v-570h-216v51h-127v-170h214v84zM920 749v-892h-286v138h133v754h153zM737 104h-115v544h115v-544zM248 550l-14 -45h185v-278h35v323h-206zM301 388h-52v-126h52v126z" />
    <glyph glyph-name="uni5229" unicode="&#x5229;" 
d="M935 -139h-331l1 128h171v759h158zM447 303l117 -186l-108 -68l-80 126v-325h-158v350l-60 -227l-129 51l90 307h-66l1 140h164v103l-133 -15l-15 139l450 49l14 -139l-158 -17v-120h174v-140h-174v-71zM727 95h-135l-1 536h136v-536z" />
    <glyph glyph-name="uni522B" unicode="&#x522b;" 
d="M935 -139h-301l1 128h151v759h148zM365 309h222v-438h-3v-2h-289v131h132v174h-110l-118 -331l-155 47l103 284h-91v135h140l27 75h-157v346h512v-345l-324 -1l126 -34zM752 95h-132l-1 536h133v-536zM219 510h206v95h-206v-95z" />
    <glyph glyph-name="uni522D" unicode="&#x522d;" 
d="M935 -139h-331l1 128h173v760h156zM419 499l177 -109l-74 -112l-213 137l-175 -134l-93 114l280 198h-229v129h445v-133zM745 95h-145l-1 536h146v-536zM577 29l9 -130l-523 -36l-9 130l198 14v140h-162v128h471v-128h-149v-129z" />
    <glyph glyph-name="uni522E" unicode="&#x522e;" 
d="M928 -139h-288l1 128h131v761h155zM409 581v-92h182v-150h-182v-100h178v-375h-506v375h179v100h-174v150h174v80l-170 -13l-15 145l508 40l15 -145zM748 95h-131l-1 536h132v-536zM226 99v-95h219v95h-219z" />
    <glyph glyph-name="uni5230" unicode="&#x5230;" 
d="M935 -139h-331l1 128h171v760h158zM511 579l83 -244l-125 -38l-22 63l-313 -34l-70 113l89 152h-93v139h519v-140h-253l-74 -128l154 17l-22 62zM608 95l-1 536h136v-536h-135zM549 20l8 -131l-492 -29l-8 130l177 11v95h-165l1 139h164v90h157v-90h147v-139h-147v-86z
" />
    <glyph glyph-name="uni5233" unicode="&#x5233;" 
d="M485 582l121 -149l-110 -98l-55 72v-37h-229v32l-49 -72l-121 77l121 175h-93v122h190l33 56l157 -33l-12 -23h145v-122h-98zM928 -139h-302l1 128h145v759h155zM747 95h-129l-1 536h130v-536zM351 524l73 58h-90l-66 -97h113zM44 328h546v-126h-302l-8 -59h274v-285
h-425v106h273v69h-286l22 169h-94v126z" />
    <glyph glyph-name="uni5236" unicode="&#x5236;" 
d="M602 -112h-178l1 127h38v130h-54v-296h-145v296h-54v-257h-139v385h193v58h-196v134h196v73h-72l-12 -70l-141 24l51 261l136 -22l-10 -59h48v77h158v-77h168v-134h-168v-73h158v-134h-171v-58h193v-385zM919 749v-887h-285v128h135v759h150zM738 104h-115v544h115v-544z
" />
    <glyph glyph-name="uni5237" unicode="&#x5237;" 
d="M92 752l524 -1v-316h-392l-28 -582l-146 7zM928 -142h-286v129h142v762h143zM652 95l-1 566h97v-566h-96zM234 635l-4 -85l241 1v84h-237zM483 346h131v-382h-131v94h23v185h-33v-393h-105v393h-30v-278h-110v381h130v68h125v-68z" />
    <glyph glyph-name="uni5238" unicode="&#x5238;" 
d="M872 106l-62 49v-296h-307v116h151v128h-167l-237 -262l-125 89l165 173h-113v32l-63 -48l-87 115l161 110h-127v126h332l8 48h-298v126h91l-29 72l137 57l53 -129h67l23 144l159 -17l-20 -127h62l53 128l137 -57l-29 -71h88v-126h-332l-7 -48h380l1 -126h-124l147 -96z
M717 229l-104 83h-206l-108 -83h418z" />
    <glyph glyph-name="uni5239" unicode="&#x5239;" 
d="M559 240h-167v-381h-229v113h75v268h-169v132h169v83h152l-78 49l-183 -107l-68 113l127 73l-117 74l79 108l171 -105l174 101l72 -108l-120 -70l121 -75l-75 -118l-101 64v-82h167v-132zM919 749v-889h-273v128h119v761h154zM724 103h-125v544h125v-544zM221 177
l-89 -290l-118 36l86 293zM526 201l60 -267l-119 -25l-59 262z" />
    <glyph glyph-name="uni523A" unicode="&#x523a;" 
d="M628 -56l-130 -64l-99 194v-225h-145v193l-90 -184l-130 64l109 223h-82v338h187v54h-195v138h195v74h158v-74h190v-138h-190v-54h186v-339h-66zM919 749v-887h-283v128h133v759h150zM738 104h-115v544h115v-544zM254 125v230h-54v-203zM475 144h-61l1 105h38v106h-54
v-249z" />
    <glyph glyph-name="uni523B" unicode="&#x523b;" 
d="M36 183l180 136l-102 -2l-51 100l97 147h-104v134h188l-7 43l148 19l9 -62h200v-134h-246l-84 -128l109 2l122 92l90 -122l-459 -349zM920 -139h-301l1 128h151v759h148zM491 86l125 -142l-111 -98l-129 153l-215 -164l-92 121l459 351l84 -115l-1 439h126v-536h-125v83z
" />
    <glyph glyph-name="uni523D" unicode="&#x523d;" 
d="M628 104v356l-78 -94l-32 29v-84h-368v92l-35 -33l-85 98l320 313l94 -99l-20 -19l204 -194v179h114v-544h-114zM924 749v-888h-286v129h138v759h148zM479 431l-153 139l-147 -139h300zM490 128l117 -233l-118 -54l-19 39l-350 -26l-50 116l108 170h-95v120h491v-120
h-235l-100 -153l173 14l-35 72z" />
    <glyph glyph-name="uni523F" unicode="&#x523f;" 
d="M486 707h128v-228h-361l46 -17l-20 -43h331v-118l-147 -280l-345 -182l-71 128l232 119l-78 96l104 79l72 -89l64 120l-220 2l-60 -129l-115 46l113 268h-90v228h128v-114h64v158h160v-158h65v114zM935 -139h-291l1 128h151v759h138zM762 95h-125l-1 536h126v-536z" />
    <glyph glyph-name="uni5240" unicode="&#x5240;" 
d="M245 574v175h137v-175h50v129h129v-267h-495v267h129v-129h50zM770 748h153l1 -887h-311l1 128h156v759zM733 55h-141l-1 596h142v-596zM400 266h-340v137h495v-323h-312v-79l302 34l12 -136l-425 -50l-53 99v269h321v49z" />
    <glyph glyph-name="uni5241" unicode="&#x5241;" 
d="M928 -139h-302l1 128h145v759h155zM217 382l-148 10l40 331h445v-214h41v-116h-187v204l-167 1zM747 95h-129l-1 536h130v-536zM523 197l93 -267l-121 -44l-94 264v-299h-158v289l-95 -268l-123 46l105 284l113 -40v54h-190v135h190v83h158v-83h190v-135h-190v-63z" />
    <glyph glyph-name="uni5242" unicode="&#x5242;" 
d="M463 394l162 -84l-65 -130l-25 14v-344h-150v360h120l-174 96l-147 -87l108 -14l-70 -360l-149 25l63 321l-36 -21l-80 130l172 91l-99 161h-43v130h209l-8 53l145 15l9 -68h200v-130h-38zM930 750v-890h-289v130h141v760h148zM743 105h-114v555h114v-555zM256 552
l74 -114l74 114h-148z" />
    <glyph glyph-name="uni5243" unicode="&#x5243;" 
d="M594 654v-315h-192v-81h190v-354h-181l1 120h43v116h-62v-291h-145v200l-88 -190l-126 63l104 218h-81v317h180v79h-173v118h91l-21 74l133 32l32 -106h70l32 106l133 -32l-21 -74h81zM924 749v-888h-286v129h138v759h148zM742 104h-114v544h114v-544zM457 457v79h-64
v-79h64zM255 339h-63v-81h63v81zM248 140h-80l80 -40v40z" />
    <glyph glyph-name="uni524A" unicode="&#x524a;" 
d="M599 674l-64 -147h48v-667h-255v120h100v69h-203v-199h-152v677h176v224h155v-224h129l-108 45l63 148zM927 -142h-304v129h160v762h143zM125 528l-59 150l111 46l58 -150zM630 95l-1 566h118v-566h-117zM428 401h-203v-56h203v56zM428 225h-203v-56h203v56z" />
    <glyph glyph-name="uni524C" unicode="&#x524c;" 
d="M558 157l71 -249l-118 -40l-76 289h-31v-308h-155v308h-16l-83 -288l-119 32l77 256h-48l1 349h192v41h-200v138h200v64h148v-64h195v-138h-195v-41h191v-349h-34zM919 749v-887h-283v128h133v759h150zM738 104h-115v544h115v-544zM190 287h69v88h-69v-88zM463 375h-69
v-88h69v88z" />
    <glyph glyph-name="uni524D" unicode="&#x524d;" 
d="M951 687v-130h-890v130h179l-9 52l153 24l13 -76h204l19 76l151 -36l-10 -40h190zM763 528h140l-1 -678l-220 2v129h81v547zM548 518l1 -664l-224 -1v106h77v79h-166v-184h-146l1 664h457zM719 14l-127 2v487h127v-489zM402 388h-166v-59h166v59zM402 213l-166 -1v-58
h166v59z" />
    <glyph glyph-name="uni5250" unicode="&#x5250;" 
d="M919 749v-892h-303v138h153v754h150zM385 360h198v-497h-288v91h138v58l-89 -28l-28 86l-27 -87l-84 34v-154h-150v497h192l3 43h-175v327h495v-327h-182zM739 104h-122v544h122v-544zM221 523h203v87h-203v-87zM205 83l39 145h-39v-145zM433 228h-68l-14 -46l40 13
l42 -131v164z" />
    <glyph glyph-name="uni5251" unicode="&#x5251;" 
d="M600 95v287l-85 -73l-27 34v-50h-344v51l-29 -35l-101 89l306 370l101 -87l-17 -21l196 -243v223h118v-545h-118zM925 745v-885h-308v120h140v765h168zM434 410l-117 145l-119 -145h236zM276 25l-49 215l116 30l49 -219zM546 35l16 -128l-468 -63l-16 129l317 42l33 252
l112 -12l-31 -225zM193 255l59 -233l-109 -29l-59 229z" />
    <glyph glyph-name="uni5254" unicode="&#x5254;" 
d="M919 749v-889h-243v128h93v761h150zM240 334h366v-476h-238v85l-59 -105l-104 62l178 316l83 -47v57h-187l55 -29l-167 -296l-104 61l152 264h-29l-44 -86l-111 48l85 177h-10v365h466v-365h-316zM746 103h-119v544h119v-544zM245 591h187v34h-187v-34zM245 470h187v34
h-187v-34zM466 -40v157l-88 -157h88z" />
    <glyph glyph-name="uni5256" unicode="&#x5256;" 
d="M570 566h-499v126h151l-10 41l155 34l18 -75h185v-126zM928 -139h-298l1 128h136v761h160zM743 95h-136l-1 536h137v-536zM510 417h71v-126h-523v126h76l-28 100l135 34l33 -134h88l33 137l140 -34zM77 246h485v-384h-485v384zM225 -10h189v130h-189v-130z" />
    <glyph glyph-name="uni525C" unicode="&#x525c;" 
d="M244 492h122v-119l-42 -260l-161 -267l-113 75l132 196l-38 99l-15 -59l-89 24l76 335h-49v176h230l-5 53l151 11l5 -64h196v-186h-128v72h-328v-41l62 -13zM929 749v-889h-238v128h103v761h135zM766 95h-103v544h103v-544zM614 28l41 -103l-211 -82l-68 100v552h258
v-401h-127v119h22v163h-34v-396zM159 276l41 14l17 -50l24 133h-58z" />
    <glyph glyph-name="uni525E" unicode="&#x525e;" 
d="M557 431h59v-138h-39v-443h-225v92h-271v327h320v-317h33v341h-386v138h81l-38 36l83 78h-108v135h183v69h156v-69h196v-135h-110l94 -87zM924 749v-888h-286v129h138v759h148zM742 104h-114v544h114v-544zM238 431h190l-72 69l55 45h-50zM279 158h-77v-105h77v105z" />
    <glyph glyph-name="uni5261" unicode="&#x5261;" 
d="M135 280l-95 110l205 172l25 188l155 -15l-31 -179l211 -166l-90 -110l-198 160zM925 745v-885h-288v120h140v765h148zM110 515l-70 155l115 55l65 -150zM500 725l115 -60l-80 -155l-110 60zM738 95h-118v545h118v-545zM524 39l91 -84l-100 -105l-192 180l-173 -180
l-120 95l97 99l-92 136l110 65l75 -106l20 21l35 200l150 -35l-32 -166l34 -31l73 117l110 -65z" />
    <glyph glyph-name="uni5265" unicode="&#x5265;" 
d="M934 749v-889h-248v120h105v769h143zM535 111l102 -102l-89 -93l-137 133v-191h-239v120h83v59l-156 -104l-71 109l227 145v108h-202v120h360v44h-298v115h298v44h-319v120h475v-323h50v-120h-208v-60l36 -36l100 83l81 -93zM766 95h-122v544h122v-544zM42 230l111 65
l65 -112l-111 -64z" />
    <glyph glyph-name="uni5267" unicode="&#x5267;" 
d="M933 749v-886h-279v132h133v754h146zM95 734h525v-312h-148v-56h145v-120h-145v-62h139v-321h-398v321h121v62h-122l-24 -397l-146 10zM761 104h-115v544h115v-544zM234 614l-4 -72h246v72h-242zM335 422h-113l-3 -56h116v56zM471 80h-118v-113h118v113z" />
    <glyph glyph-name="uni5269" unicode="&#x5269;" 
d="M528 277v-79h30v54h56v-143h-159l164 -170l-79 -91l-143 151v-148h-150v145l-136 -148l-75 95l158 166h-78v63l-61 -14l-19 95l80 17v32h-64v107h64v41h104v-314l26 28v306h-197v118h197v35l-173 -14l-9 102l519 41l10 -102l-195 -15v-47h218v-118h-218v-302l26 -27v309
h104v-66l55 33l37 -81zM936 -139h-287l1 128h141v749h144zM759 95h-115v536h115v-536z" />
    <glyph glyph-name="uni526A" unicode="&#x526a;" 
d="M941 705v-112h-880v112h174l-5 38l154 20l8 -58h211l14 63l152 -29l-8 -34h180zM764 576h147l-1 -424l-225 1v79h79v344zM406 232v28h-164v-106h-149l1 417h460l1 -417h-227v78h78zM722 259h-127v285h127v-285zM242 436h164v31h-164v-31zM406 332v33l-164 -1v-32h164z
M94 130h813v-264h-413v104h258v46h-338l-212 -182l-99 100l96 82h-105v114z" />
    <glyph glyph-name="uni526F" unicode="&#x526f;" 
d="M919 749v-892h-303v138h153v754h150zM552 601h-495v121h495v-121zM729 104h-122v544h122v-544zM95 326v224h428v-224h-428zM210 418h198v45h-198v-45zM46 282h533v-421h-533v421zM186 177v-56h71v56h-71zM439 177h-68v-56h68v56zM186 -34h71v56h-71v-56zM439 -34v56h-68
v-56h68z" />
    <glyph glyph-name="uni5272" unicode="&#x5272;" 
d="M178 550h-128v148h205l-5 48l140 13l5 -61h206v-148h-128v46h-295v-46zM935 -139h-331l1 128h171v760h158zM620 95l-1 536h129v-536h-128zM397 284h205v-97h-205v-28h180v-299h-507v299h183v28h-201v97h201v27h-167v97h167v27h-178v97h178v42h144v-42h178v-97h-178v-27
h166v-97h-166v-27zM215 55v-91h218v91h-218z" />
    <glyph glyph-name="uni527D" unicode="&#x527d;" 
d="M940 749v-889h-218v115h82v774h136zM194 617h-139v118h590v-118h-146v-35h138v-247h-571v247h128v35zM779 92h-99v555h99v-555zM379 617h-55v-35h55v35zM244 485h-54v-53h54v53zM379 485h-55v-53h55v53zM459 485v-53h54v53h-54zM105 194v113h491v-113h-491zM601 50
l98 -113l-92 -82l-128 145l57 50h-96v-192h-191v115h56v77h-116l54 -50l-135 -148l-87 82l104 116h-74v115h604v-115h-54z" />
    <glyph glyph-name="uni527F" unicode="&#x527f;" 
d="M545 59l75 -150l-112 -61l-96 210v-207h-152v206l-105 -216l-115 60l85 158h-72v110h207v31h-188v365h64l-93 83l123 111l70 -64l-57 -47l57 -44l-41 -39h128l-90 80l122 112l70 -65l-57 -47l57 -43l-39 -37h127l-94 85l122 111l69 -64l-57 -47l57 -44l-43 -41h30v-365
h-185v-31h201v-110h-68zM929 750v-890h-250v125h103v765h147zM748 95h-117v559h117v-559zM214 423h58v40h-58v-40zM395 423h60v40h-60v-40zM214 299h58v42h-58v-42zM395 299h60v42h-60v-42z" />
    <glyph glyph-name="uni5281" unicode="&#x5281;" 
d="M92 421l-92 39l147 307l111 -47l-21 -43h82l-8 66l152 20l15 -86h132v-114h-123v-63h105v-97h-105v-52h105v-97h-105v-46h133v-114h-382v-23h-146v350zM929 749v-892h-263v138h113v754h150zM749 104h-115v544h115v-544zM333 563h-95v-63h95v63zM333 403h-95v-52h95v52z
M333 254h-95v-46h95v46zM582 78l67 -183l-96 -36l-68 184zM108 62l98 -30l-52 -188l-98 31zM318 46l35 -166l-100 -24l-36 166zM456 46l35 -166l-99 -24l-36 166z" />
    <glyph glyph-name="uni5282" unicode="&#x5282;" 
d="M684 -139v52l-83 -44l-76 185l-54 -205l-94 31l124 465l-65 17v-256h-72l-54 -262l-111 28l50 234h-55v311h63v-219h14v241h-73v102h25l-8 59l82 10l10 -69h34l10 68l79 -10l-8 -58h24v-95l28 165l81 -14l-6 -36h120v-243h-67v25l-36 -137l119 -280v63h122v760h127
l1 -888h-251zM199 619l-43 -768l-117 8l54 872h593v-112h-487zM687 95l-1 536h100v-536h-99zM529 453l-10 -57l83 -17v74h-73zM436 417v-30l9 52h-85v-241h13v219h63z" />
    <glyph glyph-name="uni5288" unicode="&#x5288;" 
d="M931 617h-413v102h140l-3 30l137 11l3 -41h136v-102zM154 200l-131 12l50 515h409v-242h-300l-3 -37h306v-246h-313v178zM197 631l-5 -51h164v51h-159zM796 431v-55h136v-104h-136v-79h-142v79h-125v104h125v55h-142v104h50l-6 58l128 12l9 -70h77l10 72l126 -18l-6 -54
h49v-104h-153zM293 292h70v65h-70v-65zM74 170h853v-304h-383v114h223v76h-376l-162 -217l-127 75l117 142h-145v114z" />
    <glyph glyph-name="uni5290" unicode="&#x5290;" 
d="M163 617v11h-99v101h99v24h136v-24h89v24h136v-24h86v-101h-86v-26h-136v26h-89v-23h-102l58 -21l-4 -8h74l-2 12l130 14l4 -26h145v-86h-136v-23h126v-69h-126v-23h126v-69h-126v-23h139v-88h-520v201l-47 22l106 206zM929 749v-892h-263v138h113v754h150zM749 104h-115
v544h115v-544zM328 490h-99v-23h99v23zM328 398h-99v-23h99v23zM328 306h-99v-23h99v23zM505 3l116 -41l-61 -123l-216 89l-199 -92l-67 118l90 38l-69 33l32 52h-49v97h527v-103zM257 77l83 -39l76 39h-159z" />
    <glyph glyph-name="uni5293" unicode="&#x5293;" 
d="M589 377h-517v341h120l12 51l149 -19l-7 -32h243v-341zM935 748v-884h-260v116h114v768h146zM752 60h-112v587h112v-587zM443 643h-225v-29h225v29zM443 560h-225v-29h225v29zM443 473h-225v-30h225v30zM56 357h549v-236h-549v236zM186 268h91v29h-91v-29zM384 268h91v29
h-91v-29zM186 181h91v29h-91v-29zM384 181h91v29h-91v-29zM52 100h553v-103h-71v-146h-144v146h-113l-87 -154l-123 46l63 108h-78v103z" />
    <glyph glyph-name="uni529B" unicode="&#x529b;" 
d="M892 609v-741h-396v140h236v461h-279l-227 -618l-150 61l206 557h-193v140h244l57 153l155 -42l-41 -111h388z" />
    <glyph glyph-name="uni529D" unicode="&#x529d;" 
d="M920 654v-789h-239v121h83v532h-61l-93 -669l-152 21l18 126l-120 -63l-93 197l-100 -283l-138 54l131 358l-89 200l130 64l68 -157l43 162h-242v132h388v-132l-82 -300l106 -216l72 506h-77v136h96l14 95l150 -16l-11 -79h198z" />
    <glyph glyph-name="uni529E" unicode="&#x529e;" 
d="M843 84l-42 273v-497h-331v133h171v484h-144l-194 -633l-154 44l182 589h-232v141h275l44 141l154 -38l-32 -103h261v-201l121 21l52 -331zM162 79l-129 36l92 298l129 -37z" />
    <glyph glyph-name="uni529F" unicode="&#x529f;" 
d="M922 644v-768h-258v126h100v508h-67l-115 -656l-156 21l111 635h-96v134h120l20 115l156 -21l-16 -94h201zM430 -36l-362 -57l-23 137l108 15v469h-99v134h359v-134h-98v-445l94 13z" />
    <glyph glyph-name="uni52A0" unicode="&#x52a0;" 
d="M309 646h193v-767h-237v131h87v496h-62l-86 -646l-152 20l85 626h-77v140h95l15 108l152 -9zM918 697v-819h-364v819h364zM768 557h-66v-539h66v539z" />
    <glyph glyph-name="uni52A1" unicode="&#x52a1;" 
d="M517 340l-63 -16l131 -19l-36 -87h322v-359h-389v123h230v110h-219l-298 -260l-103 103l181 157h-164v126h268l48 99l-322 -81l-52 132l289 70l-76 54l-60 -79l-120 90l209 275l137 -66l-23 -31h447v-138l-151 -105l244 -63l-67 -134zM659 554h-269l125 -86z" />
    <glyph glyph-name="uni52A2" unicode="&#x52a2;" 
d="M920 591v-731h-226v121h76v470h-74l-63 -602l-146 21l67 581h-51v140h67l18 156l138 -11l-15 -145h209zM58 698h427v-139h-191l-21 -138h195l-5 -561h-207v126h70v309h-72l-66 -441l-146 18l101 687h-86z" />
    <glyph glyph-name="uni52A3" unicode="&#x52a3;" 
d="M580 498h-155v257h155v-257zM861 365l-218 258l101 86l218 -254zM137 411l-84 105l216 175l84 -103zM102 368l624 139l35 -132l-627 -134zM579 205h298v-330h-357v125h197v80h-221l-299 -233l-104 113l151 120h-163v125h311l49 99l168 -25z" />
    <glyph glyph-name="uni52A8" unicode="&#x52a8;" 
d="M924 580v-720h-221v134h73v446h-59l-74 -590l-147 17l7 54l-121 -31l-17 70l-264 -70l-50 118l84 309h-87v140h441v-140h-204l-72 -259l122 29l-24 99l126 28l68 -275l64 501h-72v140h90l21 166l146 -9l-20 -157h190zM452 572h-369v140h369v-140z" />
    <glyph glyph-name="uni52A9" unicode="&#x52a9;" 
d="M922 604v-738h-247v126h99v482h-63l-87 -622l-148 20l7 51l-426 -46l-11 133l38 4v693h370v-655l26 3l8 -96l71 515h-76v130h94l21 153l150 -20l-19 -133h193zM228 481h82v98h-82v-98zM228 262h82v98h-82v-98zM228 29l82 8v114h-82v-122z" />
    <glyph glyph-name="uni52AA" unicode="&#x52aa;" 
d="M556 228h331v-365h-386v125h226v108h-266l-264 -252l-114 102l153 150h-165v132h298l36 71l-99 58l-179 -113l-67 114l117 73l-81 47l45 101h-81v120h118l35 79l151 -47l-14 -32h140l-2 -131l-78 -119l99 -53l-62 -98l129 -19zM756 594h-219v124h383v-125l-105 -150
l123 -76l-75 -112l-151 92l-123 -80l-90 96l112 71l-63 79l112 67l48 -59zM282 579l-22 -49l37 -20l44 69h-59z" />
    <glyph glyph-name="uni52AB" unicode="&#x52ab;" 
d="M929 597v-747h-224v137h75v469h-40l-66 -607l-145 11l2 21l-97 -44l-20 59l-292 -31l-40 130l85 245h-105v135h170v127h-140v135h140v113h160v-113h140v-135h-140v-127h164v-135h-236l-73 -222l121 13l-37 108l133 50l76 -235l56 502h-47v141h63l16 145l142 -11l-15 -134
h174z" />
    <glyph glyph-name="uni52AC" unicode="&#x52ac;" 
d="M237 653h273v-793h-300v130h166v528h-195l-25 -59l188 1v-422l-262 -1v362l-82 34l133 324l132 -37zM920 591v-731h-226v121h96v470h-59l-62 -602l-138 20l66 582h-64v140h80l17 152l130 -10l-15 -142h175zM189 149l48 1v198l-48 -2v-197z" />
    <glyph glyph-name="uni52AD" unicode="&#x52ad;" 
d="M930 637l-1 -774h-224v124h72l1 513h-36l-67 -652l-151 15l67 637h-52v137h67l13 124l148 -12l-11 -112h174zM52 713h463v-390h-238v116h88v148h-98l-51 -274l-152 20l54 254h-66v126zM71 293h434v-423h-434v423zM225 -4h126v173h-126v-173z" />
    <glyph glyph-name="uni52B1" unicode="&#x52b1;" 
d="M563 586h57l20 165l144 -15l-18 -150h164v-726h-227v130h79v454h-35l-77 -592l-150 13l82 579h-39v142zM546 569h-307l-46 -715l-146 9l57 836l442 1v-131zM243 513h299v-128h-144l-7 -64h127v-439h-159v121h47v194h-31l-44 -342l-115 15l68 515h-41v128z" />
    <glyph glyph-name="uni52B2" unicode="&#x52b2;" 
d="M950 611v-751h-226v121h76v490h-66l-71 -622l-146 21l6 53l-459 -60l-14 129l162 21v146h-142v128h51l-83 93l253 205h-209v129h415v-133l-109 -95l149 -105l-55 -94h19v-128h-133v-126l143 18l13 -119l62 539h-73v140h89l16 138l147 -11l-15 -127h200zM436 287l-148 113
l-130 -113h278z" />
    <glyph glyph-name="uni52B3" unicode="&#x52b3;" 
d="M257 557h-188v135h188v59h154v-59h181v59h154v-59h185v-135h-185v-58h-154v58h-181v-58h-154v58zM939 474v-192h-155v57h-571v-57h-155v192h881zM540 245h358v-389h-413v136h253v118h-268l-304 -270l-107 108l182 162h-152v135h265l44 87l167 -25z" />
    <glyph glyph-name="uni52BE" unicode="&#x52be;" 
d="M39 161l158 121l-88 -6l-51 106l80 120h-87v134h177l-23 82l145 36l33 -118h146v-134h-219l-71 -101l123 8l97 74l85 -104l-420 -324zM925 586v-726h-222v130h74v454h-30l-77 -592l-150 13l41 291l-120 -91l83 -139l-124 -69l-72 122l-184 -141l-86 109l431 326l75 -95
l38 266h-48v142h66l20 165l144 -15l-18 -150h159z" />
    <glyph glyph-name="uni52BF" unicode="&#x52bf;" 
d="M691 585l-24 -84l73 -15l-21 -108l-83 16l-41 -145l-33 6l-15 -27h352v-367h-398v119h240v120h-276l-268 -256l-114 102l158 154h-170v128h290l47 76l39 -6l37 125l-66 13l23 110l75 -15l15 54h-68v131h107l15 51l150 -27l-7 -24h170l2 -330h51v-135h-205l-2 334h-53z
M170 411l-122 -7l-9 120l131 9v53h-121v122h121v40h154v-40h97v-122h-97v-42l72 5l8 -126l-80 -4v-162h-243v118h89v36z" />
    <glyph glyph-name="uni52C3" unicode="&#x52c3;" 
d="M365 66v-217h-217v122h83v83l-156 -14l-10 129l200 17l41 57h-158v79h-77v212h159v43h-151v122h151v47h146v-47h149v-122h-149v-43h159v-213h-67v-77l-31 -43l90 8l8 -128zM929 597v-747h-224v137h75v469h-43l-73 -607l-145 11l75 596h-45v141h63l16 130l142 -1l-16 -129
h175zM406 370v43h-206v-43h206z" />
    <glyph glyph-name="uni52C7" unicode="&#x52c7;" 
d="M258 170h-156v400h289l-101 23l10 29h-181v110h730v-108l-82 -54h126v-395h-270v67h114v24h-161v-51h-158v51h-160v-96zM412 622l169 -37l56 37h-225zM258 436h160v24h-160v-24zM737 460h-161v-24h161v24zM258 339h160v24h-160v-24zM737 363h-161v-24h161v24zM903 153
v-293h-386v99h226v82h-258l-290 -200l-101 104l160 96h-167v112h325l28 58l145 -37l-11 -21h329z" />
    <glyph glyph-name="uni52C9" unicode="&#x52c9;" 
d="M946 86v-222h-642v222l-133 -243l-129 83l147 242h-120v235l-60 24l176 339l149 -39l-19 -35h177v-98l-43 -72h106v-354h-206l-16 -28h115v-146h403v58h-126v124h53v320h-30l-46 -457l-147 15l47 442h-30v135h45l13 122l143 -13l-11 -109h161v-545h23zM252 575l-28 -53
h65l37 53h-74zM211 292h39l11 106h-50v-106zM359 292h51v106h-40z" />
    <glyph glyph-name="uni52CB" unicode="&#x52cb;" 
d="M929 657v-807h-224v137h75v529h-38l-78 -667l-143 21l75 646h-67v141h84l12 105l144 -15l-11 -90h171zM500 493h-420v249h420v-249zM358 639h-136v-43h136v43zM525 -39l-83 -116l-169 116l82 116l2 -1v268h-134v-244l24 212l95 -10l-22 -238l-167 -214l-111 88l86 109
h-63v421h450v-421h-116z" />
    <glyph glyph-name="uni52D0" unicode="&#x52d0;" 
d="M925 596v-733h-214v130h71v461h-43l-50 -602l-140 13l54 589h-45v142h62l15 154l134 -14l-12 -140h168zM463 562h82v-123h-141l-1 -161h-244v110h119v51h-210v123h240l38 53h-251v122h403l-1 -127zM528 18l8 -124l-487 -35l-7 125l40 3v266h424v-237zM184 -6l32 2v132
h-32v-134zM277 128v-128l33 3l-1 125h-32zM372 128v-121l32 2v119h-32z" />
    <glyph glyph-name="uni52D2" unicode="&#x52d2;" 
d="M929 580v-720h-211v139h71v440h-42l-67 -590l-136 11l67 579h-59v141h76l18 156l134 -10l-17 -146h166zM553 -28h-174v-122h-148v122h-179v116h179v30h-164v279h166v30h-116v128h-64v107h64v60h140v-60h92v60h140v-60h53v-107h-53v-128h-109v-30h159v-279h-160v-30h174
v-116zM349 555h-92v-38h92v38zM254 293h-61v-70h61v70zM415 223v70h-57v-70h57z" />
    <glyph glyph-name="uni52D6" unicode="&#x52d6;" 
d="M935 590v-730h-225v126h77v468h-45l-72 -604l-150 15l70 589h-46v136h62l19 160l150 -15l-17 -145h177zM187 375h-132v340h465v-340h-132v232h-201v-232zM367 497h-159v73l159 -2v-71zM208 465h159v-73h-159v73zM71 350h433v-480h-433v480zM201 210h173v45h-173v-45z
M201 90h173v45h-173v-45zM201 -30h173v45h-173v-45z" />
    <glyph glyph-name="uni52D8" unicode="&#x52d8;" 
d="M450 -8h95v-135h-473v278h-23v137h37v257h-30v147h30v76h139v-88h124v88h139v-76h36v-147h-36v-257h45v-137h-316v-143h87l-72 30l47 111l86 -37l-47 -104h110l-36 103l87 33l39 -116zM939 597v-747h-184v137h35v469h-17l-64 -601l-145 17l68 584h-73v141h89l18 152
l137 -17l-14 -135h150zM225 525h124v32h-124v-32zM225 398h124v31h-124v-31zM225 272h124v30h-124v-30z" />
    <glyph glyph-name="uni52DF" unicode="&#x52df;" 
d="M879 47l-61 46v-236h-333v92h173v94h-189l-228 -192l-115 85l137 107h-174v44l-39 40l99 86h-96v102h213l18 15h-156v262h127v21h-204v109h204v28h150v-28h191v28h151v-28h202v-109h-202v-21h123v-262h-472l19 -15h529v-102h-100l108 -77zM405 592h191v21h-191v-21z
M726 507h-454v-19h454v19zM272 415h454v19h-454v-19zM750 145l-90 68h-337l-78 -68h124l39 64l153 -24l-21 -40h210z" />
    <glyph glyph-name="uni52E4" unicode="&#x52e4;" 
d="M528 588h81l20 164l149 -16l-20 -147h165v-728h-213v128h69v452h-41l-79 -592l-148 16l82 576h-65v147zM73 -2v84h143v31h-153v90h153v31h-157v219h157v31h-116v115h-52v108h52v41h135v-41h101v41h136v-41h67v-108h-67v-115h-115v-31h157v-219h-158v-31h151v-90h-151v-31
h142v-84h-142v-25l146 7l3 -96l-444 -22l-3 98l158 5v33h-143zM235 560h101v39h-101v-39zM177 318h47v51h-47v-51zM349 318h47v51h-47v-51z" />
    <glyph glyph-name="uni52F0" unicode="&#x52f0;" 
d="M129 580h-68v115h98l16 59l131 -20l-10 -39h165v-363h-209v88h73v160h-58l-68 -267l-134 25zM505 241l-6 472h442v-472h-436zM633 605v-85h36v85h-36zM811 605h-36v-85h36v85zM633 349h36v85h-36v-85zM811 349v85h-36v-85h36zM179 230h84v-371h-115v82h24v194h-5
l-36 -285l-96 11l36 274h-12v95h25l9 70l93 -12zM900 -51l-22 76v-160h-305v255l-32 -196l-56 10v-75h-121v82h26v194h-9l-26 -291l-91 7l25 284h-14v95h23l6 68l91 -9l-5 -59h95v-225l28 176l60 -11v52h126v-247h103v90h65l-35 120l75 24l63 -234zM700 194l80 30l51 -130
l-80 -40z" />
    <glyph glyph-name="uni52F9" unicode="&#x52f9;" 
d="M896 648v-786h-403l1 138h242v508h-434l-137 -217l-132 86l251 397l136 -80l-29 -46h505z" />
    <glyph glyph-name="uni52FA" unicode="&#x52fa;" 
d="M896 648v-786h-403l1 138h245v508h-437l-137 -217l-133 88l255 404l133 -89l-29 -46h505zM573 134l-139 -49l-99 279l138 48z" />
    <glyph glyph-name="uni52FE" unicode="&#x52fe;" 
d="M896 648v-786h-403l1 138h245v508h-437l-137 -217l-133 88l255 404l133 -89l-29 -46h505zM526 97l-302 -38l-73 96l203 329l133 -87l-111 -176l116 11l-33 101l148 35l83 -297l-148 -36z" />
    <glyph glyph-name="uni52FF" unicode="&#x52ff;" 
d="M903 664v-800h-343v134h185v385l-360 -550l-137 90l376 572l121 -78v111h-330l97 -67l-340 -473l-133 91l322 449h-81l-109 -188l-136 73l193 349l148 -68l-17 -30h544z" />
    <glyph glyph-name="uni5300" unicode="&#x5300;" 
d="M892 637v-775h-399l1 138h238v497h-437l-130 -206l-133 88l255 404l133 -89l-36 -57h508zM680 146l-540 -181l-54 139l341 114l-184 97l68 129l220 -113l-50 -95l146 49z" />
    <glyph glyph-name="uni5305" unicode="&#x5305;" 
d="M940 96v-236h-768v488l-38 -56l-115 98l259 387l135 -77l-17 -25h481v-579h63zM247 457h386v-257h88v342h-416zM328 333v-100h157v100h-157zM792 -10v82h-175v39h-289v-121h464z" />
    <glyph glyph-name="uni5306" unicode="&#x5306;" 
d="M906 648v-786h-403l1 138h245v508h-287l79 -57l-82 -119l49 -31l110 163l118 -81l-106 -159l67 -43l-75 -130l-75 48l-174 -260l-119 83l171 254l-51 33l-151 -221l-117 84l148 213l-42 27l81 126l47 -30l70 100h-119l-134 -211l-125 82l255 404l125 -83l-33 -52h527z
" />
    <glyph glyph-name="uni5308" unicode="&#x5308;" 
d="M902 689v-832h-363v117h207v590h-475l-35 -87h28v-252l75 134l-68 140l103 42l54 -113l54 113l105 -44l-10 -20h134v-474h-581v393l-79 29l136 345l149 -42l-15 -39h581zM577 476l-56 -117l56 -114v231zM264 198v-75h313v61l-89 -35l-58 132l-73 -132z" />
    <glyph glyph-name="uni530D" unicode="&#x530d;" 
d="M923 690v-832h-199v13h-136v66h30v37h-123v-103h-137v103h-121v-103h-128v494h12l-108 51l193 379l126 -64l-22 -41h613zM784 570h-537l-33 -64h144v47h137v-47h89l-6 41l107 11l6 -52h53v-112h-249v-29h248v-391h41v596zM358 394h-203l-15 -29h218v29zM358 258h-121v-34
h121v34zM616 258h-121v-34h121v34zM358 117h-121v-35h121v35zM616 117h-121v-35h121v35z" />
    <glyph glyph-name="uni530F" unicode="&#x530f;" 
d="M947 66v-206h-465v607l-71 -83l-22 21v-50h-244v52l-21 -23l-72 82l103 105h-62v132h152l11 56l116 1l-12 -57h114v-132h-71l79 -72v3h75l-86 39l128 229l132 -66l-21 -34h218v-562h-213v74h-84v-201h196v85h120zM334 456l-65 61l50 54h-25l-104 -115h144zM606 502h160
v-268h20v316h-151zM651 385h-20v-93h20v93zM77 314h391v-124h-195l-16 -47h183v-282h-243v104h113v68h-111l-78 86l21 71h-66z" />
    <glyph glyph-name="uni5310" unicode="&#x5310;" 
d="M905 711v-851h-402l1 53h-414v326h601v-288h58v642h-493l-12 -25h460v-94h-507l-12 -24h482v-187h-552v162l-82 37l150 318l144 -44l-14 -27zM255 339h272v31h-272v-31zM325 143h-87v-34h87v34zM454 109h87v34h-87v-34zM325 49h-87v-40h87v40zM454 9h87v40h-87v-40z" />
    <glyph glyph-name="uni5315" unicode="&#x5315;" 
d="M898 196v-316h-777v866h160v-356l472 229l67 -147l-539 -258v-194h467v176h150z" />
    <glyph glyph-name="uni5316" unicode="&#x5316;" 
d="M264 434h59v-584h-158v432l-120 50l194 421l143 -67zM935 100v-231h-425v276l-66 -51l-92 130l158 122v397h159v-274l165 128l92 -130l-257 -199v-259h124v91h142z" />
    <glyph glyph-name="uni5317" unicode="&#x5317;" 
d="M286 203v180h-220v140h220v225h160v-899h-160v200l-181 -77l-59 127zM725 748v-251l156 88l70 -132l-226 -127v-333h76v152h140v-287l-376 1v889h160z" />
    <glyph glyph-name="uni5319" unicode="&#x5319;" 
d="M940 40h-360v700h152v-233l158 93l60 -130l-218 -126v-186h95v112h113v-230zM530 362h-430v368h430v-368zM248 626v-39h138v39h-138zM386 466v39h-138v-39h138zM410 46l540 -61l-20 -135l-727 89l-13 -89l-145 15l50 330l125 -10l-20 -115l60 -7v150h-200v118h495v-118
h-145v-36h130l1 -96h-131v-35z" />
    <glyph glyph-name="uni531A" unicode="&#x531a;" 
d="M868 729v-135h-596v-609h611v-125h-771v870z" />
    <glyph glyph-name="uni531D" unicode="&#x531d;" 
d="M911 734v-132h-650v-607h666v-132h-823v872zM312 490h195v90h167v-90h209v-400l-187 1l1 112h36v161h-70v-338l-146 1v337h-56v-266l-149 1v391z" />
    <glyph glyph-name="uni5320" unicode="&#x5320;" 
d="M927 -7v-132h-823v874l807 -1v-132h-650v-609h666zM590 10v263h-122l-22 -271l-150 20l48 540l464 31l16 -127l-343 -24l-4 -45h364v-124h-105v-263h-146z" />
    <glyph glyph-name="uni5321" unicode="&#x5321;" 
d="M911 734v-132h-650v-609h666v-132h-823v874zM308 51v126h207v72l-184 2v111h184v63h-202v124h578v-124h-221v-63h198v-113h-198v-72h218v-126h-580z" />
    <glyph glyph-name="uni5323" unicode="&#x5323;" 
d="M927 1v-126h-823v850l807 -1v-122h-651v-601h667zM514 16v90h-210v462h565v-462h-201v-90h-154zM444 452v-59h85v59h-85zM729 452h-75v-59h75v59zM444 222h85v63h-85v-63zM729 222v63h-75v-63h75z" />
    <glyph glyph-name="uni5326" unicode="&#x5326;" 
d="M940 -9v-126h-845v866l825 -1v-124h-669v-615h689zM370 15v72l-87 -8l-10 106l97 8v56h-72l-25 86l35 117h-29v106h61l13 42l115 -20l-7 -22h91v-106h-128l-34 -101h30v62h79v-62h49v-102h-44v-45l49 4l5 -105l-54 -5v-83h-134zM675 15l-122 10l45 358h-34v108h47l12 94
l141 -10l-10 -85h97v-359h26v114h45v-215h-190l-1 353h-13z" />
    <glyph glyph-name="uni532A" unicode="&#x532a;" 
d="M916 734v-132h-687v-609h703v-132h-860v874zM872 528v-100h-120v-56h113v-99h-113v-78h127v-100h-127v-85h-158v575h158v-57h120zM378 195v74h-108v100h108v59h-121v100h121v56h158v-575h-158v86h-126v100h126z" />
    <glyph glyph-name="uni532E" unicode="&#x532e;" 
d="M940 -17v-126h-845l-10 884l835 -1v-124h-679v-633h48l-31 77l98 25h-69l-2 174h619l2 -174h-61l89 -21l-30 -81h36zM515 373v20h-232v184h232v23h152v-23h231v-184h-231v-20h265v-94h-675v94h258zM517 473v24h-106v-24h106zM665 473h106v24h-106v-24zM426 103l80 20
l29 42h-109v-62zM765 165h-116l22 -11l-16 -24l110 -26v61zM394 -17h410l-217 55z" />
    <glyph glyph-name="uni5339" unicode="&#x5339;" 
d="M893 8v-135h-781v850l756 -1v-133h-158v-355h79v127h94v-267l-331 -1v496h-31l-63 -515l-158 19l59 496h-87v-581h621z" />
    <glyph glyph-name="uni533A" unicode="&#x533a;" 
d="M917 18v-136h-808v830h790v-136h-632v-558h650zM304 130l174 175l-160 159l112 108l158 -157l155 156l112 -108l-157 -158l168 -168l-111 -109l-167 167l-173 -174z" />
    <glyph glyph-name="uni533B" unicode="&#x533b;" 
d="M927 -3v-132h-823v870l807 -1v-132h-429l74 -60l-18 -20h311v-122h-172v-74h204v-122h-128l144 -95l-84 -112h114zM261 -3h140l-94 94l129 113h-129v122h193v74h-71l-49 -55l-114 88l154 169h-159v-605zM416 -3h392l-218 148z" />
    <glyph glyph-name="uni533E" unicode="&#x533e;" 
d="M927 -7v-132h-823v874l807 -1v-132h-240l5 -36h216v-226h-463l-25 -333l-135 7l42 552h224l-3 23l100 13h-381v-609h676zM756 470h-317l-2 -30h319v30zM788 67v35h-23v-64h-83v64h-27v-64h-83v64h-23v-96h-107v312h461v-313h-124v62h9zM572 227h-23v-55h23v55zM682 227
h-28v-55h28v55zM788 172v55h-23v-55h23z" />
    <glyph glyph-name="uni533F" unicode="&#x533f;" 
d="M937 -15v-122h-863v872h847v-122h-690v-628h706zM311 96l-80 102l136 96h-125v108h250l24 50h-32v-25h-148v25h-86v120h86v27h148v-27h182v27h148v-27h92v-120h-92v-25h-148v25h-71l57 -22l-14 -28h278v-108h-349l-33 -25h341v-264h-540v110zM719 163h-228v-52h228v52z
" />
    <glyph glyph-name="uni5341" unicode="&#x5341;" 
d="M417 436v314h160v-314h358v-140h-358v-445h-160v445h-355v140h355z" />
    <glyph glyph-name="uni5343" unicode="&#x5343;" 
d="M934 225h-349v-374h-166v374h-355v144h355v197l-275 -27l-13 141l733 73l14 -141l-293 -29v-214h349v-144z" />
    <glyph glyph-name="uni5345" unicode="&#x5345;" 
d="M944 266h-87v-415h-158v415h-104v-387h-158v387h-135l-47 -421l-157 21l45 400h-89v140h105l39 345l157 -15l-37 -330h119v261h158v-261h104v345h158v-345h87v-140z" />
    <glyph glyph-name="uni5347" unicode="&#x5347;" 
d="M951 389v-149h-166v-395h-159v395h-259l-72 -395l-157 33l67 362h-145v149h172l33 178l-150 -17l-19 146l456 55l19 -148l-140 -16l-36 -198h231v366h159v-366h166z" />
    <glyph glyph-name="uni5348" unicode="&#x5348;" 
d="M929 298v-140h-332v-308h-160v308h-373v140h373v223h-146l-89 -183l-144 70l183 375l143 -70l-25 -52h484v-140h-246v-223h332z" />
    <glyph glyph-name="uni5349" unicode="&#x5349;" 
d="M418 640v110h158v-110h349v-140h-349v-163h-158v163h-338v140h338zM57 273h146l1 159h158l2 -159h272v160h160v-160h149v-140h-149v-281h-160v281h-288l-88 -285l-155 48l77 237h-125v140z" />
    <glyph glyph-name="uni534A" unicode="&#x534a;" 
d="M951 196v-140h-372v-206h-160v206h-371v140h371v134h-313v140h92l-55 184l148 44l61 -199l-98 -29h165v280h160v-280h167l-102 30l61 199l148 -44l-56 -185h104v-140h-322v-134h372z" />
    <glyph glyph-name="uni534E" unicode="&#x534e;" 
d="M41 528l241 242l109 -110l-241 -236zM358 478l149 64v207h158v-138l183 79l55 -129l-238 -103v-61h114v79h138v-203h-410v117l-94 -41zM348 250h-147v311h147v-311zM948 185v-140h-363v-194h-159v194h-379v140h379v69h159v-69h363z" />
    <glyph glyph-name="uni534F" unicode="&#x534f;" 
d="M649 578h173v-720h-230v132h82v448h-48l-98 -587l-138 20l94 567h-112v140h136l29 177l140 -12zM338 358h-72v-507h-148v507h-68v140h68v256h148v-256h72v-140zM946 104l-89 -16l-29 257l87 16zM454 324l-71 -225l-94 31l70 224z" />
    <glyph glyph-name="uni5351" unicode="&#x5351;" 
d="M951 117v-130h-280v-136h-160v136h-462v130h129l98 102h-147v459h191l12 82l159 -20l-9 -62h402v-459h-425l-90 -102h142v81h160v-81h280zM285 503h145v54h-145v-54zM580 503h147v54h-147v-54zM285 341h145v57h-145v-57zM580 341h147v57h-147v-57z" />
    <glyph glyph-name="uni5352" unicode="&#x5352;" 
d="M84 278l188 256h-183l1 136h324l-10 58l158 24l14 -82h328v-136h-198l102 -74l-38 -51l138 -100l-90 -105l-131 94l-60 -81l-118 83l170 234h-372l96 -70l-37 -50l105 -75l-83 -109l-106 71l-79 -106zM939 179v-138h-360v-192h-160v192h-357v138h357v49h160v-49h360z" />
    <glyph glyph-name="uni5353" unicode="&#x5353;" 
d="M388 125v43h-248v395h240v186h160v-38h355v-100h-355v-48h280v-395h-272v-43h400v-135h-400v-140h-160v140h-339v135h339zM300 408h360v41h-360v-41zM300 281h360v41h-360v-41z" />
    <glyph glyph-name="uni5355" unicode="&#x5355;" 
d="M936 113v-135h-354l-1 -128l-159 1v127h-361v135h361v54h-289v453h139l-17 104l155 25l22 -129h142l25 133l149 -25l-20 -108h144v-453h-290v-54h354zM288 447h137v50h-137v-50zM716 497h-137v-50h137v50zM288 291h137v49h-137v-49zM716 340h-137v-49h137v49z" />
    <glyph glyph-name="uni5356" unicode="&#x5356;" 
d="M230 404h-159v122h348v51h-276v122h276v51h160v-51h292v-122h-293l-1 -52h364v-205l-162 1v83h-457l140 -57l-41 -95l-219 90zM943 58h-168l163 -86l-76 -127l-265 140l48 73h-24l-481 -216l-59 129l233 87h-257v122h172l-106 42l40 102l217 -88l-22 -56h118l42 206
l155 -17l-33 -189h303v-122z" />
    <glyph glyph-name="uni5357" unicode="&#x5357;" 
d="M578 565l-1 -47h328l5 -668h-271v120h113v415h-501v-536h-156v670h325v46h-370v140h370v46h159v-46h371v-140h-372zM577 3l-1 -153h-154v153h-145v113h145v39h-134v113h45l-21 65l131 35l32 -100h53l32 100l130 -35l-21 -65h48v-113h-139l-1 -39h152v-113h-152z" />
    <glyph glyph-name="uni535A" unicode="&#x535a;" 
d="M718 586v-27h217v-385h-95v-18h110v-114h-110v-183h-220v100h71v83h-147l72 -69l-78 -87l-100 100l55 56h-179v114h380v33h111v44h-102v-41h-115v41h-102v-59h-130v385h207v27h-219v113h219v50h155v-50h86l-9 40l102 17l13 -57h40v-113h-232zM338 358h-73v-507h-143v507
h-72v140h72v256h143v-256h73v-140zM486 458v-32h102v32h-102zM805 458h-102v-32h102v32zM588 313v33h-102v-33h102zM805 313v33h-102v-33h102z" />
    <glyph glyph-name="uni535C" unicode="&#x535c;" 
d="M757 161l-253 182l1 -477h-161v874h160v-360l71 99l271 -196z" />
    <glyph glyph-name="uni535E" unicode="&#x535e;" 
d="M557 459v-198l93 88l204 -223l-104 -94l-193 211v-394h-160v610h-347v138h359l-30 131l155 31l30 -135l-130 -27h515v-138h-392z" />
    <glyph glyph-name="uni535F" unicode="&#x535f;" 
d="M860 150l-141 195l-2 -495h-154l3 900h154l-1 -310l76 60l185 -245zM79 675h378v-735h-378v735zM225 70h86v475h-86v-475z" />
    <glyph glyph-name="uni5360" unicode="&#x5360;" 
d="M570 750v-105h380v-135h-380v-118h315v-526h-770v526h295v358h160zM273 -2h454v262h-454v-262z" />
    <glyph glyph-name="uni5361" unicode="&#x5361;" 
d="M381 413v341h164v-99h328v-136h-328v-106h398v-138h-398v-425h-164v425h-317v138h317zM788 -104l-183 254l123 84l182 -253z" />
    <glyph glyph-name="uni5362" unicode="&#x5362;" 
d="M562 565v-75h323v-385h-649l-26 -275l-160 20l60 640h290v260h162v-55h388v-130h-388zM260 365l-13 -135h480v135h-467z" />
    <glyph glyph-name="uni5363" unicode="&#x5363;" 
d="M551 574v-59h333v-657h-765v657h272v235h160v-58h336v-118h-336zM274 375v-54h403v-21h1v-250h-404v-52h455v377h-455zM538 216h-264v-61h264v61z" />
    <glyph glyph-name="uni5364" unicode="&#x5364;" 
d="M551 574v-59h333v-654h-765v654h272v235h160v-58h336v-118h-336zM269 390v-93l84 91l148 -115l163 110l70 -90v97h-465zM269 115l118 80l-118 95v-175zM734 92v183l-125 -86zM269 -12h374l-151 122l-168 -115l-55 81v-88zM734 -12v86l-82 -86h82z" />
    <glyph glyph-name="uni5366" unicode="&#x5366;" 
d="M568 311h-519v124h189v91h-175v124h175v100h158v-100h147v-124h-147v-91h172v-124zM837 170l-79 183l-2 -503h-154l3 900h154l-1 -280l76 33l124 -272zM568 14l7 -127l-517 -29l-7 127l187 10v104h-172v124h172v75h158v-75h140v-124h-140v-95z" />
    <glyph glyph-name="uni5367" unicode="&#x5367;" 
d="M835 85l-46 357l-2 -592h-154l3 900h154l-1 -198l121 18l55 -455zM76 730h521v-130h-117l-1 -118h103v-369h-101l-2 -128h118v-130h-521v875zM232 600v-118h105l1 118h-106zM232 360v-125h212v125h-212zM339 113h-107v-128h105z" />
    <glyph glyph-name="uni5369" unicode="&#x5369;" 
d="M562 48v130h93v411h-122v-738h-158v872h434v-675h-247z" />
    <glyph glyph-name="uni536B" unicode="&#x536b;" 
d="M6549.5 2484.5l-0.5 0.5l1 -1zM526 23h414v-138h-880v138h304l2 551h-257l1 136h790v-576h-315v133h153l-1 307h-209z" />
    <glyph glyph-name="uni536E" unicode="&#x536e;" 
d="M917 545v-124h-647l-40 -569l-157 11l55 842l755 39l10 -131l-612 -32l-3 -36h639zM770 62h131v-196h-590v508h573v-279h-344v104h192v55h-271v-258h309v66z" />
    <glyph glyph-name="uni536F" unicode="&#x536f;" 
d="M355 562l147 -18l-94 -696l-147 19l26 194l-118 -50l-80 99v549l352 98l28 -123l-230 -66v-383l68 25zM908 674v-629h-215v136h66l-4 359h-83v-691h-150v825h386z" />
    <glyph glyph-name="uni5370" unicode="&#x5370;" 
d="M468 633l-221 -82v-112h203v-134h-203v-147l202 60l29 -122l-302 -89l-83 96v525l324 130zM676 47v132h75v359h-104v-688h-155v822h413v-625h-229z" />
    <glyph glyph-name="uni5371" unicode="&#x5371;" 
d="M950 525v-126h-671l-70 -554l-159 20l67 555l-87 40l180 300l170 -20l-16 -25h461v-118l-56 -72h181zM582 525l59 62h-360l-40 -62h341zM790 38h140v-178h-600v490h555v-287h-260v98h118v73h-265v-259h312v63z" />
    <glyph glyph-name="uni5373" unicode="&#x5373;" 
d="M415 200l115 -295l-120 -50l-30 77l-235 -89l-80 100v782h427v-512h-277v-195l117 42l-37 95zM935 723v-708h-225v135h75v438h-107v-739h-148v874h405zM215 603v-78h139v78h-139zM354 335v78h-139v-78h139z" />
    <glyph glyph-name="uni5374" unicode="&#x5374;" 
d="M450 217l84 -315l-120 -40l-26 92l-278 -86l-60 130l101 260h-101v134h161l1 132h-152v134h152l1 92h150l-1 -92h148v-134h-148l-1 -132h159v-134h-213l-94 -232l142 43l-33 113zM940 718v-731h-215v129h65v467h-101v-734h-144v869h395z" />
    <glyph glyph-name="uni5375" unicode="&#x5375;" 
d="M353 565l147 -20l-90 -700l-152 21l27 180l-132 -42l-80 101v570l367 90l30 -120l-253 -65v-111l83 31l35 -97zM924 718v-707h-233v125h91v95l-72 -16l-42 206v-571h-146v868h402zM782 323v267h-114v-128l82 18zM217 160l95 30l9 82l-41 -17l-63 176v-271z" />
    <glyph glyph-name="uni5377" unicode="&#x5377;" 
d="M790 79h120v-208h-686v298l-110 -82l-87 115l161 110h-127v126h332l8 48h-298v126h91l-29 72l137 57l53 -129h67l23 144l159 -17l-20 -127h62l53 128l137 -57l-29 -71h88v-126h-332l-7 -48h380l1 -126h-116l139 -96l-88 -110l-129 99v-186h-257v92h110v44h-213v-166h407
v90zM376 264h288l-75 48h-155z" />
    <glyph glyph-name="uni5378" unicode="&#x5378;" 
d="M498 33l14 -131l-454 -49l-14 131l37 4v281h122v-268l30 3v330h-166v126h166v94h-34l-26 -82l-133 47l78 242l133 -40l-13 -41h251v-126h-106v-94h106v-126h-106v-77h106v-124h-106v-112zM914 685v-689h-212v128h62v428h-84v-701h-154v834h388z" />
    <glyph glyph-name="uni537A" unicode="&#x537a;" 
d="M849 485l109 -83l-93 -116l-45 39v-75h-655v67l-41 -37l-91 111l148 118h-118v104h325v-96l-179 -161h575l-187 161l-13 -9v-136h-196v84h45v102l139 75h-379v105h573v-101l-53 -37l39 -36l145 115l78 -97zM810 79h100v-208h-748v353h616v-215h-392v82h232v24h-306v-126
h498v90z" />
    <glyph glyph-name="uni537F" unicode="&#x537f;" 
d="M240 560l105 -5l-34 -705l-127 10l8 167l-77 -37l-50 90v579l236 96l40 -120l-148 -65v-415l29 12zM935 720v-725h-148v105h24v510h-36v-760h-122v36l-93 -28l-14 81l-141 -64l-50 100v745h274v-507h-164v-183l62 23l-18 111l96 23l48 -277v810h282zM465 618v-105h60v105
h-60zM525 315v106h-60v-106h60z" />
    <glyph glyph-name="uni5382" unicode="&#x5382;" 
d="M936 569h-668l-59 -720l-159 16l70 844h816v-140z" />
    <glyph glyph-name="uni5384" unicode="&#x5384;" 
d="M950 585h-676l-60 -740l-164 20l70 860h830v-140zM605 150v118h116v120h-223v-379h285v101h147v-235h-590v647h535v-372h-270z" />
    <glyph glyph-name="uni5385" unicode="&#x5385;" 
d="M950 725v-140h-676l-60 -740l-164 20l70 860h830zM292 497h643v-138h-217v-504h-313v133h153l-1 371h-265v138z" />
    <glyph glyph-name="uni5386" unicode="&#x5386;" 
d="M950 725v-140h-676l-60 -740l-164 20l70 860h830zM657 432h256l-1 -566h-324v123h164l1 307h-149l-179 -456l-157 60l156 396h-140l1 136h193l55 139l161 -45z" />
    <glyph glyph-name="uni5389" unicode="&#x5389;" 
d="M950 725v-140h-676l-60 -740l-164 20l70 860h830zM292 540h643v-136h-365l-25 -79h355v-466h-315v122h157v210h-240l-110 -341l-152 50l158 504h-106v136z" />
    <glyph glyph-name="uni538B" unicode="&#x538b;" 
d="M948 705v-137h-667l-60 -723l-159 16l69 844h817zM880 19h60v-136h-687v136h256v210h-207v136h207v167h160v-167h244v-136h-244v-210h72l-15 160l137 13z" />
    <glyph glyph-name="uni538C" unicode="&#x538c;" 
d="M275 590l-59 -736l-160 11l70 865h824v-140h-675zM960 -50l-129 -95l-213 330l97 64h-95l-249 -399l-136 82l205 317h-155v138h215l25 178l155 -15l-23 -163h141l-88 113l105 80l110 -130l-82 -63h92v-138h-174z" />
    <glyph glyph-name="uni538D" unicode="&#x538d;" 
d="M950 593h-502l101 -23l-18 -52h389v-129h-434l-31 -90h76v60h158v-60h217v-130h-217v-60h247v-132h-247v-125h-158v125h-266v132h266v60h-181l-61 113l38 107h-46v129h93l26 75h-132l-60 -742l-158 10l73 858h827v-126z" />
    <glyph glyph-name="uni5395" unicode="&#x5395;" 
d="M940 730v-140h-704l-36 -736l-156 11l47 865h849zM935 565l1 -707h-256l2 128h115v579h138zM594 121l85 -219l-135 -54l-82 213l-91 -213l-139 45l108 247h-91v424h398l1 -419h-124v286h-151v-264l16 8l10 201l107 -3l-13 -241l-27 -63zM775 23h-101v517h101v-517z" />
    <glyph glyph-name="uni5398" unicode="&#x5398;" 
d="M950 735v-132h-680l-60 -758l-160 20l70 870h830zM681 -26h269v-111h-710v111h288v42h-258v107h258v46h-231v392h616v-392h-232v-46h259v-107h-259v-42zM445 463v-52h92v52h-92zM765 463h-92v-52h92v52zM445 267h92v52h-92v-52zM765 267v52h-92v-52h92z" />
    <glyph glyph-name="uni539A" unicode="&#x539a;" 
d="M950 738v-126h-680l-60 -767l-160 20l70 873h830zM882 262h-576v319h576v-319zM753 491h-319v-30h319v30zM753 381h-319v-29h319v29zM822 104h127v-111h-252v-140h-288v105h157v35h-315v111h364l55 28h-376v106h586v-106z" />
    <glyph glyph-name="uni539D" unicode="&#x539d;" 
d="M930 731v-126h-640l-60 -757l-160 17l70 866h790zM794 378h127v-112h-639v112h127v48h-107v110h107v53h142v-53h101v53h142v-53h107v-110h-107v-48zM551 378h101v48h-101v-48zM324 238h556v-374h-556v374zM472 130v-38h260v38h-260zM732 -24v38h-260v-38h260z" />
    <glyph glyph-name="uni539F" unicode="&#x539f;" 
d="M683 135v-280h-275v103h122v177h-227v416h167l25 52h-225l-60 -758l-160 20l70 870h830v-132h-274l-34 -52h261v-416h-220zM753 447h-300v-58h300v58zM453 239h300v58h-300v-58zM475 55l-155 -200l-100 80l155 195zM960 -65l-100 -80l-155 200l100 75z" />
    <glyph glyph-name="uni53A2" unicode="&#x53a2;" 
d="M945 720v-130h-710l-40 -740l-145 10l45 860h850zM530 317l20 -337l-67 -10l-19 347h-6v-462h-136v462h-6l-19 -347l-67 10l20 337h-15v126h85v127h140v-127h82v-126h-12zM557 541h363v-661h-363v661zM691 343h95v83h-95v-83zM691 171h95v82h-95v-82zM691 -4h95v83h-95
v-83z" />
    <glyph glyph-name="uni53A3" unicode="&#x53a3;" 
d="M890 221l-21 14v-277h-209v-108h-147v108h-209v275l-16 -11l-57 78l-24 -450l-152 10l51 875h835v-120h-693l-15 -275l128 83h-109v108h237v69h150v-69h83l-18 27l82 52l54 -79h64v-108h-97l155 -95zM719 331l-142 92h-6l-129 -92h277zM522 225h-88v-32h88v32zM739 225
h-88v-32h88v32zM434 62h88v33h-88v-33zM739 62v33h-88v-33h88z" />
    <glyph glyph-name="uni53A5" unicode="&#x53a5;" 
d="M460 104l-80 -231l-120 33l68 198h-86v288h97v-196h21v241h-127v73l-53 -665l-136 20l72 865h829v-120h-704l-6 -75h43l-8 47l90 12l10 -59h75l10 58l86 -10l-8 -48h48v-98h-129v-241h21v196h97v-14l69 216l104 -34l-7 -22h185v-213h-114v103h-107l-39 -117l-91 29v-236
h-110zM847 -121l-128 211l-71 -226l-113 41l151 471l112 -32l-33 -106l181 -291z" />
    <glyph glyph-name="uni53A6" unicode="&#x53a6;" 
d="M270 620l-52 -775l-153 20l60 875h805v-120h-660zM900 -156l-310 82l-286 -82l-41 108l167 40l-66 43l-49 -50l-81 78l95 99h-35v319h228l8 21h-252v98h632v-98h-235l-8 -20h223v-320h-403l-17 -17l407 -2v-106l-93 -48l162 -38zM444 388h295l1 1v19h-296v-20zM444 312
h296v20h-296v-20zM444 236h295l1 1v19h-296v-20zM692 62h-160l69 -37z" />
    <glyph glyph-name="uni53A8" unicode="&#x53a8;" 
d="M255 600l-61 -755l-144 20l70 865h825v-130h-690zM950 348h-50v-488h-248v107h112v381h-164v122h164v110h136v-110h50v-122zM594 456h-338v104h338v-104zM574 163h-304v253h304v-253zM464 328h-84v-77h84v77zM660 70l-60 220l95 30l60 -220zM610 15l10 -115l-370 -35
l-15 120l197 16l25 148l115 -14l-22 -125zM270 125l109 16l21 -123l-108 -16z" />
    <glyph glyph-name="uni53A9" unicode="&#x53a9;" 
d="M945 730v-130h-694l-61 -755l-140 20l70 865h825zM566 562h379v-114h-93l-17 -111h109v-117h-139l-18 -45h51v-194h49v73h57v-193h-226v148l-68 -164l-130 44l26 60l-38 -24l-10 17l-150 -103l-89 78v649h291v-427h-34l64 -112l84 193h-98v189h105v-72h36l17 111h-158
v114zM368 400h74v72h-74v-72zM368 234h74v72h-74v-72zM438 41l-23 37l98 61h-141v-140z" />
    <glyph glyph-name="uni53AE" unicode="&#x53ae;" 
d="M950 725v-118h-707l-45 -757l-147 9l56 866h843zM777 382h172v-106h-31v-426h-120l-2 426h-24l-21 -428l-135 8l37 690l275 39l18 -122l-166 -24zM565 7l50 -127l-110 -36l-54 140l68 23h-176l62 -24l-65 -143l-106 44l57 123h-60v107h42v301h-28v106h28v63h130v-63h58
v63h130v-63h37v-106h-37v-301h28v-107h-54zM461 415h-58v-41h58v41zM461 287h-58v-41h58v41zM461 159h-58v-45h58v45z" />
    <glyph glyph-name="uni53B6" unicode="&#x53b6;" 
d="M810 150l-69 110l-621 -35l-40 130l340 395l135 -90l-250 -282l351 15l-61 97l125 85l220 -330z" />
    <glyph glyph-name="uni53BB" unicode="&#x53bb;" 
d="M305 18l371 16l-71 96l115 85l220 -280l-120 -95l-46 62l-654 -37l-40 130l241 245h-271v135h371v135h-341v135h342l1 105h160l-1 -105h338v-135h-339v-135h369v-135h-406z" />
    <glyph glyph-name="uni53BF" unicode="&#x53bf;" 
d="M939 122h-197l157 -187l-125 -97l-47 58l-551 -41v1l-62 128l131 138h-183v132h126v469h628v-469h123v-132zM344 546h316v47h-316v-47zM344 401h316v47h-316v-47zM344 254h316v49h-316v-49zM582 77l60 45h-197l-121 -132l310 22z" />
    <glyph glyph-name="uni53C1" unicode="&#x53c1;" 
d="M29 223l173 123h-152v122h356l22 33l-282 -11l-39 115l308 170l95 -90l-158 -84l300 11l-61 49l89 87l239 -186l-93 -90l-52 42l-172 -7l-28 -39h376v-122h-159l188 -127l-75 -115l-182 138v-59h-443v56l-174 -132zM420 346l-65 -49h294l-65 49h-164zM183 141h635v-116
h-635v116zM92 -17h821v-118h-821v118z" />
    <glyph glyph-name="uni53C2" unicode="&#x53c2;" 
d="M979 219l-75 -115l-228 172l18 -55l-433 -61l-10 57l-146 -110l-76 116l173 123h-152v122h356l22 33l-282 -11l-39 115l308 170l95 -90l-158 -84l300 11l-61 49l89 87l239 -186l-93 -90l-52 42l-172 -7l-28 -39h376v-122h-159zM613 324l-29 22h-164l-81 -62zM785 90
l-598 -85l-17 113l590 82zM880 74l22 -124l-800 -109l-21 124z" />
    <glyph glyph-name="uni53C8" unicode="&#x53c8;" 
d="M840 -155l-355 263l-335 -263l-100 130l309 237l-239 248l115 110l263 -274l207 279h-605v140h800l1 -149l-1 -1l-263 -352l313 -228z" />
    <glyph glyph-name="uni53C9" unicode="&#x53c9;" 
d="M840 -150l-340 230l-350 -230l-100 135l290 189l-220 291l110 90l267 -313l108 172l-100 -104l-145 160l110 100l139 -149l96 154h-605v140h800l1 -140h-1l-245 -397l295 -178z" />
    <glyph glyph-name="uni53CA" unicode="&#x53ca;" 
d="M860 -150l-259 145l-251 -150l-90 135l199 110l-143 209l-116 -444l-150 40l185 704h-145v136h720v-136l-70 -144h190v-132l-183 -227l203 -111zM365 488l231 -321l139 156h-115l-55 109l78 167h-248z" />
    <glyph glyph-name="uni53CB" unicode="&#x53cb;" 
d="M400 520l-24 -77h524v-136l-162 -208l212 -109l-90 -140l-269 146l-261 -151l-90 130l209 119l-125 135l86 78h-76l-132 -427l-152 50l173 590h-173v135h212l28 95l172 -30l-20 -65h508v-135h-550zM700 307h-253l141 -146z" />
    <glyph glyph-name="uni53CC" unicode="&#x53cc;" 
d="M368 -70l-98 208l-97 -288l-135 55l122 346l-107 278l120 44l92 -214l68 219h-280v132h430v-132l-106 -319l121 -259zM826 -155l-106 293l-124 -288l-135 55l151 350l-106 274l120 44l92 -214l68 219h-280v132h430v-132l-108 -323l138 -362z" />
    <glyph glyph-name="uni53CD" unicode="&#x53cd;" 
d="M850 -150l-255 145l-255 -150l-90 135l199 108l-143 151l86 88h-117l-62 -482l-163 20l108 820l744 65l18 -140l-615 -55l-12 -92h607v-136l-162 -230l207 -112zM428 327l164 -169l118 169h-282z" />
    <glyph glyph-name="uni53D1" unicode="&#x53d1;" 
d="M445 414l-27 -62h452v-136l-129 -156l167 -97l-108 -131l-222 145l-201 -145l-104 119l152 98l-95 78l87 89h-60l-159 -357l-154 63l222 492h-103l-92 99l96 237l153 -60l-55 -140h82l73 207l164 -40l-56 -167h199l-95 122l114 90l129 -164l-61 -48h100v-136h-469z
M669 216h-209l123 -105z" />
    <glyph glyph-name="uni53D4" unicode="&#x53d4;" 
d="M351 298v-443h-239v117h93v326h-155v134h140v318h158v-95h122v-128h-122v-95h152v-134h-149zM830 -166l-124 286l-116 -296l-135 55l47 118l-82 -27l-60 235l110 35l56 -183l70 178l-106 278l120 44l94 -220l86 233h-290v134h440v-134l-126 -333l146 -333zM160 -20
l-120 30l50 230l110 -25z" />
    <glyph glyph-name="uni53D6" unicode="&#x53d6;" 
d="M470 -19v-131h-132v111l-273 -42l-25 130l49 7v544h-39v130h440v-130h-20v-492l40 6l10 -125zM825 -140l-100 263l-95 -273l-135 55l122 335l-107 299l120 44l93 -234l67 239h-280v132h430v-132l-108 -344l123 -314zM221 600v-100h117v100h-117zM338 392h-117v-100h117
v100zM338 90v94h-117v-110z" />
    <glyph glyph-name="uni53D7" unicode="&#x53d7;" 
d="M840 152l-151 -106l246 -66l-55 -130l-376 112l-384 -112l-45 130l240 67l-80 53l81 72h-146v78h-110v220h120l-25 50l140 45l39 -95h90l-44 85l102 35l-337 -25l-15 135l735 55l15 -135l-177 -13l137 -52l-42 -85h142v-220h-100v-98zM579 470h58l56 136l-164 -12z
M792 348h-584v-58h584v58zM341 172l158 -81l146 81h-304z" />
    <glyph glyph-name="uni53D8" unicode="&#x53d8;" 
d="M315 564h-245v132h345l-6 46l160 25l15 -71h346v-132h-245v-243h-148v243h-74v-243h-148v243zM899 -162l-387 136l-394 -135l-77 130l234 74l-124 56l38 80h-76v129h69l-112 59l105 187l124 -59l-107 -187h613l-105 185l125 61l103 -181l-111 -65h78v-124l-183 -129
l239 -75zM319 179l181 -81l139 81h-320z" />
    <glyph glyph-name="uni53D9" unicode="&#x53d9;" 
d="M840 -155l-124 277l-116 -287l-135 55l32 78l-71 -18l-40 205l110 25l33 -133l77 189l-96 254l120 45l84 -197l86 233h-249l-66 -101l-5 4v-80h-104v-75h144v-122h-144v-342h-239v102l-92 23l50 200l110 -25l-38 -193h69v235h-176v122h176v75h-146v63l-70 78l280 255
l110 -80l-14 -12l114 -79v86h440v-134l-126 -333l146 -323zM426 516l-125 98l-110 -98h235z" />
    <glyph glyph-name="uni53DB" unicode="&#x53db;" 
d="M306 128l-34 -277l-149 18l32 259h-94v132h110l8 68h-111v132h128l7 62l-110 -35l-49 170l116 34l46 -149l25 206l150 -12l-34 -276h134v-132h-150l-9 -68h152v-132h-168zM834 -148l-57 123l-61 -127l-121 57l-7 -55l-142 18l97 827l381 49l21 -132l-270 -31l-13 -112
h277v-125l-80 -238l98 -198zM363 511l43 172l115 -27l-43 -171zM647 344l-8 -69l84 38l44 -97l38 128h-158zM595 -94l96 190l-60 118z" />
    <glyph glyph-name="uni53DF" unicode="&#x53df;" 
d="M895 -145l-394 92l-401 -97l-55 130l209 48l-99 42l68 68h-123v120h329v38h-339v379l285 75l35 -122l-168 -40v-32h152v-100h-152v-40h187v334h142v-334h187v40h-152v100h152v39h-157v120h309v-419h-339v-38h329v-120l-177 -102l227 -46zM307 138l192 -67l166 67h-358z
" />
    <glyph glyph-name="uni53E0" unicode="&#x53e0;" 
d="M946 -40v-104l-892 -3v107h86v196h-76v149h14l-31 56l91 19l-46 17l36 32h-62v85h70l-18 54l147 22l-67 14l33 42h-79v94h701v-104l-139 -38l167 -23l-22 -61h76v-82l-83 -46l86 -15l-29 -66h24v-149h-80v-196h93zM356 646l144 -31l151 31h-295zM310 514h180v-85l-85 -46
l72 -19l-32 -59h85l-30 61l69 14l-51 15l37 34h-50v85h196l-206 32zM203 429l72 -26l69 26h-141zM794 429h-159l83 -26zM155 305h220l-97 31zM832 305l-112 30l-107 -30h219zM791 221h-585v-22h585v22zM697 123h-401v-26h401v26zM697 55h-401v-26h401v26zM697 -13h-401v-27
h401v27z" />
    <glyph glyph-name="uni53E3" unicode="&#x53e3;" 
d="M138 -72v732h721v-732h-721zM296 60h405v470h-405v-470z" />
    <glyph glyph-name="uni53E4" unicode="&#x53e4;" 
d="M576 490l-1 -131h300v-496h-760v496h300l1 131h-366v135h367l1 125h160l-1 -125h373v-135h-374zM717 227h-444v-232h444v232z" />
    <glyph glyph-name="uni53E5" unicode="&#x53e5;" 
d="M915 666v-806h-378v123h222v550h-440l-40 -83h356v-435h-480v275l-122 45l209 431l165 -51l-24 -49h532zM301 137h188v191h-188v-191z" />
    <glyph glyph-name="uni53E6" unicode="&#x53e6;" 
d="M905 287v-425h-363v126h203l-1 161h-353l-189 -317l-147 75l150 242h-139l1 138h262l25 60h-228v383h748v-383h-336l-26 -60h393zM284 473h434v131h-434v-131z" />
    <glyph glyph-name="uni53E8" unicode="&#x53e8;" 
d="M915 711v-846h-264v133h106v575h-78l-113 -723l-155 18l110 705h-92v138h486zM67 693h334v-745h-334v745zM206 82h55v477h-55v-477z" />
    <glyph glyph-name="uni53E9" unicode="&#x53e9;" 
d="M684 -43v132h69v494h-101v-734h-151v873h403v-765h-220zM97 -51v761h345v-761h-345zM234 80h71v499h-71v-499z" />
    <glyph glyph-name="uni53EA" unicode="&#x53ea;" 
d="M945 -45l-120 -110l-230 270l99 75h-383l99 -75l-235 -270l-120 110l212 235h-122v535h715v-535h-122zM303 322h399v271h-399v-271z" />
    <glyph glyph-name="uni53EB" unicode="&#x53eb;" 
d="M920 749v-899h-154v209l-196 -44l-70 106v579h155v-533l111 24v558h154zM83 710h362v-795h-362v795zM225 47h75v531h-75v-531z" />
    <glyph glyph-name="uni53EC" unicode="&#x53ec;" 
d="M545 427h203l-1 163h-267l-275 -332h674v-395h-750v395h65l-144 76l222 256h-196l1 134h831v-420h-363v123zM287 -5h434v131h-434v-131z" />
    <glyph glyph-name="uni53ED" unicode="&#x53ed;" 
d="M808 -150l-120 860l154 20l124 -855zM539 -145l-155 25l115 840l155 -30zM67 -50v735l322 -1v-735zM204 80h54v475h-54v-475z" />
    <glyph glyph-name="uni53EE" unicode="&#x53ee;" 
d="M949 563h-154v-699l-298 1v125h138v573h-178v140h492v-140zM72 677h347v-745h-347v745zM217 66h61v477h-61v-477z" />
    <glyph glyph-name="uni53EF" unicode="&#x53ef;" 
d="M945 581h-78v-720h-365v126h207v594h-651v134h887v-134zM605 65h-480v435h480v-435zM455 372h-180v-179h180v179z" />
    <glyph glyph-name="uni53F0" unicode="&#x53f0;" 
d="M802 347l-692 -37l-50 120l339 367l125 -100l-229 -247l395 20l-105 115l115 95l260 -270l-115 -110zM135 277h730v-416h-730v416zM293 -11h414v160h-414v-160z" />
    <glyph glyph-name="uni53F1" unicode="&#x53f1;" 
d="M817 120h122v-250h-393v295l-56 -45l-66 85v-265h-354v735h354v-409l122 96v388h160v-263l154 121l95 -118l-249 -198v-294h111v122zM288 551h-76v-487h76v487z" />
    <glyph glyph-name="uni53F2" unicode="&#x53f2;" 
d="M914 -141l-564 143l-128 -170l-125 89l93 122l-133 34l38 140l193 -46l37 48h-197v425h325l16 112l154 -21l-12 -91h272v-425h-371l-65 -87l503 -121zM284 351h126l24 161h-150v-161zM592 512l-22 -161h155v161h-133z" />
    <glyph glyph-name="uni53F3" unicode="&#x53f3;" 
d="M402 490l-60 -143h543v-472h-650v216l-43 -103l-162 62l183 440h-163v135h220l60 145l172 -40l-44 -105h492v-135h-548zM393 5h334v212h-334v-212z" />
    <glyph glyph-name="uni53F5" unicode="&#x53f5;" 
d="M878 719v-130h-606v-587h621v-132h-781v850zM329 55v481h489v-481h-489zM487 181h171v231h-171v-231z" />
    <glyph glyph-name="uni53F6" unicode="&#x53f6;" 
d="M592 441v309h158v-309h200v-140h-200v-450h-158v450h-175v140h175zM65 -50l-5 735h339l5 -735h-339zM205 80h61l-5 475h-61z" />
    <glyph glyph-name="uni53F7" unicode="&#x53f7;" 
d="M870 418h-740v307h740v-307zM714 603h-428v-67h428v67zM350 255l-25 -60h535v-335h-446v125h282v84h-506l-35 106l31 80h-131v128h890v-128h-595z" />
    <glyph glyph-name="uni53F8" unicode="&#x53f8;" 
d="M91 573v130h789v-842h-388v130h229v582h-630zM118 392v128h513v-128h-513zM118 30v311h510v-311h-510zM259 148h226v75h-226v-75z" />
    <glyph glyph-name="uni53F9" unicode="&#x53f9;" 
d="M818 -154l-136 299l-134 -301l-148 55l7 16h-339v795h347v-778l155 339l-125 252l135 61l106 -216l91 221h-324v132h477v-132l-128 -335l159 -346zM270 578h-60v-531h60v531z" />
    <glyph glyph-name="uni53FB" unicode="&#x53fb;" 
d="M924 644v-768h-260v126h104v508h-74l-115 -656l-153 21l111 635h-96v134h120l20 115l153 -21l-16 -94h206zM72 673h336v-745h-336v745zM213 59h55v483h-55v-483z" />
    <glyph glyph-name="uni53FC" unicode="&#x53fc;" 
d="M908 712v-840h-337v132h181v572h-315v136h471zM66 -64v764h335v-764h-335zM210 69h51v498h-51v-498zM530 73l-126 69l209 381l125 -68z" />
    <glyph glyph-name="uni53FD" unicode="&#x53fd;" 
d="M842 714v-717h35v173h63v-305h-255v711h-92l-44 -726l-156 10l51 854h398zM390 -15h-326v694h326v-694zM254 117v430h-49v-430h49z" />
    <glyph glyph-name="uni5401" unicode="&#x5401;" 
d="M950 299h-170v-449h-301v133h143v316h-191v136h191v152h-181v138h499v-138h-160v-152h170v-136zM65 710h346v-755h-346v755zM210 87h60v491h-60v-491z" />
    <glyph glyph-name="uni5403" unicode="&#x5403;" 
d="M561 519l-60 -100h374v-134l-262 -288h185v112h142v-244h-497l-43 122l269 298h-249v134h26l-61 26v-505h-325v735h325v-155l140 240l145 -60l-27 -45h297v-136h-379zM253 547h-56v-479h56v479z" />
    <glyph glyph-name="uni5404" unicode="&#x5404;" 
d="M910 155l-40 15v-310h-740v301l-40 -16l-55 135l286 118l-87 69l-60 -98l-134 66l190 325l165 -30l-18 -30h493v-143l-195 -156l290 -111zM655 567h-328l172 -113zM726 225l-228 87l-213 -87h441zM712 97h-424v-109h424v109z" />
    <glyph glyph-name="uni5406" unicode="&#x5406;" 
d="M831 -156l-15 71l-343 -31l-34 131l153 248l-157 -11l-26 132l225 380l133 -44l-200 -337l104 7l130 211l129 -54l-327 -516l186 14l-31 150l128 24l73 -353zM74 674h314v-714h-314v714zM197 92h69v450h-69v-450z" />
    <glyph glyph-name="uni5408" unicode="&#x5408;" 
d="M982 443l-85 -125l-137 92v-97h-530v86l-125 -92l-90 120l490 358l125 -90l-19 -14zM711 443l-221 149l-201 -149h422zM125 253h740v-398h-740v398zM283 -17h424v142h-424v-142z" />
    <glyph glyph-name="uni5409" unicode="&#x5409;" 
d="M578 550v-88h342v-130h-840v130h338v88h-368v130h369l1 70h160l-1 -70h371v-130h-372zM125 270h750v-406h-750v406zM283 -8h434v150h-434v-150z" />
    <glyph glyph-name="uni540A" unicode="&#x540a;" 
d="M920 331v-411h-255v123h97v163h-185l-2 -356h-159v356h-168v-296h-158v421h326v66h-277v338h720v-338h-281l-1 -66h343zM295 520h409v92h-409v-92z" />
    <glyph glyph-name="uni540C" unicode="&#x540c;" 
d="M916 715v-863h-301v118h149v615h-522l-3 -735h-152l3 865h826zM715 401h-432v124h432v-124zM288 39v311l422 1v-311zM416 144l166 1v101l-166 -1v-101z" />
    <glyph glyph-name="uni540D" unicode="&#x540d;" 
d="M890 265v-405h-710v276l-80 -31l-55 135l320 122l-115 63l81 110l193 -95l141 125h-342l-141 -200l-142 70l230 332l175 -30l-27 -38h452v-144l-270 -255l-90 -35h380zM732 137h-394v-149h394v149z" />
    <glyph glyph-name="uni540E" unicode="&#x540e;" 
d="M950 512v-132h-680l-57 -541l-155 15l87 851l779 45l11 -134l-644 -40l-7 -64h666zM285 300h620v-436l-620 -2v438zM435 -12h320v188h-320v-188z" />
    <glyph glyph-name="uni540F" unicode="&#x540f;" 
d="M908 -149l-582 113l-116 -132l-125 89l71 76l-76 15l41 122l136 -28l54 58h-196v365h318l6 49h-379v124h394l7 54l157 -16l-5 -38h327v-124h-342l-6 -49h293v-365h-385l-63 -72l508 -96zM267 284h136l16 125h-152v-125zM577 409l-16 -125h172v125h-156z" />
    <glyph glyph-name="uni5410" unicode="&#x5410;" 
d="M418 17h188v350h-170v134h170v248h160v-248h171v-134h-171v-350h183v-136h-531v136zM64 -57v745h341v-745h-341zM205 73h59v485h-59v-485z" />
    <glyph glyph-name="uni5411" unicode="&#x5411;" 
d="M914 652v-793h-299v128h143v535h-506l-3 -670h-156l3 800h209l65 120l161 -52l-36 -68h419zM689 43l-370 -1v404l370 1v-404zM551 329l-94 -1v-168l94 1v168z" />
    <glyph glyph-name="uni5412" unicode="&#x5412;" 
d="M822 120h117v-250h-379v353l-125 -13l-10 135l135 15v188l-115 -18l-15 135l480 75l20 -135l-210 -32v-196l215 23l15 -135l-230 -25v-236h102v116zM69 675h339v-735h-339v735zM209 64h61v487h-61v-487z" />
    <glyph glyph-name="uni5413" unicode="&#x5413;" 
d="M855 135l-135 158v-443h-158v747h-128v138h516v-138h-230v-164l45 37l200 -235zM60 710h351v-745h-351v745zM205 99h65v477h-65v-477z" />
    <glyph glyph-name="uni5415" unicode="&#x5415;" 
d="M155 347v373h690v-373h-690zM311 471h382v123h-382v-123zM105 -130v430h790v-430h-790zM261 0h478v176h-478v-176z" />
    <glyph glyph-name="uni5416" unicode="&#x5416;" 
d="M530 460l-109 148v-698h-361v740h330l-29 40l115 75l174 -215zM965 670l-225 -270l-109 90l209 270zM280 518h-75v-476h75v476zM570 406h158v-556h-158v556z" />
    <glyph glyph-name="uni5417" unicode="&#x5417;" 
d="M935 373v-513h-365v120h213v275h-343v270h142v-152h160v228h-329v124h477v-352h45zM69 675h325v-735h-325v735zM209 64h51v487h-51v-487zM750 60h-335v128h335v-128z" />
    <glyph glyph-name="uni541B" unicode="&#x541b;" 
d="M359 243l-37 -58h541v-321h-617v202l-72 -113l-141 84l145 206h-50v128h132l18 49h-219v122h264l18 49h-198v128h704v-168h91v-138h-91v-170h-488zM494 542h195v49h-177zM433 371h256v49h-238zM400 -16h307v81h-307v-81z" />
    <glyph glyph-name="uni541D" unicode="&#x541d;" 
d="M910 185l-50 18v-338h-720v338l-50 -18l-60 145l256 90l-160 128h-61v132h357l-7 47l150 15l8 -62h362v-132h-61l-160 -128l256 -90zM342 548l158 -102l158 102h-316zM733 250l-233 86l-233 -86h466zM702 120h-404v-125h404v125z" />
    <glyph glyph-name="uni541E" unicode="&#x541e;" 
d="M880 145l-10 7v-287h-740v290l-15 -10l-85 115l162 111h-142v136h319l47 75l-326 1v132h820v-134l-302 1l-47 -75h389v-136h-166l181 -111zM704 262l-164 109h-100l-157 -109h421zM712 132h-424v-137h424v137z" />
    <glyph glyph-name="uni541F" unicode="&#x541f;" 
d="M397 456v-527h-340v751h340v-166l276 267l124 -94l-19 -19l207 -165l-100 -120l-213 183l-187 -183zM255 549h-56v-489h56v489zM746 345h170v-139l-216 -335l-131 70l170 265l-307 1v138h176l-15 123l135 19z" />
    <glyph glyph-name="uni5420" unicode="&#x5420;" 
d="M670 409l-115 -569l-155 35l106 534h-99v136h126l42 210l160 -25l-37 -185h78l-21 125l105 20l24 -145h56v-136h-270zM65 665h332v-725h-332v725zM203 70h64v465h-64v-465zM955 -115l-150 -40l-110 490l150 40z" />
    <glyph glyph-name="uni5421" unicode="&#x5421;" 
d="M844 127h96v-269h-283v66l-175 -72l-77 85l3 814h146v-289h85v-128h-85v-315l69 28l34 -115v819h148v-281l95 86l77 -97l-172 -153v-320h39v141zM61 710h306v-755h-306v755zM196 79h44v507h-44v-507z" />
    <glyph glyph-name="uni5423" unicode="&#x5423;" 
d="M883 26l-19 90v-245h-375v732h153l-28 122l141 28l72 -302l-143 -34l-36 158v-567l111 1v139h98l-37 176l120 29l64 -296zM70 670h296v-735h-296v735zM200 63h36v479h-36v-479zM394 466l92 -8l-21 -362l-95 7z" />
    <glyph glyph-name="uni5426" unicode="&#x5426;" 
d="M51 398l285 196h-265v132h458l1 1l1 -1h398v-132h-338l-45 -32h31v-284h-158v194l-275 -196zM679 575l278 -181l-85 -119l-278 182zM128 260h751v-392h-751v392zM286 7h435v114h-435v-114z" />
    <glyph glyph-name="uni5427" unicode="&#x5427;" 
d="M941 111v-253h-527v865h519v-504h-366v-231h274v123h100zM60 690h323v-785h-323v785zM567 348h43v246h-43v-246zM780 594h-43v-246h43v246zM206 37h41v521h-41v-521z" />
    <glyph glyph-name="uni5428" unicode="&#x5428;" 
d="M925 68v-204h-357v274h-178v342h131v-206h47v261h-194v126h194v88h147v-88h200v-126h-200v-261h52v202h131v-338h-183v-164h94v94h116zM60 670h301v-705h-301v705zM183 99h49v437h-49v-437z" />
    <glyph glyph-name="uni5429" unicode="&#x5429;" 
d="M890 328v-463h-266v118h112v275h-91l-103 -408l-147 35l98 373h-54v78l-44 14v-385h-335v735h335v-260l115 305l148 -45l-126 -310h265l-113 310l146 45l145 -385zM260 574h-60v-483h60v483z" />
    <glyph glyph-name="uni542B" unicode="&#x542b;" 
d="M830 292l-111 -83h161v-349h-760v349h378l117 83h-445l1 110l-68 -42l-80 125l493 300l125 -90l-25 -16l352 -179l-85 -125l-53 29v-112zM801 420l-319 176l-283 -176h238l-43 72l107 57l81 -129h219zM728 91h-456v-113h456v113z" />
    <glyph glyph-name="uni542C" unicode="&#x542c;" 
d="M945 293h-72l-2 -443h-148l2 443h-85l-25 -443l-158 8l50 842l405 45l20 -134l-275 -31l-9 -151h297v-136zM70 680h355v-761h-355v761zM219 50h65v499h-65v-499z" />
    <glyph glyph-name="uni542D" unicode="&#x542d;" 
d="M935 527h-531v130h191l-12 77l157 20l14 -97h181v-130zM64 651h324v-695h-324v695zM203 88h50v431h-50v-431zM944 33v-176h-221v486h-125l-48 -499l-151 18l60 611h417v-492h31v52h37z" />
    <glyph glyph-name="uni542E" unicode="&#x542e;" 
d="M392 -35h-330v715h330v-196l147 280l143 -66l-123 -214l231 9l-50 149l134 43l102 -315l-130 -44l-16 46l-400 -15l-38 112v-504zM254 548h-53v-451h53v451zM483 354l149 -24l-97 -483l-154 30zM873 127h69v-264h-261v466h154v-337h38v135z" />
    <glyph glyph-name="uni542F" unicode="&#x542f;" 
d="M933 687v-357h-682l-37 -484l-158 9l63 832h315l-6 52l161 16l8 -68h336zM775 547h-508l-6 -77h514v77zM264 278h637v-393h-637v393zM430 20h305v123h-305v-123z" />
    <glyph glyph-name="uni5431" unicode="&#x5431;" 
d="M849 -164l-170 189l-178 -193l-106 96v-13h-327v795h327v-769l151 157l-121 148l89 64h-92v134h169v82h-172v136h172v87h156v-87h199v-136h-199v-82h184v-139l-125 -193l162 -179zM260 578h-50v-531h50v531zM568 310l106 -130l92 130h-198z" />
    <glyph glyph-name="uni5432" unicode="&#x5432;" 
d="M790 740h140v-890h-140v890zM415 -140v126h180v171h-205v340h195v100h-205v128h345v-356h-195v-84h205v-425h-320zM65 -75v765h290v-765h-290zM195 39h40v537h-40v-537z" />
    <glyph glyph-name="uni5434" unicode="&#x5434;" 
d="M865 417h-730v313h730v-313zM717 610h-434v-73h434v73zM950 -30l-75 -120l-365 140l51 79h-88l-331 -219l-92 100l193 119h-183v128h341l14 52h-305v126h780v-126h-310l-14 -52h374v-128h-299z" />
    <glyph glyph-name="uni5435" unicode="&#x5435;" 
d="M773 750v-533h-143v532zM63 -9v729h314v-729h-314zM863 309l-68 314l124 27l68 -312zM517 241l-125 32l86 363l124 -31zM197 122h50v467h-50v-467zM969 129l-482 -277l-67 116l479 286z" />
    <glyph glyph-name="uni5438" unicode="&#x5438;" 
d="M860 -150l-114 129l-89 -133l-118 77l-10 -77l-143 16l92 738h-61v136h514v-136l-84 -147h94v-150l-91 -204l115 -131zM397 -35h-337v745h337v-745zM626 600l-27 -210l137 -181l43 104h-52l-47 117l87 170h-141zM260 576h-59v-477h59v477zM540 -69l109 163l-74 110z" />
    <glyph glyph-name="uni5439" unicode="&#x5439;" 
d="M369 -2h-309v712h309v-362l92 409l152 -31l-18 -76h315l-1 -289h-137v161h-221l-47 -218l-135 30v-336zM239 582h-49v-456h49v456zM831 -154l-172 309l-155 -300l-138 62l162 305l65 229l146 -35l-57 -203l86 45l189 -344z" />
    <glyph glyph-name="uni543B" unicode="&#x543b;" 
d="M930 684v-820h-242v124h98v445l-130 -553l-129 31l152 624l107 -30v43h-252l-68 -195l-81 27v-455h-317v775h317v-241l100 308l145 -28l-19 -55h319zM250 578h-47v-531h47v531zM646 503l-143 -554l-117 36l141 543z" />
    </font>
</defs>
</svg>
